G75*
G70*
%OFA0B0*%
%FSLAX24Y24*%
%IPPOS*%
%LPD*%
%AMOC8*
5,1,8,0,0,1.08239X$1,22.5*
%
%ADD10C,0.0070*%
%ADD11C,0.0050*%
%ADD12C,0.0030*%
%ADD13C,0.0040*%
%ADD14C,0.0120*%
%ADD15R,0.0288X0.0004*%
%ADD16R,0.0356X0.0004*%
%ADD17R,0.0408X0.0004*%
%ADD18R,0.0444X0.0004*%
%ADD19R,0.0472X0.0004*%
%ADD20R,0.0504X0.0004*%
%ADD21R,0.0524X0.0004*%
%ADD22R,0.0544X0.0004*%
%ADD23R,0.0564X0.0004*%
%ADD24R,0.0580X0.0004*%
%ADD25R,0.0596X0.0004*%
%ADD26R,0.0604X0.0004*%
%ADD27R,0.0616X0.0004*%
%ADD28R,0.0208X0.0004*%
%ADD29R,0.0212X0.0004*%
%ADD30R,0.0176X0.0004*%
%ADD31R,0.0188X0.0004*%
%ADD32R,0.0160X0.0004*%
%ADD33R,0.0168X0.0004*%
%ADD34R,0.0148X0.0004*%
%ADD35R,0.0160X0.0004*%
%ADD36R,0.0136X0.0004*%
%ADD37R,0.0152X0.0004*%
%ADD38R,0.0132X0.0004*%
%ADD39R,0.0144X0.0004*%
%ADD40R,0.0128X0.0004*%
%ADD41R,0.0140X0.0004*%
%ADD42R,0.0124X0.0004*%
%ADD43R,0.0136X0.0004*%
%ADD44R,0.0124X0.0004*%
%ADD45R,0.0136X0.0004*%
%ADD46R,0.0120X0.0004*%
%ADD47R,0.0128X0.0004*%
%ADD48R,0.0116X0.0004*%
%ADD49R,0.0112X0.0004*%
%ADD50R,0.0116X0.0004*%
%ADD51R,0.0112X0.0004*%
%ADD52R,0.0120X0.0004*%
%ADD53R,0.0116X0.0004*%
%ADD54R,0.0116X0.0004*%
%ADD55R,0.0204X0.0004*%
%ADD56R,0.0268X0.0004*%
%ADD57R,0.0200X0.0004*%
%ADD58R,0.0300X0.0004*%
%ADD59R,0.0308X0.0004*%
%ADD60R,0.0368X0.0004*%
%ADD61R,0.0292X0.0004*%
%ADD62R,0.0352X0.0004*%
%ADD63R,0.0368X0.0004*%
%ADD64R,0.0424X0.0004*%
%ADD65R,0.0348X0.0004*%
%ADD66R,0.0392X0.0004*%
%ADD67R,0.0408X0.0004*%
%ADD68R,0.0464X0.0004*%
%ADD69R,0.0388X0.0004*%
%ADD70R,0.0444X0.0004*%
%ADD71R,0.0496X0.0004*%
%ADD72R,0.0416X0.0004*%
%ADD73R,0.0452X0.0004*%
%ADD74R,0.0468X0.0004*%
%ADD75R,0.0524X0.0004*%
%ADD76R,0.0444X0.0004*%
%ADD77R,0.0492X0.0004*%
%ADD78R,0.0544X0.0004*%
%ADD79R,0.0468X0.0004*%
%ADD80R,0.0488X0.0004*%
%ADD81R,0.0516X0.0004*%
%ADD82R,0.0564X0.0004*%
%ADD83R,0.0508X0.0004*%
%ADD84R,0.0536X0.0004*%
%ADD85R,0.0580X0.0004*%
%ADD86R,0.0524X0.0004*%
%ADD87R,0.0552X0.0004*%
%ADD88R,0.0596X0.0004*%
%ADD89R,0.0540X0.0004*%
%ADD90R,0.0564X0.0004*%
%ADD91R,0.0612X0.0004*%
%ADD92R,0.0536X0.0004*%
%ADD93R,0.0576X0.0004*%
%ADD94R,0.0624X0.0004*%
%ADD95R,0.0680X0.0004*%
%ADD96R,0.0592X0.0004*%
%ADD97R,0.0632X0.0004*%
%ADD98R,0.0560X0.0004*%
%ADD99R,0.0688X0.0004*%
%ADD100R,0.0600X0.0004*%
%ADD101R,0.0644X0.0004*%
%ADD102R,0.0236X0.0004*%
%ADD103R,0.0312X0.0004*%
%ADD104R,0.0216X0.0004*%
%ADD105R,0.0224X0.0004*%
%ADD106R,0.0200X0.0004*%
%ADD107R,0.0244X0.0004*%
%ADD108R,0.0196X0.0004*%
%ADD109R,0.0264X0.0004*%
%ADD110R,0.0176X0.0004*%
%ADD111R,0.0172X0.0004*%
%ADD112R,0.0260X0.0004*%
%ADD113R,0.0180X0.0004*%
%ADD114R,0.0240X0.0004*%
%ADD115R,0.0152X0.0004*%
%ADD116R,0.0152X0.0004*%
%ADD117R,0.0236X0.0004*%
%ADD118R,0.0168X0.0004*%
%ADD119R,0.0224X0.0004*%
%ADD120R,0.0164X0.0004*%
%ADD121R,0.0220X0.0004*%
%ADD122R,0.0212X0.0004*%
%ADD123R,0.0140X0.0004*%
%ADD124R,0.0132X0.0004*%
%ADD125R,0.0124X0.0004*%
%ADD126R,0.0156X0.0004*%
%ADD127R,0.0204X0.0004*%
%ADD128R,0.0148X0.0004*%
%ADD129R,0.0192X0.0004*%
%ADD130R,0.0192X0.0004*%
%ADD131R,0.0184X0.0004*%
%ADD132R,0.0184X0.0004*%
%ADD133R,0.0108X0.0004*%
%ADD134R,0.0176X0.0004*%
%ADD135R,0.0136X0.0004*%
%ADD136R,0.0132X0.0004*%
%ADD137R,0.0168X0.0004*%
%ADD138R,0.0108X0.0004*%
%ADD139R,0.0164X0.0004*%
%ADD140R,0.0108X0.0004*%
%ADD141R,0.0104X0.0004*%
%ADD142R,0.0124X0.0004*%
%ADD143R,0.0156X0.0004*%
%ADD144R,0.0156X0.0004*%
%ADD145R,0.0112X0.0004*%
%ADD146R,0.0108X0.0004*%
%ADD147R,0.0104X0.0004*%
%ADD148R,0.0112X0.0004*%
%ADD149R,0.0104X0.0004*%
%ADD150R,0.0144X0.0004*%
%ADD151R,0.0144X0.0004*%
%ADD152R,0.0104X0.0004*%
%ADD153R,0.0100X0.0004*%
%ADD154R,0.0100X0.0004*%
%ADD155R,0.0096X0.0004*%
%ADD156R,0.0128X0.0004*%
%ADD157R,0.0148X0.0004*%
%ADD158R,0.0228X0.0004*%
%ADD159R,0.0504X0.0004*%
%ADD160R,0.0532X0.0004*%
%ADD161R,0.0552X0.0004*%
%ADD162R,0.0688X0.0004*%
%ADD163R,0.0564X0.0004*%
%ADD164R,0.0568X0.0004*%
%ADD165R,0.0568X0.0004*%
%ADD166R,0.0552X0.0004*%
%ADD167R,0.0536X0.0004*%
%ADD168R,0.0472X0.0004*%
%ADD169R,0.0196X0.0004*%
%ADD170R,0.0132X0.0004*%
%ADD171R,0.0164X0.0004*%
%ADD172R,0.0172X0.0004*%
%ADD173R,0.0172X0.0004*%
%ADD174R,0.0188X0.0004*%
%ADD175R,0.0192X0.0004*%
%ADD176R,0.0204X0.0004*%
%ADD177R,0.0156X0.0004*%
%ADD178R,0.0172X0.0004*%
%ADD179R,0.0216X0.0004*%
%ADD180R,0.0216X0.0004*%
%ADD181R,0.0232X0.0004*%
%ADD182R,0.0168X0.0004*%
%ADD183R,0.0228X0.0004*%
%ADD184R,0.0232X0.0004*%
%ADD185R,0.0204X0.0004*%
%ADD186R,0.0256X0.0004*%
%ADD187R,0.0252X0.0004*%
%ADD188R,0.0256X0.0004*%
%ADD189R,0.0320X0.0004*%
%ADD190R,0.0224X0.0004*%
%ADD191R,0.0300X0.0004*%
%ADD192R,0.0236X0.0004*%
%ADD193R,0.0684X0.0004*%
%ADD194R,0.0636X0.0004*%
%ADD195R,0.0548X0.0004*%
%ADD196R,0.0556X0.0004*%
%ADD197R,0.0560X0.0004*%
%ADD198R,0.0624X0.0004*%
%ADD199R,0.0548X0.0004*%
%ADD200R,0.0612X0.0004*%
%ADD201R,0.0540X0.0004*%
%ADD202R,0.0600X0.0004*%
%ADD203R,0.0508X0.0004*%
%ADD204R,0.0516X0.0004*%
%ADD205R,0.0516X0.0004*%
%ADD206R,0.0584X0.0004*%
%ADD207R,0.0496X0.0004*%
%ADD208R,0.0500X0.0004*%
%ADD209R,0.0476X0.0004*%
%ADD210R,0.0480X0.0004*%
%ADD211R,0.0472X0.0004*%
%ADD212R,0.0460X0.0004*%
%ADD213R,0.0460X0.0004*%
%ADD214R,0.0452X0.0004*%
%ADD215R,0.0432X0.0004*%
%ADD216R,0.0436X0.0004*%
%ADD217R,0.0428X0.0004*%
%ADD218R,0.0408X0.0004*%
%ADD219R,0.0484X0.0004*%
%ADD220R,0.0396X0.0004*%
%ADD221R,0.0376X0.0004*%
%ADD222R,0.0376X0.0004*%
%ADD223R,0.0376X0.0004*%
%ADD224R,0.0448X0.0004*%
%ADD225R,0.0340X0.0004*%
%ADD226R,0.0332X0.0004*%
%ADD227R,0.0412X0.0004*%
%ADD228R,0.0312X0.0004*%
%ADD229R,0.0296X0.0004*%
%ADD230R,0.0280X0.0004*%
%ADD231R,0.0356X0.0004*%
%ADD232R,0.0188X0.0004*%
%ADD233R,0.0272X0.0004*%
%ADD234R,0.0284X0.0004*%
%ADD235R,0.0308X0.0004*%
%ADD236R,0.0316X0.0004*%
%ADD237R,0.0360X0.0004*%
%ADD238R,0.0348X0.0004*%
%ADD239R,0.0380X0.0004*%
%ADD240R,0.0400X0.0004*%
%ADD241R,0.0372X0.0004*%
%ADD242R,0.0412X0.0004*%
%ADD243R,0.0396X0.0004*%
%ADD244R,0.0440X0.0004*%
%ADD245R,0.0428X0.0004*%
%ADD246R,0.0484X0.0004*%
%ADD247R,0.0504X0.0004*%
%ADD248R,0.0520X0.0004*%
%ADD249R,0.0504X0.0004*%
%ADD250R,0.0536X0.0004*%
%ADD251R,0.0452X0.0004*%
%ADD252R,0.0464X0.0004*%
%ADD253R,0.0476X0.0004*%
%ADD254R,0.0576X0.0004*%
%ADD255R,0.0556X0.0004*%
%ADD256R,0.0588X0.0004*%
%ADD257R,0.0492X0.0004*%
%ADD258R,0.0684X0.0004*%
%ADD259R,0.0216X0.0004*%
%ADD260R,0.0304X0.0004*%
%ADD261R,0.0248X0.0004*%
%ADD262R,0.0148X0.0004*%
%ADD263R,0.0232X0.0004*%
%ADD264R,0.0180X0.0004*%
%ADD265R,0.0212X0.0004*%
%ADD266R,0.0144X0.0004*%
%ADD267R,0.0152X0.0004*%
%ADD268R,0.0164X0.0004*%
%ADD269R,0.0184X0.0004*%
%ADD270R,0.0192X0.0004*%
%ADD271R,0.0208X0.0004*%
%ADD272R,0.0252X0.0004*%
%ADD273R,0.0244X0.0004*%
%ADD274R,0.0276X0.0004*%
%ADD275R,0.0268X0.0004*%
%ADD276R,0.0184X0.0004*%
%ADD277R,0.0224X0.0004*%
%ADD278R,0.0592X0.0004*%
%ADD279R,0.0264X0.0004*%
%ADD280R,0.0324X0.0004*%
%ADD281R,0.0252X0.0004*%
%ADD282R,0.0228X0.0004*%
%ADD283R,0.0572X0.0004*%
%ADD284R,0.0584X0.0004*%
%ADD285R,0.0524X0.0004*%
%ADD286R,0.0528X0.0004*%
%ADD287R,0.0512X0.0004*%
%ADD288R,0.0476X0.0004*%
%ADD289R,0.0516X0.0004*%
%ADD290R,0.0488X0.0004*%
%ADD291R,0.0432X0.0004*%
%ADD292R,0.0436X0.0004*%
%ADD293R,0.0476X0.0004*%
%ADD294R,0.0416X0.0004*%
%ADD295R,0.0416X0.0004*%
%ADD296R,0.0376X0.0004*%
%ADD297R,0.0420X0.0004*%
%ADD298R,0.0424X0.0004*%
%ADD299R,0.0384X0.0004*%
%ADD300R,0.0384X0.0004*%
%ADD301R,0.0336X0.0004*%
%ADD302R,0.0388X0.0004*%
%ADD303R,0.0296X0.0004*%
%ADD304R,0.0344X0.0004*%
%ADD305R,0.0344X0.0004*%
%ADD306R,0.0288X0.0004*%
%ADD307R,0.0280X0.0004*%
%ADD308C,0.0060*%
%ADD309C,0.0020*%
%ADD310C,0.0080*%
%ADD311R,0.0240X0.0340*%
%ADD312R,0.0340X0.0240*%
D10*
X002384Y016610D02*
X002384Y017030D01*
X002594Y017241D01*
X002804Y017030D01*
X002804Y016610D01*
X003029Y016715D02*
X003134Y016610D01*
X003449Y016610D01*
X003449Y017030D01*
X003673Y016925D02*
X003778Y017030D01*
X004094Y017030D01*
X004094Y017241D02*
X004094Y016610D01*
X003778Y016610D01*
X003673Y016715D01*
X003673Y016925D01*
X003029Y017030D02*
X003029Y016715D01*
X002804Y016925D02*
X002384Y016925D01*
X004318Y017030D02*
X004423Y017030D01*
X004423Y016610D01*
X004318Y016610D02*
X004528Y016610D01*
X004747Y016715D02*
X004747Y016925D01*
X004852Y017030D01*
X005063Y017030D01*
X005168Y016925D01*
X005168Y016715D01*
X005063Y016610D01*
X004852Y016610D01*
X004747Y016715D01*
X004423Y017241D02*
X004423Y017346D01*
X006037Y017241D02*
X006037Y016610D01*
X006037Y016925D02*
X006457Y016925D01*
X006681Y016715D02*
X006786Y016820D01*
X007101Y016820D01*
X007101Y016925D02*
X007101Y016610D01*
X006786Y016610D01*
X006681Y016715D01*
X006457Y016610D02*
X006457Y017241D01*
X006786Y017030D02*
X006996Y017030D01*
X007101Y016925D01*
X007326Y016925D02*
X007326Y016715D01*
X007431Y016610D01*
X007746Y016610D01*
X007970Y016610D02*
X007970Y017241D01*
X007746Y017030D02*
X007431Y017030D01*
X007326Y016925D01*
X007970Y016820D02*
X008285Y017030D01*
X008507Y016925D02*
X008612Y017030D01*
X008823Y017030D01*
X008928Y016925D01*
X008928Y016820D01*
X008507Y016820D01*
X008507Y016715D02*
X008507Y016925D01*
X008507Y016715D02*
X008612Y016610D01*
X008823Y016610D01*
X009152Y016610D02*
X009152Y017030D01*
X009152Y016820D02*
X009362Y017030D01*
X009467Y017030D01*
X008285Y016610D02*
X007970Y016820D01*
D11*
X010699Y014625D02*
X010699Y014325D01*
X010774Y014250D01*
X010924Y014250D01*
X010999Y014325D01*
X011159Y014250D02*
X011460Y014550D01*
X011460Y014625D01*
X011385Y014700D01*
X011235Y014700D01*
X011159Y014625D01*
X010999Y014625D02*
X010924Y014700D01*
X010774Y014700D01*
X010699Y014625D01*
X011159Y014250D02*
X011460Y014250D01*
X009460Y013625D02*
X009460Y013550D01*
X009385Y013475D01*
X009460Y013400D01*
X009460Y013325D01*
X009385Y013250D01*
X009235Y013250D01*
X009159Y013325D01*
X008999Y013250D02*
X008849Y013400D01*
X008924Y013400D02*
X008699Y013400D01*
X008699Y013250D02*
X008699Y013700D01*
X008924Y013700D01*
X008999Y013625D01*
X008999Y013475D01*
X008924Y013400D01*
X009159Y013625D02*
X009235Y013700D01*
X009385Y013700D01*
X009460Y013625D01*
X009385Y013475D02*
X009310Y013475D01*
X009385Y012700D02*
X009159Y012475D01*
X009460Y012475D01*
X009385Y012250D02*
X009385Y012700D01*
X008999Y012625D02*
X008999Y012475D01*
X008924Y012400D01*
X008699Y012400D01*
X008699Y012250D02*
X008699Y012700D01*
X008924Y012700D01*
X008999Y012625D01*
X008849Y012400D02*
X008999Y012250D01*
X005654Y013630D02*
X005354Y013405D01*
X005294Y013630D02*
X005594Y013630D01*
X005654Y013630D02*
X005354Y013855D01*
X005437Y013630D02*
X005136Y013630D01*
X004976Y013555D02*
X004976Y013480D01*
X004901Y013405D01*
X004751Y013405D01*
X004676Y013480D01*
X004516Y013480D02*
X004441Y013405D01*
X004291Y013405D01*
X004216Y013480D01*
X004291Y013630D02*
X004216Y013705D01*
X004216Y013780D01*
X004291Y013855D01*
X004441Y013855D01*
X004516Y013780D01*
X004676Y013780D02*
X004676Y013705D01*
X004751Y013630D01*
X004901Y013630D01*
X004976Y013555D01*
X004976Y013780D02*
X004901Y013855D01*
X004751Y013855D01*
X004676Y013780D01*
X004516Y013555D02*
X004516Y013480D01*
X004516Y013555D02*
X004441Y013630D01*
X004291Y013630D01*
X004055Y013630D02*
X003755Y013630D01*
X003755Y013705D02*
X003755Y013405D01*
X003595Y013630D02*
X003520Y013555D01*
X003295Y013555D01*
X003295Y013405D02*
X003295Y013855D01*
X003520Y013855D01*
X003595Y013780D01*
X003595Y013630D01*
X003755Y013705D02*
X003905Y013855D01*
X004055Y013705D01*
X004055Y013405D01*
X003135Y013780D02*
X002985Y013630D01*
X002985Y013405D01*
X002985Y013630D02*
X002834Y013780D01*
X002834Y013855D01*
X002674Y013780D02*
X002674Y013705D01*
X002599Y013630D01*
X002374Y013630D01*
X002374Y013405D02*
X002599Y013405D01*
X002674Y013480D01*
X002674Y013555D01*
X002599Y013630D01*
X002674Y013780D02*
X002599Y013855D01*
X002374Y013855D01*
X002374Y013405D01*
X003135Y013780D02*
X003135Y013855D01*
X005969Y009725D02*
X005894Y009650D01*
X005894Y009500D01*
X005969Y009425D01*
X006269Y009425D01*
X006344Y009500D01*
X006344Y009650D01*
X006269Y009725D01*
X005969Y009725D01*
X005969Y009265D02*
X005894Y009190D01*
X005894Y009039D01*
X005969Y008964D01*
X006344Y008964D01*
X006344Y008804D02*
X006344Y008504D01*
X006344Y008654D02*
X005894Y008654D01*
X005894Y008344D02*
X006344Y008344D01*
X006344Y008119D01*
X006269Y008044D01*
X006119Y008044D01*
X006044Y008119D01*
X006044Y008344D01*
X005969Y007883D02*
X005894Y007808D01*
X005894Y007658D01*
X005969Y007583D01*
X006344Y007583D01*
X006344Y007423D02*
X006344Y007123D01*
X006344Y007273D02*
X005894Y007273D01*
X005969Y007883D02*
X006344Y007883D01*
X006344Y009265D02*
X005969Y009265D01*
X011199Y009325D02*
X011274Y009250D01*
X011424Y009250D01*
X011499Y009325D01*
X011659Y009250D02*
X011960Y009250D01*
X011810Y009250D02*
X011810Y009700D01*
X011659Y009550D01*
X011499Y009625D02*
X011424Y009700D01*
X011274Y009700D01*
X011199Y009625D01*
X011199Y009325D01*
X014199Y009250D02*
X014424Y009250D01*
X014499Y009325D01*
X014499Y009625D01*
X014424Y009700D01*
X014199Y009700D01*
X014199Y009250D01*
X014659Y009250D02*
X014659Y009550D01*
X014810Y009700D01*
X014960Y009550D01*
X014960Y009250D01*
X015120Y009325D02*
X015195Y009250D01*
X015345Y009250D01*
X015420Y009325D01*
X015120Y009325D02*
X015120Y009625D01*
X015195Y009700D01*
X015345Y009700D01*
X015420Y009625D01*
X014960Y009475D02*
X014659Y009475D01*
X011960Y006700D02*
X011810Y006625D01*
X011659Y006475D01*
X011885Y006475D01*
X011960Y006400D01*
X011960Y006325D01*
X011885Y006250D01*
X011735Y006250D01*
X011659Y006325D01*
X011659Y006475D01*
X011499Y006325D02*
X011424Y006250D01*
X011274Y006250D01*
X011199Y006325D01*
X011199Y006625D01*
X011274Y006700D01*
X011424Y006700D01*
X011499Y006625D01*
X007984Y004715D02*
X007984Y004265D01*
X008284Y004265D01*
X008209Y003715D02*
X007984Y003715D01*
X007984Y003265D01*
X007984Y003415D02*
X008209Y003415D01*
X008284Y003490D01*
X008284Y003640D01*
X008209Y003715D01*
X008134Y003415D02*
X008284Y003265D01*
X006344Y003247D02*
X005969Y003247D01*
X005894Y003172D01*
X005894Y003022D01*
X005969Y002947D01*
X006344Y002947D01*
X006344Y002787D02*
X006344Y002487D01*
X006344Y002637D02*
X005894Y002637D01*
X006119Y003407D02*
X006044Y003482D01*
X006044Y003708D01*
X005894Y003708D02*
X006344Y003708D01*
X006344Y003482D01*
X006269Y003407D01*
X006119Y003407D01*
X005894Y003868D02*
X006344Y003868D01*
X006344Y004168D02*
X005894Y004168D01*
X005894Y004325D02*
X005894Y004475D01*
X005894Y004400D02*
X006344Y004400D01*
X006344Y004475D02*
X006344Y004325D01*
X006344Y004168D02*
X005894Y003868D01*
X012074Y003736D02*
X012524Y003736D01*
X012524Y003886D02*
X012524Y003585D01*
X012524Y003425D02*
X012374Y003275D01*
X012374Y003350D02*
X012374Y003125D01*
X012524Y003125D02*
X012074Y003125D01*
X012074Y003350D01*
X012149Y003425D01*
X012299Y003425D01*
X012374Y003350D01*
X012224Y003585D02*
X012074Y003736D01*
X013074Y003811D02*
X013074Y003660D01*
X013149Y003585D01*
X013149Y003425D02*
X013074Y003350D01*
X013074Y003125D01*
X013524Y003125D01*
X013374Y003125D02*
X013374Y003350D01*
X013299Y003425D01*
X013149Y003425D01*
X013374Y003275D02*
X013524Y003425D01*
X013524Y003585D02*
X013224Y003886D01*
X013149Y003886D01*
X013074Y003811D01*
X013524Y003886D02*
X013524Y003585D01*
X016824Y004825D02*
X016899Y004750D01*
X017049Y004750D01*
X017124Y004825D01*
X017124Y005125D01*
X017049Y005200D01*
X016899Y005200D01*
X016824Y005125D01*
X016824Y004825D01*
X017284Y004750D02*
X017284Y005200D01*
X017510Y005200D01*
X017585Y005125D01*
X017585Y004975D01*
X017510Y004900D01*
X017284Y004900D01*
X017745Y004975D02*
X018045Y004975D01*
X018045Y005050D02*
X018045Y004750D01*
X018205Y004750D02*
X018205Y005200D01*
X018355Y005050D01*
X018505Y005200D01*
X018505Y004750D01*
X018666Y004750D02*
X018666Y005200D01*
X018891Y005200D01*
X018966Y005125D01*
X018966Y004975D01*
X018891Y004900D01*
X018666Y004900D01*
X018045Y005050D02*
X017895Y005200D01*
X017745Y005050D01*
X017745Y004750D01*
X020574Y004850D02*
X020574Y004625D01*
X021024Y004625D01*
X020874Y004625D02*
X020874Y004850D01*
X020799Y004925D01*
X020649Y004925D01*
X020574Y004850D01*
X020874Y004775D02*
X021024Y004925D01*
X020949Y005085D02*
X021024Y005160D01*
X021024Y005311D01*
X020949Y005386D01*
X020799Y005386D01*
X020724Y005311D01*
X020724Y005236D01*
X020799Y005085D01*
X020574Y005085D01*
X020574Y005386D01*
X022449Y004500D02*
X022449Y004200D01*
X022524Y004125D01*
X022674Y004125D01*
X022749Y004200D01*
X022909Y004200D02*
X022985Y004125D01*
X023135Y004125D01*
X023210Y004200D01*
X023210Y004275D01*
X023135Y004350D01*
X023060Y004350D01*
X023135Y004350D02*
X023210Y004425D01*
X023210Y004500D01*
X023135Y004575D01*
X022985Y004575D01*
X022909Y004500D01*
X022749Y004500D02*
X022674Y004575D01*
X022524Y004575D01*
X022449Y004500D01*
X021999Y002786D02*
X022074Y002711D01*
X022074Y002560D01*
X021999Y002485D01*
X021699Y002786D01*
X021999Y002786D01*
X021699Y002786D02*
X021624Y002711D01*
X021624Y002560D01*
X021699Y002485D01*
X021999Y002485D01*
X022074Y002325D02*
X021774Y002325D01*
X021624Y002175D01*
X021774Y002025D01*
X022074Y002025D01*
X021849Y002025D02*
X021849Y002325D01*
X022624Y002175D02*
X022774Y002325D01*
X023074Y002325D01*
X023074Y002485D02*
X023074Y002786D01*
X023074Y002636D02*
X022624Y002636D01*
X022774Y002485D01*
X022849Y002325D02*
X022849Y002025D01*
X022774Y002025D02*
X022624Y002175D01*
X022774Y002025D02*
X023074Y002025D01*
X023624Y002175D02*
X023774Y002325D01*
X024074Y002325D01*
X024074Y002485D02*
X023774Y002786D01*
X023699Y002786D01*
X023624Y002711D01*
X023624Y002560D01*
X023699Y002485D01*
X023849Y002325D02*
X023849Y002025D01*
X023774Y002025D02*
X024074Y002025D01*
X023774Y002025D02*
X023624Y002175D01*
X024074Y002485D02*
X024074Y002786D01*
X024624Y002711D02*
X024624Y002560D01*
X024699Y002485D01*
X024774Y002325D02*
X025074Y002325D01*
X024999Y002485D02*
X025074Y002560D01*
X025074Y002711D01*
X024999Y002786D01*
X024924Y002786D01*
X024849Y002711D01*
X024849Y002636D01*
X024849Y002711D02*
X024774Y002786D01*
X024699Y002786D01*
X024624Y002711D01*
X024774Y002325D02*
X024624Y002175D01*
X024774Y002025D01*
X025074Y002025D01*
X024849Y002025D02*
X024849Y002325D01*
X025624Y002175D02*
X025774Y002325D01*
X026074Y002325D01*
X025849Y002325D02*
X025849Y002025D01*
X025774Y002025D02*
X025624Y002175D01*
X025774Y002025D02*
X026074Y002025D01*
X026624Y002175D02*
X026774Y002325D01*
X027074Y002325D01*
X026999Y002485D02*
X027074Y002560D01*
X027074Y002711D01*
X026999Y002786D01*
X026849Y002786D01*
X026774Y002711D01*
X026774Y002636D01*
X026849Y002485D01*
X026624Y002485D01*
X026624Y002786D01*
X026074Y002711D02*
X025624Y002711D01*
X025849Y002485D01*
X025849Y002786D01*
X025397Y003353D02*
X028321Y003353D01*
X028321Y006186D01*
X025397Y006186D01*
X025397Y003353D01*
X026849Y002325D02*
X026849Y002025D01*
X026774Y002025D02*
X026624Y002175D01*
X026774Y002025D02*
X027074Y002025D01*
X027034Y006375D02*
X027034Y006675D01*
X027185Y006825D01*
X027335Y006675D01*
X027335Y006375D01*
X027495Y006375D02*
X027645Y006375D01*
X027570Y006375D02*
X027570Y006825D01*
X027495Y006825D02*
X027645Y006825D01*
X027802Y006825D02*
X028102Y006375D01*
X028102Y006825D01*
X027876Y007000D02*
X027876Y007450D01*
X028101Y007450D01*
X028176Y007375D01*
X028176Y007225D01*
X028101Y007150D01*
X027876Y007150D01*
X027716Y007000D02*
X027716Y007450D01*
X027566Y007300D01*
X027416Y007450D01*
X027416Y007000D01*
X027255Y007000D02*
X027255Y007300D01*
X027105Y007450D01*
X026955Y007300D01*
X026955Y007000D01*
X026795Y007000D02*
X026495Y007000D01*
X026495Y007450D01*
X026795Y007450D01*
X026645Y007225D02*
X026495Y007225D01*
X026335Y007225D02*
X026260Y007150D01*
X026034Y007150D01*
X026034Y007000D02*
X026034Y007450D01*
X026260Y007450D01*
X026335Y007375D01*
X026335Y007225D01*
X026185Y007150D02*
X026335Y007000D01*
X026574Y006750D02*
X026574Y006450D01*
X026649Y006375D01*
X026799Y006375D01*
X026874Y006450D01*
X026874Y006600D01*
X026724Y006600D01*
X026574Y006750D02*
X026649Y006825D01*
X026799Y006825D01*
X026874Y006750D01*
X027034Y006600D02*
X027335Y006600D01*
X027802Y006375D02*
X027802Y006825D01*
X027255Y007225D02*
X026955Y007225D01*
X025874Y007225D02*
X025799Y007150D01*
X025574Y007150D01*
X025574Y007000D02*
X025574Y007450D01*
X025799Y007450D01*
X025874Y007375D01*
X025874Y007225D01*
X023845Y009250D02*
X023695Y009250D01*
X023620Y009325D01*
X023620Y009625D01*
X023695Y009700D01*
X023845Y009700D01*
X023920Y009625D01*
X023920Y009325D02*
X023845Y009250D01*
X023460Y009325D02*
X023460Y009625D01*
X023385Y009700D01*
X023159Y009700D01*
X023159Y009250D01*
X023385Y009250D01*
X023460Y009325D01*
X022999Y009250D02*
X022999Y009550D01*
X022849Y009700D01*
X022699Y009550D01*
X022699Y009250D01*
X022699Y009475D02*
X022999Y009475D01*
X019710Y009350D02*
X019409Y009350D01*
X019635Y009575D01*
X019635Y009125D01*
X019249Y009200D02*
X019174Y009125D01*
X019024Y009125D01*
X018949Y009200D01*
X018949Y009500D01*
X019024Y009575D01*
X019174Y009575D01*
X019249Y009500D01*
X027699Y014950D02*
X027774Y014875D01*
X027924Y014875D01*
X027999Y014950D01*
X027999Y015025D01*
X027924Y015100D01*
X027774Y015100D01*
X027699Y015175D01*
X027699Y015250D01*
X027774Y015325D01*
X027924Y015325D01*
X027999Y015250D01*
X028159Y015250D02*
X028235Y015325D01*
X028385Y015325D01*
X028460Y015250D01*
X028460Y015175D01*
X028159Y014875D01*
X028460Y014875D01*
X023960Y018250D02*
X023659Y018250D01*
X023810Y018250D02*
X023810Y018700D01*
X023659Y018550D01*
X023499Y018625D02*
X023424Y018700D01*
X023274Y018700D01*
X023199Y018625D01*
X023199Y018550D01*
X023274Y018475D01*
X023424Y018475D01*
X023499Y018400D01*
X023499Y018325D01*
X023424Y018250D01*
X023274Y018250D01*
X023199Y018325D01*
X023074Y019225D02*
X022624Y019225D01*
X022624Y019450D01*
X022699Y019525D01*
X022999Y019525D01*
X023074Y019450D01*
X023074Y019225D01*
X022849Y019685D02*
X022849Y019986D01*
X023074Y019911D02*
X022624Y019911D01*
X022849Y019685D01*
X023624Y019760D02*
X023624Y019911D01*
X023699Y019986D01*
X023774Y019986D01*
X023849Y019911D01*
X023924Y019986D01*
X023999Y019986D01*
X024074Y019911D01*
X024074Y019760D01*
X023999Y019685D01*
X023999Y019525D02*
X023699Y019525D01*
X023624Y019450D01*
X023624Y019225D01*
X024074Y019225D01*
X024074Y019450D01*
X023999Y019525D01*
X023699Y019685D02*
X023624Y019760D01*
X023849Y019836D02*
X023849Y019911D01*
X024624Y019911D02*
X024624Y019760D01*
X024699Y019685D01*
X024699Y019525D02*
X024624Y019450D01*
X024624Y019225D01*
X025074Y019225D01*
X025074Y019450D01*
X024999Y019525D01*
X024699Y019525D01*
X025074Y019685D02*
X024774Y019986D01*
X024699Y019986D01*
X024624Y019911D01*
X025074Y019986D02*
X025074Y019685D01*
X025624Y019836D02*
X026074Y019836D01*
X026074Y019986D02*
X026074Y019685D01*
X025999Y019525D02*
X025699Y019525D01*
X025624Y019450D01*
X025624Y019225D01*
X026074Y019225D01*
X026074Y019450D01*
X025999Y019525D01*
X025774Y019685D02*
X025624Y019836D01*
X026624Y019760D02*
X026624Y019911D01*
X026699Y019986D01*
X026999Y019685D01*
X027074Y019760D01*
X027074Y019911D01*
X026999Y019986D01*
X026699Y019986D01*
X026624Y019760D02*
X026699Y019685D01*
X026999Y019685D01*
X026999Y019525D02*
X026699Y019525D01*
X026624Y019450D01*
X026624Y019225D01*
X027074Y019225D01*
X027074Y019450D01*
X026999Y019525D01*
X022074Y019450D02*
X022074Y019225D01*
X021624Y019225D01*
X021624Y019450D01*
X021699Y019525D01*
X021999Y019525D01*
X022074Y019450D01*
X021999Y019685D02*
X022074Y019760D01*
X022074Y019911D01*
X021999Y019986D01*
X021849Y019986D01*
X021774Y019911D01*
X021774Y019836D01*
X021849Y019685D01*
X021624Y019685D01*
X021624Y019986D01*
X021074Y019911D02*
X021074Y019760D01*
X020999Y019685D01*
X020849Y019685D01*
X020849Y019911D01*
X020924Y019986D01*
X020999Y019986D01*
X021074Y019911D01*
X020849Y019685D02*
X020699Y019836D01*
X020624Y019986D01*
X020699Y019525D02*
X020624Y019450D01*
X020624Y019225D01*
X021074Y019225D01*
X021074Y019450D01*
X020999Y019525D01*
X020699Y019525D01*
X020074Y019450D02*
X020074Y019225D01*
X019624Y019225D01*
X019624Y019450D01*
X019699Y019525D01*
X019999Y019525D01*
X020074Y019450D01*
X020074Y019685D02*
X019999Y019685D01*
X019699Y019986D01*
X019624Y019986D01*
X019624Y019685D01*
X018474Y019760D02*
X018399Y019685D01*
X018324Y019685D01*
X018249Y019760D01*
X018249Y019911D01*
X018324Y019986D01*
X018399Y019986D01*
X018474Y019911D01*
X018474Y019760D01*
X018249Y019760D02*
X018174Y019685D01*
X018099Y019685D01*
X018024Y019760D01*
X018024Y019911D01*
X018099Y019986D01*
X018174Y019986D01*
X018249Y019911D01*
X018399Y019525D02*
X018099Y019525D01*
X018024Y019450D01*
X018024Y019225D01*
X018474Y019225D01*
X018474Y019450D01*
X018399Y019525D01*
X017474Y019450D02*
X017474Y019225D01*
X017024Y019225D01*
X017024Y019450D01*
X017099Y019525D01*
X017399Y019525D01*
X017474Y019450D01*
X017399Y019685D02*
X017474Y019760D01*
X017474Y019911D01*
X017399Y019986D01*
X017099Y019986D01*
X017024Y019911D01*
X017024Y019760D01*
X017099Y019685D01*
X017174Y019685D01*
X017249Y019760D01*
X017249Y019986D01*
X017949Y018700D02*
X018174Y018700D01*
X018249Y018625D01*
X018249Y018475D01*
X018174Y018400D01*
X017949Y018400D01*
X017949Y018250D02*
X017949Y018700D01*
X018099Y018400D02*
X018249Y018250D01*
X018409Y018250D02*
X018409Y018325D01*
X018710Y018625D01*
X018710Y018700D01*
X018409Y018700D01*
X020649Y015450D02*
X020574Y015375D01*
X020574Y015300D01*
X020649Y015225D01*
X020799Y015225D01*
X020874Y015150D01*
X020874Y015075D01*
X020799Y015000D01*
X020649Y015000D01*
X020574Y015075D01*
X020874Y015375D02*
X020799Y015450D01*
X020649Y015450D01*
X021034Y015450D02*
X021260Y015450D01*
X021335Y015375D01*
X021335Y015225D01*
X021260Y015150D01*
X021034Y015150D01*
X021034Y015000D02*
X021034Y015450D01*
X021495Y015300D02*
X021645Y015450D01*
X021795Y015300D01*
X021795Y015000D01*
X021955Y015000D02*
X021955Y015450D01*
X022105Y015300D01*
X022255Y015450D01*
X022255Y015000D01*
X021795Y015225D02*
X021495Y015225D01*
X021495Y015300D02*
X021495Y015000D01*
X021335Y015000D02*
X021185Y015150D01*
X015755Y015000D02*
X015755Y015450D01*
X015605Y015300D01*
X015455Y015450D01*
X015455Y015000D01*
X015295Y015000D02*
X015295Y015300D01*
X015145Y015450D01*
X014995Y015300D01*
X014995Y015000D01*
X014835Y015000D02*
X014685Y015150D01*
X014760Y015150D02*
X014534Y015150D01*
X014534Y015000D02*
X014534Y015450D01*
X014760Y015450D01*
X014835Y015375D01*
X014835Y015225D01*
X014760Y015150D01*
X014995Y015225D02*
X015295Y015225D01*
X014374Y015150D02*
X014374Y015075D01*
X014299Y015000D01*
X014149Y015000D01*
X014074Y015075D01*
X014149Y015225D02*
X014299Y015225D01*
X014374Y015150D01*
X014374Y015375D02*
X014299Y015450D01*
X014149Y015450D01*
X014074Y015375D01*
X014074Y015300D01*
X014149Y015225D01*
X013385Y018250D02*
X013460Y018325D01*
X013460Y018400D01*
X013385Y018475D01*
X013159Y018475D01*
X013159Y018325D01*
X013235Y018250D01*
X013385Y018250D01*
X013159Y018475D02*
X013310Y018625D01*
X013460Y018700D01*
X012999Y018625D02*
X012999Y018475D01*
X012924Y018400D01*
X012699Y018400D01*
X012699Y018250D02*
X012699Y018700D01*
X012924Y018700D01*
X012999Y018625D01*
X012849Y018400D02*
X012999Y018250D01*
X010105Y019250D02*
X010105Y019700D01*
X009955Y019700D02*
X010255Y019700D01*
X009795Y019700D02*
X009495Y019700D01*
X009645Y019700D02*
X009645Y019250D01*
X009335Y019250D02*
X009335Y019550D01*
X009185Y019700D01*
X009034Y019550D01*
X009034Y019250D01*
X008874Y019325D02*
X008799Y019250D01*
X008574Y019250D01*
X008574Y019700D01*
X008799Y019700D01*
X008874Y019625D01*
X008874Y019550D01*
X008799Y019475D01*
X008574Y019475D01*
X008799Y019475D02*
X008874Y019400D01*
X008874Y019325D01*
X009034Y019475D02*
X009335Y019475D01*
D12*
X010474Y020490D02*
X010668Y020490D01*
X011094Y019998D02*
X011094Y019804D01*
X011384Y019804D01*
X011384Y019703D02*
X011384Y019510D01*
X011094Y019510D01*
X011094Y019703D01*
X011239Y019606D02*
X011239Y019510D01*
X011239Y019408D02*
X011287Y019360D01*
X011287Y019215D01*
X011287Y019312D02*
X011384Y019408D01*
X011239Y019408D02*
X011142Y019408D01*
X011094Y019360D01*
X011094Y019215D01*
X011384Y019215D01*
X011239Y019804D02*
X011239Y019901D01*
X012094Y019949D02*
X012094Y019804D01*
X012384Y019804D01*
X012384Y019949D01*
X012336Y019998D01*
X012142Y019998D01*
X012094Y019949D01*
X012094Y019703D02*
X012384Y019703D01*
X012094Y019510D01*
X012384Y019510D01*
X012336Y019408D02*
X012239Y019408D01*
X012239Y019312D01*
X012336Y019408D02*
X012384Y019360D01*
X012384Y019263D01*
X012336Y019215D01*
X012142Y019215D01*
X012094Y019263D01*
X012094Y019360D01*
X012142Y019408D01*
X013094Y019360D02*
X013094Y019215D01*
X013384Y019215D01*
X013384Y019360D01*
X013336Y019408D01*
X013142Y019408D01*
X013094Y019360D01*
X013191Y019510D02*
X013094Y019606D01*
X013384Y019606D01*
X013384Y019510D02*
X013384Y019703D01*
X013336Y019804D02*
X013384Y019853D01*
X013384Y019949D01*
X013336Y019998D01*
X013287Y019998D01*
X013239Y019949D01*
X013239Y019901D01*
X013239Y019949D02*
X013191Y019998D01*
X013142Y019998D01*
X013094Y019949D01*
X013094Y019853D01*
X013142Y019804D01*
X014094Y019853D02*
X014142Y019804D01*
X014094Y019853D02*
X014094Y019949D01*
X014142Y019998D01*
X014191Y019998D01*
X014384Y019804D01*
X014384Y019998D01*
X014384Y019703D02*
X014384Y019510D01*
X014384Y019606D02*
X014094Y019606D01*
X014191Y019510D01*
X014142Y019408D02*
X014094Y019360D01*
X014094Y019215D01*
X014384Y019215D01*
X014384Y019360D01*
X014336Y019408D01*
X014142Y019408D01*
X015094Y019360D02*
X015094Y019215D01*
X015384Y019215D01*
X015384Y019360D01*
X015336Y019408D01*
X015142Y019408D01*
X015094Y019360D01*
X015191Y019510D02*
X015094Y019606D01*
X015384Y019606D01*
X015384Y019510D02*
X015384Y019703D01*
X015384Y019804D02*
X015384Y019998D01*
X015384Y019901D02*
X015094Y019901D01*
X015191Y019804D01*
X016094Y019853D02*
X016142Y019804D01*
X016336Y019804D01*
X016142Y019998D01*
X016336Y019998D01*
X016384Y019949D01*
X016384Y019853D01*
X016336Y019804D01*
X016384Y019703D02*
X016384Y019510D01*
X016384Y019606D02*
X016094Y019606D01*
X016191Y019510D01*
X016142Y019408D02*
X016094Y019360D01*
X016094Y019215D01*
X016384Y019215D01*
X016384Y019360D01*
X016336Y019408D01*
X016142Y019408D01*
X016094Y019853D02*
X016094Y019949D01*
X016142Y019998D01*
X008168Y020490D02*
X007974Y020490D01*
X008071Y020587D02*
X008071Y020393D01*
X007597Y010010D02*
X007403Y010010D01*
X007500Y010010D02*
X007500Y009720D01*
X007302Y009768D02*
X007302Y010010D01*
X007109Y010010D02*
X007109Y009768D01*
X007157Y009720D01*
X007254Y009720D01*
X007302Y009768D01*
X007008Y009768D02*
X007008Y009962D01*
X006959Y010010D01*
X006862Y010010D01*
X006814Y009962D01*
X006814Y009768D01*
X006862Y009720D01*
X006959Y009720D01*
X007008Y009768D01*
X007064Y007260D02*
X007257Y006970D01*
X007257Y007260D01*
X007358Y007260D02*
X007503Y007260D01*
X007552Y007212D01*
X007552Y007018D01*
X007503Y006970D01*
X007358Y006970D01*
X007358Y007260D01*
X007064Y007260D02*
X007064Y006970D01*
X006963Y007018D02*
X006963Y007115D01*
X006866Y007115D01*
X006963Y007018D02*
X006914Y006970D01*
X006817Y006970D01*
X006769Y007018D01*
X006769Y007212D01*
X006817Y007260D01*
X006914Y007260D01*
X006963Y007212D01*
X014694Y002798D02*
X014694Y002604D01*
X014694Y002701D02*
X014984Y002701D01*
X014936Y002503D02*
X014887Y002503D01*
X014839Y002455D01*
X014839Y002358D01*
X014791Y002310D01*
X014742Y002310D01*
X014694Y002358D01*
X014694Y002455D01*
X014742Y002503D01*
X014936Y002503D02*
X014984Y002455D01*
X014984Y002358D01*
X014936Y002310D01*
X014984Y002208D02*
X014887Y002112D01*
X014887Y002160D02*
X014887Y002015D01*
X014984Y002015D02*
X014694Y002015D01*
X014694Y002160D01*
X014742Y002208D01*
X014839Y002208D01*
X014887Y002160D01*
X015694Y002160D02*
X015742Y002208D01*
X015791Y002208D01*
X015839Y002160D01*
X015887Y002208D01*
X015936Y002208D01*
X015984Y002160D01*
X015984Y002063D01*
X015936Y002015D01*
X015839Y002112D02*
X015839Y002160D01*
X015694Y002160D02*
X015694Y002063D01*
X015742Y002015D01*
X015694Y002310D02*
X015887Y002310D01*
X015984Y002406D01*
X015887Y002503D01*
X015694Y002503D01*
X015742Y002604D02*
X015694Y002653D01*
X015694Y002749D01*
X015742Y002798D01*
X015791Y002798D01*
X015839Y002749D01*
X015887Y002798D01*
X015936Y002798D01*
X015984Y002749D01*
X015984Y002653D01*
X015936Y002604D01*
X015839Y002701D02*
X015839Y002749D01*
X016694Y002503D02*
X016887Y002503D01*
X016984Y002406D01*
X016887Y002310D01*
X016694Y002310D01*
X016694Y002208D02*
X016694Y002015D01*
X016839Y002015D01*
X016791Y002112D01*
X016791Y002160D01*
X016839Y002208D01*
X016936Y002208D01*
X016984Y002160D01*
X016984Y002063D01*
X016936Y002015D01*
X017694Y002063D02*
X017742Y002015D01*
X017936Y002015D01*
X017984Y002063D01*
X017984Y002160D01*
X017936Y002208D01*
X017839Y002208D01*
X017839Y002112D01*
X017742Y002208D02*
X017694Y002160D01*
X017694Y002063D01*
X017694Y002310D02*
X017984Y002503D01*
X017694Y002503D01*
X017694Y002604D02*
X017694Y002749D01*
X017742Y002798D01*
X017936Y002798D01*
X017984Y002749D01*
X017984Y002604D01*
X017694Y002604D01*
X017694Y002310D02*
X017984Y002310D01*
X018694Y002310D02*
X018984Y002503D01*
X018694Y002503D01*
X018694Y002604D02*
X018694Y002749D01*
X018742Y002798D01*
X018936Y002798D01*
X018984Y002749D01*
X018984Y002604D01*
X018694Y002604D01*
X018694Y002310D02*
X018984Y002310D01*
X018936Y002208D02*
X018839Y002208D01*
X018839Y002112D01*
X018936Y002208D02*
X018984Y002160D01*
X018984Y002063D01*
X018936Y002015D01*
X018742Y002015D01*
X018694Y002063D01*
X018694Y002160D01*
X018742Y002208D01*
X019694Y002208D02*
X019887Y002208D01*
X019984Y002112D01*
X019887Y002015D01*
X019694Y002015D01*
X019694Y002310D02*
X019694Y002406D01*
X019694Y002358D02*
X019984Y002358D01*
X019984Y002310D02*
X019984Y002406D01*
X019984Y002506D02*
X019694Y002506D01*
X019984Y002700D01*
X019694Y002700D01*
X007547Y001712D02*
X007547Y001518D01*
X007498Y001470D01*
X007353Y001470D01*
X007353Y001760D01*
X007498Y001760D01*
X007547Y001712D01*
X007252Y001760D02*
X007252Y001470D01*
X007059Y001760D01*
X007059Y001470D01*
X006958Y001518D02*
X006958Y001615D01*
X006861Y001615D01*
X006958Y001518D02*
X006909Y001470D01*
X006812Y001470D01*
X006764Y001518D01*
X006764Y001712D01*
X006812Y001760D01*
X006909Y001760D01*
X006958Y001712D01*
D13*
X006954Y018725D02*
X007194Y018725D01*
X007314Y018845D01*
X007194Y018965D01*
X006954Y018965D01*
X007014Y019093D02*
X007254Y019093D01*
X007314Y019153D01*
X007314Y019273D01*
X007254Y019334D01*
X007014Y019334D01*
X006954Y019273D01*
X006954Y019153D01*
X007014Y019093D01*
X006954Y019462D02*
X007314Y019462D01*
X007314Y019702D01*
X007254Y019830D02*
X007314Y019890D01*
X007314Y020010D01*
X007254Y020070D01*
X006954Y020070D01*
X006954Y020198D02*
X007074Y020318D01*
X006954Y020438D01*
X007314Y020438D01*
X007314Y020567D02*
X006954Y020567D01*
X006954Y020807D01*
X007134Y020687D02*
X007134Y020567D01*
X007314Y020567D02*
X007314Y020807D01*
X007314Y020198D02*
X006954Y020198D01*
X006954Y019830D02*
X007254Y019830D01*
D14*
X001849Y021000D02*
X001849Y001000D01*
X002349Y000500D01*
X027849Y000500D01*
X027849Y001500D01*
X028849Y002500D01*
X028849Y015500D01*
X027849Y016500D01*
X027849Y021000D01*
X027349Y021500D01*
X002349Y021500D01*
X001849Y021000D01*
X008979Y014750D02*
X008979Y014500D01*
X008979Y014250D01*
X009229Y014250D02*
X009229Y014500D01*
X009229Y014750D01*
D15*
X006780Y016304D03*
X005552Y014964D03*
X004408Y016304D03*
X003600Y016304D03*
D16*
X003602Y015868D03*
X004410Y015868D03*
X005542Y015588D03*
X005550Y014968D03*
X006782Y015868D03*
D17*
X005552Y014972D03*
X003592Y015584D03*
D18*
X003602Y016288D03*
X004410Y016288D03*
X005550Y014976D03*
X006782Y016288D03*
D19*
X005552Y014980D03*
X002712Y015176D03*
D20*
X005552Y014984D03*
D21*
X005554Y014988D03*
X006498Y015556D03*
D22*
X005552Y014992D03*
X007660Y015904D03*
D23*
X005554Y014996D03*
D24*
X005554Y015000D03*
D25*
X005554Y015004D03*
D26*
X005554Y015008D03*
D27*
X005556Y015012D03*
D28*
X005344Y015016D03*
X004184Y015208D03*
X006188Y016248D03*
D29*
X005762Y015016D03*
X008590Y015916D03*
X008782Y015860D03*
D30*
X008568Y015920D03*
X007348Y016220D03*
X005696Y016216D03*
X005324Y015020D03*
D31*
X005782Y015020D03*
X005330Y015540D03*
X004410Y016308D03*
X003602Y016308D03*
X006782Y016308D03*
X007354Y015936D03*
D32*
X007892Y015932D03*
X008556Y015924D03*
X005848Y015244D03*
X005312Y015024D03*
X004660Y015212D03*
X004148Y015412D03*
X002476Y015224D03*
D33*
X005796Y015024D03*
D34*
X005854Y015256D03*
X005854Y015500D03*
X005302Y015028D03*
X004650Y015536D03*
X003822Y015536D03*
X003358Y015220D03*
X003034Y015260D03*
X003034Y015500D03*
X002462Y015520D03*
X005682Y016196D03*
X007334Y016200D03*
X007334Y015960D03*
D35*
X006180Y015508D03*
X005804Y015028D03*
X005688Y016208D03*
X003368Y015216D03*
X002476Y015528D03*
X002440Y016216D03*
D36*
X002428Y016192D03*
X003008Y016224D03*
X005296Y015032D03*
X006168Y015484D03*
X005676Y016184D03*
X007328Y015972D03*
D37*
X007008Y016244D03*
X006552Y015924D03*
X005852Y015504D03*
X005852Y015252D03*
X005812Y015032D03*
X004180Y015924D03*
X004184Y016244D03*
X003828Y016244D03*
X003372Y015924D03*
X003032Y015504D03*
X002468Y015524D03*
X007900Y016232D03*
X009012Y015924D03*
D38*
X007922Y016216D03*
X007918Y016220D03*
X006538Y016236D03*
X005674Y016180D03*
X005674Y016176D03*
X005442Y015936D03*
X005282Y015520D03*
X005270Y015240D03*
X005290Y015036D03*
X005862Y015276D03*
X005862Y015480D03*
X004654Y016236D03*
X003858Y015228D03*
X003342Y015228D03*
X003042Y015276D03*
X003042Y015280D03*
X003042Y015480D03*
X002438Y015500D03*
X003010Y016220D03*
X003358Y016236D03*
D39*
X003000Y016228D03*
X003840Y015928D03*
X004140Y015220D03*
X005820Y015036D03*
X006172Y015496D03*
X006740Y015520D03*
X007020Y015928D03*
X007332Y016196D03*
X008540Y016236D03*
D40*
X008528Y016228D03*
X008528Y015940D03*
X009032Y016236D03*
X007932Y015960D03*
X007324Y016176D03*
X006528Y015936D03*
X006252Y016220D03*
X005672Y016168D03*
X005444Y015940D03*
X005048Y015936D03*
X005044Y015940D03*
X004668Y015528D03*
X004680Y015220D03*
X005284Y015040D03*
X005844Y015056D03*
X005848Y015060D03*
X005864Y015280D03*
X005864Y015476D03*
X006164Y015476D03*
X006764Y015500D03*
X003840Y015528D03*
X003352Y015528D03*
X003044Y015476D03*
X003044Y015288D03*
X002444Y015248D03*
X003348Y015936D03*
X003024Y016208D03*
X002424Y016180D03*
D41*
X002430Y016196D03*
X002430Y016200D03*
X003366Y016240D03*
X003362Y015928D03*
X003838Y016240D03*
X004174Y016240D03*
X004170Y015928D03*
X004134Y015536D03*
X003846Y015220D03*
X003038Y015268D03*
X004670Y015216D03*
X005058Y015928D03*
X005434Y015928D03*
X005678Y016188D03*
X006242Y016228D03*
X006546Y016240D03*
X006542Y015928D03*
X007018Y016240D03*
X007330Y015968D03*
X006170Y015488D03*
X005826Y015040D03*
X004646Y016240D03*
X009022Y015928D03*
D42*
X008522Y015944D03*
X008522Y016224D03*
X007322Y016164D03*
X007322Y015992D03*
X007030Y016232D03*
X006530Y016232D03*
X006770Y015492D03*
X006162Y015464D03*
X005850Y015064D03*
X005282Y015044D03*
X005262Y015504D03*
X005270Y015512D03*
X005042Y015944D03*
X005670Y016164D03*
X004122Y015424D03*
X004122Y015232D03*
X003862Y015232D03*
X003850Y016232D03*
X003350Y016232D03*
X002422Y016172D03*
D43*
X002452Y015512D03*
X003040Y015272D03*
X003852Y015224D03*
X003832Y015532D03*
X004660Y015532D03*
X005052Y015932D03*
X005832Y015044D03*
D44*
X005854Y015068D03*
X005858Y015076D03*
X005866Y015288D03*
X005866Y015468D03*
X005266Y015508D03*
X005278Y015048D03*
X004126Y015228D03*
X003866Y015236D03*
X003334Y015236D03*
X003046Y015296D03*
X003046Y015468D03*
X003854Y015936D03*
X005038Y015948D03*
X006766Y015496D03*
X007034Y015936D03*
X007938Y015968D03*
X008518Y015948D03*
D45*
X009024Y016240D03*
X007328Y016188D03*
X006748Y015516D03*
X005836Y015048D03*
X005276Y015236D03*
X004668Y015340D03*
X004128Y015420D03*
X002456Y015236D03*
D46*
X002432Y015264D03*
X002412Y015452D03*
X002416Y015464D03*
X002420Y015472D03*
X003048Y015304D03*
X003344Y015524D03*
X003872Y015244D03*
X003864Y015944D03*
X003044Y016172D03*
X003040Y016184D03*
X003036Y016192D03*
X002420Y016164D03*
X002420Y016152D03*
X004672Y015944D03*
X005036Y015952D03*
X005452Y015952D03*
X005456Y015964D03*
X005668Y016144D03*
X005668Y016152D03*
X006272Y016192D03*
X006276Y016184D03*
X006280Y016172D03*
X007044Y015944D03*
X007320Y016004D03*
X007320Y016152D03*
X007940Y016192D03*
X007952Y015992D03*
X007948Y015984D03*
X007940Y015972D03*
X009036Y016232D03*
X006784Y015464D03*
X006780Y015472D03*
X006776Y015484D03*
X006160Y015452D03*
X006160Y015444D03*
X005868Y015452D03*
X005868Y015304D03*
X005856Y015072D03*
X005276Y015052D03*
X005260Y015252D03*
X005252Y015264D03*
X005248Y015484D03*
X005252Y015492D03*
X004684Y015332D03*
D47*
X005268Y015244D03*
X005864Y015284D03*
X005864Y015472D03*
X006164Y015472D03*
X005840Y015052D03*
X006760Y015504D03*
X007324Y015984D03*
X007324Y016172D03*
X007924Y016212D03*
X005672Y016172D03*
X003020Y016212D03*
X002424Y016184D03*
X002432Y015492D03*
X002440Y015252D03*
X003044Y015284D03*
D48*
X003338Y015520D03*
X003874Y015248D03*
X004114Y015240D03*
X004118Y015236D03*
X004946Y015236D03*
X004946Y015240D03*
X004946Y015248D03*
X004946Y015256D03*
X004946Y015260D03*
X004946Y015268D03*
X004946Y015276D03*
X004946Y015280D03*
X004946Y015288D03*
X004946Y015296D03*
X004946Y015300D03*
X004946Y015308D03*
X004946Y015316D03*
X004946Y015320D03*
X004946Y015328D03*
X004946Y015336D03*
X004946Y015340D03*
X004946Y015348D03*
X004946Y015356D03*
X004946Y015360D03*
X004946Y015368D03*
X004946Y015376D03*
X004946Y015380D03*
X004946Y015388D03*
X004946Y015396D03*
X004946Y015400D03*
X004946Y015408D03*
X004946Y015416D03*
X004946Y015420D03*
X004946Y015428D03*
X004946Y015436D03*
X004946Y015440D03*
X004946Y015448D03*
X004946Y015456D03*
X004946Y015460D03*
X004946Y015468D03*
X004946Y015476D03*
X004946Y015480D03*
X004946Y015488D03*
X004946Y015496D03*
X004946Y015500D03*
X004946Y015508D03*
X004946Y015516D03*
X004946Y015520D03*
X004946Y015528D03*
X004946Y015536D03*
X004946Y015540D03*
X004946Y015548D03*
X004946Y015556D03*
X004946Y015560D03*
X004946Y015568D03*
X004946Y015576D03*
X004946Y015580D03*
X004946Y015588D03*
X004946Y015596D03*
X004946Y015716D03*
X004946Y015720D03*
X004946Y015728D03*
X004946Y015736D03*
X004946Y015740D03*
X004946Y015748D03*
X004946Y015756D03*
X004946Y015760D03*
X004946Y015768D03*
X004946Y015776D03*
X004946Y015780D03*
X005034Y015956D03*
X005026Y015976D03*
X005026Y015980D03*
X005026Y015988D03*
X005026Y015996D03*
X005026Y016000D03*
X005026Y016008D03*
X005026Y016016D03*
X005026Y016020D03*
X005026Y016028D03*
X005026Y016036D03*
X005026Y016040D03*
X005026Y016048D03*
X005026Y016056D03*
X005026Y016060D03*
X005026Y016068D03*
X005026Y016076D03*
X005026Y016080D03*
X005026Y016088D03*
X005026Y016096D03*
X005026Y016100D03*
X005026Y016108D03*
X005026Y016116D03*
X005026Y016120D03*
X005026Y016128D03*
X005026Y016136D03*
X005026Y016140D03*
X005026Y016148D03*
X005026Y016156D03*
X005026Y016160D03*
X005026Y016168D03*
X005026Y016176D03*
X005026Y016180D03*
X005026Y016188D03*
X005026Y016196D03*
X005026Y016200D03*
X005026Y016208D03*
X005026Y016216D03*
X005026Y016220D03*
X005026Y016228D03*
X005026Y016236D03*
X005026Y016240D03*
X005026Y016308D03*
X005026Y016316D03*
X005026Y016320D03*
X005026Y016328D03*
X005026Y016336D03*
X005026Y016340D03*
X005026Y016348D03*
X005026Y016356D03*
X005026Y016360D03*
X005026Y016368D03*
X005026Y016376D03*
X005026Y016380D03*
X005026Y016388D03*
X005666Y016300D03*
X005666Y016296D03*
X005666Y016288D03*
X005666Y016280D03*
X005666Y016276D03*
X005666Y016268D03*
X005666Y016260D03*
X005666Y016256D03*
X005666Y016140D03*
X005666Y016136D03*
X005666Y016128D03*
X005666Y016120D03*
X005666Y016116D03*
X005666Y016108D03*
X005666Y016100D03*
X005666Y016096D03*
X005666Y016088D03*
X005666Y016080D03*
X005666Y016076D03*
X005666Y016068D03*
X005666Y016060D03*
X005666Y016056D03*
X005666Y016048D03*
X005666Y016040D03*
X005666Y016036D03*
X005666Y016028D03*
X005666Y016020D03*
X005666Y016016D03*
X005666Y016008D03*
X005666Y016000D03*
X005666Y015996D03*
X005666Y015988D03*
X005666Y015980D03*
X005666Y015976D03*
X005666Y015968D03*
X005666Y015960D03*
X005666Y015956D03*
X005666Y015948D03*
X005666Y015940D03*
X005666Y015936D03*
X005666Y015928D03*
X005666Y015920D03*
X005666Y015916D03*
X005666Y015908D03*
X005666Y015900D03*
X005666Y015896D03*
X005666Y015888D03*
X005666Y015880D03*
X005666Y015876D03*
X005666Y015868D03*
X005666Y015860D03*
X005458Y015968D03*
X005458Y015976D03*
X005458Y015980D03*
X005454Y015960D03*
X005246Y015480D03*
X005246Y015476D03*
X005238Y015460D03*
X005238Y015456D03*
X005234Y015448D03*
X005234Y015440D03*
X005234Y015436D03*
X005246Y015276D03*
X005254Y015260D03*
X005274Y015056D03*
X004946Y015156D03*
X004946Y015160D03*
X004946Y015168D03*
X004946Y015176D03*
X004946Y015180D03*
X004946Y015188D03*
X004946Y015196D03*
X004946Y015200D03*
X004946Y015208D03*
X004946Y015216D03*
X004946Y015220D03*
X004946Y015228D03*
X005866Y015100D03*
X005866Y015096D03*
X006158Y015156D03*
X006158Y015160D03*
X006158Y015168D03*
X006158Y015176D03*
X006158Y015180D03*
X006158Y015188D03*
X006158Y015196D03*
X006158Y015200D03*
X006158Y015208D03*
X006158Y015216D03*
X006158Y015220D03*
X006158Y015228D03*
X006158Y015236D03*
X006158Y015240D03*
X006158Y015248D03*
X006158Y015256D03*
X006158Y015260D03*
X006158Y015268D03*
X006158Y015276D03*
X006158Y015280D03*
X006158Y015288D03*
X006158Y015296D03*
X006158Y015300D03*
X006158Y015308D03*
X006158Y015316D03*
X006158Y015320D03*
X006158Y015328D03*
X006158Y015336D03*
X006158Y015340D03*
X006158Y015348D03*
X006158Y015356D03*
X006158Y015360D03*
X006158Y015368D03*
X006158Y015376D03*
X006158Y015380D03*
X006158Y015388D03*
X006158Y015396D03*
X006158Y015400D03*
X006158Y015408D03*
X006158Y015416D03*
X006158Y015420D03*
X006158Y015428D03*
X006158Y015436D03*
X006158Y015440D03*
X006158Y015548D03*
X006158Y015556D03*
X006158Y015560D03*
X006158Y015568D03*
X006158Y015576D03*
X006158Y015580D03*
X006158Y015588D03*
X006158Y015596D03*
X006514Y015948D03*
X006526Y016228D03*
X006286Y016148D03*
X006286Y016140D03*
X006286Y016136D03*
X006286Y016128D03*
X006278Y016176D03*
X006274Y016188D03*
X006786Y015460D03*
X006786Y015456D03*
X006786Y015448D03*
X007318Y015680D03*
X007318Y015688D03*
X007318Y015696D03*
X007318Y015700D03*
X007318Y015708D03*
X007318Y015716D03*
X007318Y015720D03*
X007318Y015728D03*
X007318Y015736D03*
X007318Y015740D03*
X007318Y015748D03*
X007318Y015756D03*
X007318Y015760D03*
X007318Y015768D03*
X007318Y015776D03*
X007318Y015780D03*
X007318Y015788D03*
X007318Y015796D03*
X007318Y015800D03*
X007318Y015808D03*
X007318Y015816D03*
X007318Y015820D03*
X007318Y015828D03*
X007318Y015836D03*
X007318Y015840D03*
X007318Y015848D03*
X007318Y015856D03*
X007318Y015860D03*
X007318Y015868D03*
X007318Y015876D03*
X007318Y015880D03*
X007318Y015888D03*
X007318Y015896D03*
X007318Y015900D03*
X007318Y015908D03*
X007318Y016008D03*
X007318Y016016D03*
X007318Y016020D03*
X007318Y016136D03*
X007318Y016140D03*
X007318Y016148D03*
X007318Y016268D03*
X007318Y016276D03*
X007318Y016280D03*
X007318Y016288D03*
X007318Y016296D03*
X007318Y016300D03*
X007938Y016196D03*
X007946Y016180D03*
X007958Y016020D03*
X007958Y016016D03*
X007954Y016000D03*
X008234Y016000D03*
X008234Y015996D03*
X008234Y015988D03*
X008234Y015980D03*
X008234Y015976D03*
X008234Y015968D03*
X008234Y015960D03*
X008234Y015956D03*
X008234Y015948D03*
X008234Y015940D03*
X008234Y015936D03*
X008234Y015928D03*
X008234Y015920D03*
X008234Y015916D03*
X008234Y015908D03*
X008234Y015900D03*
X008234Y015896D03*
X008234Y015888D03*
X008234Y015880D03*
X008234Y015876D03*
X008234Y015868D03*
X008234Y015860D03*
X008234Y016008D03*
X008234Y016016D03*
X008234Y016020D03*
X008234Y016028D03*
X008234Y016036D03*
X008234Y016040D03*
X008234Y016048D03*
X008234Y016056D03*
X008234Y016060D03*
X008234Y016068D03*
X008234Y016076D03*
X008234Y016080D03*
X008234Y016088D03*
X008234Y016096D03*
X008234Y016100D03*
X008234Y016108D03*
X008234Y016116D03*
X008234Y016120D03*
X008234Y016128D03*
X008234Y016136D03*
X008234Y016140D03*
X008234Y016148D03*
X008234Y016156D03*
X008234Y016160D03*
X008234Y016168D03*
X008234Y016176D03*
X008234Y016180D03*
X008234Y016188D03*
X008234Y016196D03*
X008234Y016200D03*
X008234Y016208D03*
X008234Y016216D03*
X008234Y016220D03*
X008234Y016228D03*
X008234Y016236D03*
X008234Y016240D03*
X008234Y016248D03*
X008234Y016256D03*
X008234Y016260D03*
X008234Y016268D03*
X008234Y016276D03*
X008234Y016280D03*
X008234Y016288D03*
X008234Y016296D03*
X008234Y016300D03*
X008234Y016428D03*
X008234Y016436D03*
X008234Y016440D03*
X008234Y016448D03*
X008234Y016456D03*
X008234Y016460D03*
X008234Y016468D03*
X008234Y016476D03*
X008234Y016480D03*
X008234Y016488D03*
X008514Y016216D03*
X004154Y016228D03*
X003346Y016228D03*
X003334Y015948D03*
X003046Y016156D03*
X003046Y016160D03*
X003046Y016168D03*
X002418Y016148D03*
X002418Y016140D03*
X002418Y016136D03*
X002418Y016128D03*
X002418Y016120D03*
X002418Y016116D03*
X002418Y016108D03*
X002418Y016100D03*
X002418Y016096D03*
X002418Y016088D03*
X002418Y016080D03*
X002418Y016076D03*
X002418Y016068D03*
X002418Y016060D03*
X002418Y016056D03*
X002418Y016048D03*
X002418Y016040D03*
X002418Y016036D03*
X002418Y016028D03*
X002418Y016020D03*
X002418Y016016D03*
X002418Y016008D03*
X002418Y016000D03*
X002418Y015996D03*
X002418Y015988D03*
X002418Y015980D03*
X002418Y015976D03*
X002418Y015968D03*
X002418Y015960D03*
X002418Y015956D03*
X002418Y015948D03*
X002418Y015940D03*
X002418Y015936D03*
X002418Y015928D03*
X002418Y015920D03*
X002418Y015916D03*
X002418Y015908D03*
X002418Y015900D03*
X002418Y015896D03*
X002418Y015888D03*
X002418Y015880D03*
X002418Y015876D03*
X002418Y015868D03*
X002418Y015860D03*
X002414Y015460D03*
X002414Y015456D03*
X002406Y015428D03*
X002406Y015420D03*
X002406Y015416D03*
X002406Y015408D03*
X002406Y015400D03*
X002406Y015396D03*
X002406Y015388D03*
X002406Y015380D03*
X002406Y015376D03*
X002406Y015368D03*
X002406Y015360D03*
X002418Y016256D03*
X002418Y016260D03*
X002418Y016268D03*
X002418Y016276D03*
X002418Y016280D03*
X002418Y016288D03*
X002418Y016296D03*
X002418Y016300D03*
D49*
X003052Y015780D03*
X003328Y015956D03*
X003868Y015948D03*
X003868Y016216D03*
X003864Y016220D03*
X004144Y016220D03*
X004672Y016220D03*
X004684Y015960D03*
X004684Y015516D03*
X004688Y015328D03*
X005232Y015328D03*
X005232Y015320D03*
X005232Y015336D03*
X005232Y015340D03*
X005232Y015348D03*
X005240Y015296D03*
X005240Y015288D03*
X005244Y015280D03*
X005268Y015076D03*
X005268Y015068D03*
X005272Y015060D03*
X005872Y015328D03*
X005872Y015336D03*
X005872Y015340D03*
X005872Y015348D03*
X005872Y015356D03*
X005872Y015360D03*
X005872Y015368D03*
X005872Y015376D03*
X005872Y015380D03*
X005872Y015388D03*
X005872Y015396D03*
X005872Y015400D03*
X005872Y015408D03*
X005872Y015416D03*
X005872Y015420D03*
X005872Y015428D03*
X006508Y015956D03*
X007048Y015948D03*
X007048Y016216D03*
X007044Y016220D03*
X007948Y016176D03*
X007952Y016168D03*
X007952Y016160D03*
X007960Y016136D03*
X007960Y016128D03*
X007960Y016120D03*
X007960Y016116D03*
X007960Y016108D03*
X008508Y016208D03*
X008504Y015968D03*
X008508Y015960D03*
X009048Y015948D03*
X009052Y015956D03*
X009060Y015968D03*
X009064Y015980D03*
X009052Y016216D03*
X009048Y016220D03*
X004108Y015436D03*
X003868Y015500D03*
X003864Y015508D03*
X003880Y015260D03*
X003324Y015248D03*
X003052Y015328D03*
X003052Y015336D03*
X003052Y015340D03*
X003052Y015348D03*
X003052Y015356D03*
X003052Y015360D03*
X003052Y015368D03*
X003052Y015376D03*
X003052Y015380D03*
X003052Y015388D03*
X003052Y015396D03*
X003052Y015400D03*
X003052Y015408D03*
X003052Y015416D03*
X003052Y015420D03*
X003052Y015428D03*
X002420Y015288D03*
X002412Y015308D03*
X002412Y015316D03*
X002412Y015320D03*
X002408Y015328D03*
X002408Y015336D03*
X002408Y015340D03*
X002408Y015348D03*
X002408Y015356D03*
D50*
X002410Y015444D03*
X003050Y015444D03*
X003050Y015452D03*
X003050Y015552D03*
X003050Y015564D03*
X003050Y015572D03*
X003050Y015584D03*
X003050Y015592D03*
X003050Y015604D03*
X003050Y015612D03*
X003050Y015624D03*
X003050Y015632D03*
X003050Y015644D03*
X003050Y015652D03*
X003050Y015664D03*
X003050Y015672D03*
X003050Y015684D03*
X003050Y015692D03*
X003050Y015704D03*
X003050Y015712D03*
X003050Y015724D03*
X003050Y015732D03*
X003050Y015744D03*
X003050Y015752D03*
X003050Y015764D03*
X003050Y015772D03*
X003050Y015864D03*
X003050Y015872D03*
X003050Y015884D03*
X003050Y015892D03*
X003050Y015904D03*
X003050Y015912D03*
X003050Y015924D03*
X003050Y015932D03*
X003050Y015944D03*
X003050Y015952D03*
X003050Y015964D03*
X003050Y015972D03*
X003050Y015984D03*
X003050Y015992D03*
X003050Y016004D03*
X003050Y016012D03*
X003050Y016024D03*
X003050Y016032D03*
X003050Y016044D03*
X003050Y016052D03*
X003050Y016064D03*
X003050Y016072D03*
X003050Y016084D03*
X003050Y016092D03*
X003050Y016104D03*
X003050Y016112D03*
X003050Y016124D03*
X003050Y016132D03*
X003050Y016144D03*
X003050Y016152D03*
X003342Y016224D03*
X003862Y016224D03*
X004150Y016224D03*
X004670Y016224D03*
X005030Y015972D03*
X005030Y015964D03*
X005242Y015472D03*
X005230Y015424D03*
X005230Y015412D03*
X005230Y015404D03*
X005230Y015392D03*
X005230Y015384D03*
X005230Y015372D03*
X005230Y015364D03*
X005230Y015352D03*
X005242Y015284D03*
X005270Y015064D03*
X005862Y015084D03*
X005870Y015112D03*
X005870Y015124D03*
X005870Y015132D03*
X005870Y015144D03*
X005870Y015152D03*
X005870Y015164D03*
X005870Y015172D03*
X005870Y015184D03*
X005870Y015192D03*
X005870Y015312D03*
X005870Y015324D03*
X005870Y015432D03*
X005870Y015444D03*
X005870Y015552D03*
X005870Y015564D03*
X005870Y015572D03*
X005870Y015584D03*
X005870Y015592D03*
X006282Y016152D03*
X006282Y016164D03*
X006522Y016224D03*
X007042Y016224D03*
X006790Y015444D03*
X006790Y015432D03*
X006790Y015424D03*
X006790Y015412D03*
X006790Y015404D03*
X006790Y015392D03*
X006790Y015384D03*
X006790Y015372D03*
X006790Y015364D03*
X006790Y015352D03*
X006790Y015344D03*
X006790Y015332D03*
X006790Y015324D03*
X006790Y015312D03*
X006790Y015304D03*
X006790Y015292D03*
X006790Y015284D03*
X006790Y015272D03*
X006790Y015264D03*
X006790Y015252D03*
X006790Y015244D03*
X006790Y015232D03*
X006790Y015224D03*
X006790Y015212D03*
X006790Y015204D03*
X006790Y015192D03*
X006790Y015184D03*
X006790Y015172D03*
X006790Y015164D03*
X006790Y015152D03*
X007962Y016032D03*
X007962Y016044D03*
X007962Y016052D03*
X007962Y016064D03*
X007962Y016072D03*
X007962Y016084D03*
X007962Y016092D03*
X007950Y016172D03*
X008510Y016212D03*
X003050Y015324D03*
X003050Y015312D03*
X003050Y015192D03*
X003050Y015184D03*
X003050Y015172D03*
X003050Y015164D03*
X003050Y015152D03*
D51*
X003052Y015332D03*
X003052Y015344D03*
X003052Y015352D03*
X003052Y015364D03*
X003052Y015372D03*
X003052Y015384D03*
X003052Y015392D03*
X003052Y015404D03*
X003052Y015412D03*
X003052Y015424D03*
X003052Y015432D03*
X003320Y015252D03*
X003880Y015264D03*
X003872Y015492D03*
X003860Y015512D03*
X004112Y015432D03*
X004688Y015512D03*
X004692Y015324D03*
X005232Y015324D03*
X005232Y015332D03*
X005232Y015344D03*
X005240Y015292D03*
X005268Y015072D03*
X005872Y015332D03*
X005872Y015344D03*
X005872Y015352D03*
X005872Y015364D03*
X005872Y015372D03*
X005872Y015384D03*
X005872Y015392D03*
X005872Y015404D03*
X005872Y015412D03*
X005872Y015424D03*
X006512Y015952D03*
X006504Y015964D03*
X007052Y015952D03*
X007960Y016104D03*
X007960Y016112D03*
X007960Y016124D03*
X007960Y016132D03*
X007952Y016164D03*
X008504Y016204D03*
X008500Y015972D03*
X008504Y015964D03*
X009052Y015952D03*
X004680Y015952D03*
X004140Y015952D03*
X004132Y015964D03*
X003872Y015952D03*
X003332Y015952D03*
X003324Y015964D03*
X002408Y015352D03*
X002408Y015344D03*
X002408Y015332D03*
X002408Y015324D03*
X002412Y015312D03*
X002412Y015304D03*
X002420Y015284D03*
D52*
X002428Y015268D03*
X002432Y015260D03*
X002436Y015256D03*
X002416Y015468D03*
X002424Y015480D03*
X003048Y015460D03*
X003048Y015456D03*
X003048Y015308D03*
X003048Y015300D03*
X003868Y015240D03*
X003852Y015520D03*
X004120Y015528D03*
X004116Y015428D03*
X004680Y015520D03*
X005256Y015496D03*
X005260Y015500D03*
X005256Y015256D03*
X005868Y015296D03*
X005868Y015300D03*
X005868Y015456D03*
X005868Y015460D03*
X006160Y015456D03*
X006160Y015448D03*
X005864Y015088D03*
X005860Y015080D03*
X006772Y015488D03*
X006776Y015480D03*
X006780Y015476D03*
X007040Y015940D03*
X007320Y016000D03*
X007320Y016156D03*
X007320Y016160D03*
X007036Y016228D03*
X006276Y016180D03*
X006268Y016196D03*
X006268Y016200D03*
X005668Y016156D03*
X005668Y016148D03*
X005452Y015956D03*
X005032Y015960D03*
X004668Y015940D03*
X004664Y016228D03*
X003856Y016228D03*
X003860Y015940D03*
X003040Y016180D03*
X003036Y016188D03*
X003032Y016196D03*
X002420Y016160D03*
X002420Y016156D03*
X007936Y016200D03*
X007956Y016008D03*
X007952Y015996D03*
X007948Y015988D03*
X007944Y015980D03*
X008520Y016220D03*
X009036Y015936D03*
X009040Y015940D03*
D53*
X009046Y015944D03*
X009046Y016224D03*
X008514Y015952D03*
X008234Y015952D03*
X008234Y015944D03*
X008234Y015932D03*
X008234Y015924D03*
X008234Y015912D03*
X008234Y015904D03*
X008234Y015892D03*
X008234Y015884D03*
X008234Y015872D03*
X008234Y015864D03*
X008234Y015964D03*
X008234Y015972D03*
X008234Y015984D03*
X008234Y015992D03*
X008234Y016004D03*
X008234Y016012D03*
X008234Y016024D03*
X008234Y016032D03*
X008234Y016044D03*
X008234Y016052D03*
X008234Y016064D03*
X008234Y016072D03*
X008234Y016084D03*
X008234Y016092D03*
X008234Y016104D03*
X008234Y016112D03*
X008234Y016124D03*
X008234Y016132D03*
X008234Y016144D03*
X008234Y016152D03*
X008234Y016164D03*
X008234Y016172D03*
X008234Y016184D03*
X008234Y016192D03*
X008234Y016204D03*
X008234Y016212D03*
X008234Y016224D03*
X008234Y016232D03*
X008234Y016244D03*
X008234Y016252D03*
X008234Y016264D03*
X008234Y016272D03*
X008234Y016284D03*
X008234Y016292D03*
X008234Y016304D03*
X008234Y016424D03*
X008234Y016432D03*
X008234Y016444D03*
X008234Y016452D03*
X008234Y016464D03*
X008234Y016472D03*
X008234Y016484D03*
X007946Y016184D03*
X007958Y016024D03*
X007958Y016012D03*
X007954Y016004D03*
X007318Y016012D03*
X007318Y016024D03*
X007318Y015904D03*
X007318Y015892D03*
X007318Y015884D03*
X007318Y015872D03*
X007318Y015864D03*
X007318Y015852D03*
X007318Y015844D03*
X007318Y015832D03*
X007318Y015824D03*
X007318Y015812D03*
X007318Y015804D03*
X007318Y015792D03*
X007318Y015784D03*
X007318Y015772D03*
X007318Y015764D03*
X007318Y015752D03*
X007318Y015744D03*
X007318Y015732D03*
X007318Y015724D03*
X007318Y015712D03*
X007318Y015704D03*
X007318Y015692D03*
X007318Y015684D03*
X006786Y015452D03*
X006518Y015944D03*
X006286Y016132D03*
X006286Y016144D03*
X005666Y016132D03*
X005666Y016124D03*
X005666Y016112D03*
X005666Y016104D03*
X005666Y016092D03*
X005666Y016084D03*
X005666Y016072D03*
X005666Y016064D03*
X005666Y016052D03*
X005666Y016044D03*
X005666Y016032D03*
X005666Y016024D03*
X005666Y016012D03*
X005666Y016004D03*
X005666Y015992D03*
X005666Y015984D03*
X005666Y015972D03*
X005666Y015964D03*
X005666Y015952D03*
X005666Y015944D03*
X005666Y015932D03*
X005666Y015924D03*
X005666Y015912D03*
X005666Y015904D03*
X005666Y015892D03*
X005666Y015884D03*
X005666Y015872D03*
X005666Y015864D03*
X005458Y015972D03*
X005666Y016264D03*
X005666Y016272D03*
X005666Y016284D03*
X005666Y016292D03*
X005666Y016304D03*
X005026Y016312D03*
X005026Y016324D03*
X005026Y016332D03*
X005026Y016344D03*
X005026Y016352D03*
X005026Y016364D03*
X005026Y016372D03*
X005026Y016384D03*
X005026Y016392D03*
X005026Y016244D03*
X005026Y016232D03*
X005026Y016224D03*
X005026Y016212D03*
X005026Y016204D03*
X005026Y016192D03*
X005026Y016184D03*
X005026Y016172D03*
X005026Y016164D03*
X005026Y016152D03*
X005026Y016144D03*
X005026Y016132D03*
X005026Y016124D03*
X005026Y016112D03*
X005026Y016104D03*
X005026Y016092D03*
X005026Y016084D03*
X005026Y016072D03*
X005026Y016064D03*
X005026Y016052D03*
X005026Y016044D03*
X005026Y016032D03*
X005026Y016024D03*
X005026Y016012D03*
X005026Y016004D03*
X005026Y015992D03*
X005026Y015984D03*
X004946Y015772D03*
X004946Y015764D03*
X004946Y015752D03*
X004946Y015744D03*
X004946Y015732D03*
X004946Y015724D03*
X004946Y015592D03*
X004946Y015584D03*
X004946Y015572D03*
X004946Y015564D03*
X004946Y015552D03*
X004946Y015544D03*
X004946Y015532D03*
X004946Y015524D03*
X004946Y015512D03*
X004946Y015504D03*
X004946Y015492D03*
X004946Y015484D03*
X004946Y015472D03*
X004946Y015464D03*
X004946Y015452D03*
X004946Y015444D03*
X004946Y015432D03*
X004946Y015424D03*
X004946Y015412D03*
X004946Y015404D03*
X004946Y015392D03*
X004946Y015384D03*
X004946Y015372D03*
X004946Y015364D03*
X004946Y015352D03*
X004946Y015344D03*
X004946Y015332D03*
X004946Y015324D03*
X004946Y015312D03*
X004946Y015304D03*
X004946Y015292D03*
X004946Y015284D03*
X004946Y015272D03*
X004946Y015264D03*
X004946Y015252D03*
X004946Y015244D03*
X004946Y015232D03*
X004946Y015224D03*
X004946Y015212D03*
X004946Y015204D03*
X004946Y015192D03*
X004946Y015184D03*
X004946Y015172D03*
X004946Y015164D03*
X004946Y015152D03*
X004694Y015232D03*
X005246Y015272D03*
X005234Y015432D03*
X005234Y015444D03*
X005238Y015464D03*
X005866Y015104D03*
X005866Y015092D03*
X006158Y015152D03*
X006158Y015164D03*
X006158Y015172D03*
X006158Y015184D03*
X006158Y015192D03*
X006158Y015204D03*
X006158Y015212D03*
X006158Y015224D03*
X006158Y015232D03*
X006158Y015244D03*
X006158Y015252D03*
X006158Y015264D03*
X006158Y015272D03*
X006158Y015284D03*
X006158Y015292D03*
X006158Y015304D03*
X006158Y015312D03*
X006158Y015324D03*
X006158Y015332D03*
X006158Y015344D03*
X006158Y015352D03*
X006158Y015364D03*
X006158Y015372D03*
X006158Y015384D03*
X006158Y015392D03*
X006158Y015404D03*
X006158Y015412D03*
X006158Y015424D03*
X006158Y015432D03*
X006158Y015544D03*
X006158Y015552D03*
X006158Y015564D03*
X006158Y015572D03*
X006158Y015584D03*
X006158Y015592D03*
X007318Y016144D03*
X007318Y016264D03*
X007318Y016272D03*
X007318Y016284D03*
X007318Y016292D03*
X007318Y016304D03*
X004146Y015944D03*
X004114Y015524D03*
X003326Y015244D03*
X003338Y015944D03*
X003046Y016164D03*
X002418Y016144D03*
X002418Y016132D03*
X002418Y016124D03*
X002418Y016112D03*
X002418Y016104D03*
X002418Y016092D03*
X002418Y016084D03*
X002418Y016072D03*
X002418Y016064D03*
X002418Y016052D03*
X002418Y016044D03*
X002418Y016032D03*
X002418Y016024D03*
X002418Y016012D03*
X002418Y016004D03*
X002418Y015992D03*
X002418Y015984D03*
X002418Y015972D03*
X002418Y015964D03*
X002418Y015952D03*
X002418Y015944D03*
X002418Y015932D03*
X002418Y015924D03*
X002418Y015912D03*
X002418Y015904D03*
X002418Y015892D03*
X002418Y015884D03*
X002418Y015872D03*
X002418Y015864D03*
X002418Y016252D03*
X002418Y016264D03*
X002418Y016272D03*
X002418Y016284D03*
X002418Y016292D03*
X002418Y016304D03*
X002406Y015432D03*
X002406Y015424D03*
X002406Y015412D03*
X002406Y015404D03*
X002406Y015392D03*
X002406Y015384D03*
X002406Y015372D03*
X002406Y015364D03*
X002426Y015272D03*
D54*
X002422Y015276D03*
X002422Y015280D03*
X002410Y015436D03*
X002410Y015440D03*
X002410Y015448D03*
X003050Y015448D03*
X003050Y015440D03*
X003050Y015436D03*
X003050Y015320D03*
X003050Y015316D03*
X003050Y015196D03*
X003050Y015188D03*
X003050Y015180D03*
X003050Y015176D03*
X003050Y015168D03*
X003050Y015160D03*
X003050Y015156D03*
X003330Y015240D03*
X003050Y015556D03*
X003050Y015560D03*
X003050Y015568D03*
X003050Y015576D03*
X003050Y015580D03*
X003050Y015588D03*
X003050Y015596D03*
X003050Y015600D03*
X003050Y015608D03*
X003050Y015616D03*
X003050Y015620D03*
X003050Y015628D03*
X003050Y015636D03*
X003050Y015640D03*
X003050Y015648D03*
X003050Y015656D03*
X003050Y015660D03*
X003050Y015668D03*
X003050Y015676D03*
X003050Y015680D03*
X003050Y015688D03*
X003050Y015696D03*
X003050Y015700D03*
X003050Y015708D03*
X003050Y015716D03*
X003050Y015720D03*
X003050Y015728D03*
X003050Y015736D03*
X003050Y015740D03*
X003050Y015748D03*
X003050Y015756D03*
X003050Y015760D03*
X003050Y015768D03*
X003050Y015776D03*
X003050Y015860D03*
X003050Y015868D03*
X003050Y015876D03*
X003050Y015880D03*
X003050Y015888D03*
X003050Y015896D03*
X003050Y015900D03*
X003050Y015908D03*
X003050Y015916D03*
X003050Y015920D03*
X003050Y015928D03*
X003050Y015936D03*
X003050Y015940D03*
X003050Y015948D03*
X003050Y015956D03*
X003050Y015960D03*
X003050Y015968D03*
X003050Y015976D03*
X003050Y015980D03*
X003050Y015988D03*
X003050Y015996D03*
X003050Y016000D03*
X003050Y016008D03*
X003050Y016016D03*
X003050Y016020D03*
X003050Y016028D03*
X003050Y016036D03*
X003050Y016040D03*
X003050Y016048D03*
X003050Y016056D03*
X003050Y016060D03*
X003050Y016068D03*
X003050Y016076D03*
X003050Y016080D03*
X003050Y016088D03*
X003050Y016096D03*
X003050Y016100D03*
X003050Y016108D03*
X003050Y016116D03*
X003050Y016120D03*
X003050Y016128D03*
X003050Y016136D03*
X003050Y016140D03*
X003050Y016148D03*
X003042Y016176D03*
X004142Y015948D03*
X004110Y015520D03*
X004690Y015228D03*
X005230Y015356D03*
X005230Y015360D03*
X005230Y015368D03*
X005230Y015376D03*
X005230Y015380D03*
X005230Y015388D03*
X005230Y015396D03*
X005230Y015400D03*
X005230Y015408D03*
X005230Y015416D03*
X005230Y015420D03*
X005230Y015428D03*
X005242Y015468D03*
X005250Y015488D03*
X005250Y015268D03*
X005870Y015308D03*
X005870Y015316D03*
X005870Y015320D03*
X005870Y015436D03*
X005870Y015440D03*
X005870Y015448D03*
X005870Y015548D03*
X005870Y015556D03*
X005870Y015560D03*
X005870Y015568D03*
X005870Y015576D03*
X005870Y015580D03*
X005870Y015588D03*
X005870Y015596D03*
X005870Y015200D03*
X005870Y015196D03*
X005870Y015188D03*
X005870Y015180D03*
X005870Y015176D03*
X005870Y015168D03*
X005870Y015160D03*
X005870Y015156D03*
X005870Y015148D03*
X005870Y015140D03*
X005870Y015136D03*
X005870Y015128D03*
X005870Y015120D03*
X005870Y015116D03*
X005870Y015108D03*
X006790Y015156D03*
X006790Y015160D03*
X006790Y015168D03*
X006790Y015176D03*
X006790Y015180D03*
X006790Y015188D03*
X006790Y015196D03*
X006790Y015200D03*
X006790Y015208D03*
X006790Y015216D03*
X006790Y015220D03*
X006790Y015228D03*
X006790Y015236D03*
X006790Y015240D03*
X006790Y015248D03*
X006790Y015256D03*
X006790Y015260D03*
X006790Y015268D03*
X006790Y015276D03*
X006790Y015280D03*
X006790Y015288D03*
X006790Y015296D03*
X006790Y015300D03*
X006790Y015308D03*
X006790Y015316D03*
X006790Y015320D03*
X006790Y015328D03*
X006790Y015336D03*
X006790Y015340D03*
X006790Y015348D03*
X006790Y015356D03*
X006790Y015360D03*
X006790Y015368D03*
X006790Y015376D03*
X006790Y015380D03*
X006790Y015388D03*
X006790Y015396D03*
X006790Y015400D03*
X006790Y015408D03*
X006790Y015416D03*
X006790Y015420D03*
X006790Y015428D03*
X006790Y015436D03*
X006790Y015440D03*
X006782Y015468D03*
X006282Y016156D03*
X006282Y016160D03*
X006282Y016168D03*
X005030Y015968D03*
X007942Y016188D03*
X007962Y016100D03*
X007962Y016096D03*
X007962Y016088D03*
X007962Y016080D03*
X007962Y016076D03*
X007962Y016068D03*
X007962Y016060D03*
X007962Y016056D03*
X007962Y016048D03*
X007962Y016040D03*
X007962Y016036D03*
X007962Y016028D03*
X008510Y015956D03*
X009042Y016228D03*
D55*
X006002Y016304D03*
X003590Y015152D03*
X002722Y015152D03*
D56*
X004406Y015152D03*
D57*
X005328Y015212D03*
X005548Y015152D03*
X007360Y015932D03*
X007360Y016232D03*
D58*
X002722Y015156D03*
D59*
X003594Y015156D03*
X005774Y015208D03*
D60*
X004408Y015156D03*
D61*
X005542Y015156D03*
D62*
X002720Y015160D03*
D63*
X003596Y015160D03*
D64*
X004408Y015160D03*
X002716Y015168D03*
D65*
X005538Y015160D03*
X007650Y016300D03*
D66*
X002716Y015164D03*
D67*
X002716Y015584D03*
X003596Y015164D03*
D68*
X004408Y015164D03*
X007656Y016284D03*
D69*
X005538Y015164D03*
D70*
X003598Y015168D03*
X007654Y016288D03*
D71*
X008784Y016280D03*
X004408Y015168D03*
D72*
X005536Y015168D03*
D73*
X002714Y015172D03*
D74*
X003598Y015172D03*
X003602Y016284D03*
X004410Y016284D03*
X006782Y016284D03*
D75*
X006782Y016272D03*
X004410Y016272D03*
X003602Y016272D03*
X004410Y015172D03*
D76*
X005534Y015172D03*
X005246Y015892D03*
D77*
X005534Y015568D03*
X004410Y016280D03*
X003602Y016280D03*
X003598Y015176D03*
X006782Y016280D03*
D78*
X004408Y015176D03*
X003596Y015556D03*
X002708Y015556D03*
D79*
X005534Y015176D03*
D80*
X005532Y015180D03*
X002712Y015180D03*
D81*
X003598Y015180D03*
X004338Y015400D03*
X007658Y015896D03*
D82*
X006782Y016260D03*
X004410Y016260D03*
X003602Y016260D03*
X004410Y015180D03*
D83*
X005530Y015184D03*
X005534Y015564D03*
X002710Y015184D03*
D84*
X003600Y015184D03*
X006500Y015552D03*
D85*
X004410Y015184D03*
D86*
X005530Y015188D03*
X005530Y015560D03*
X002710Y015188D03*
D87*
X002708Y015196D03*
X003600Y015188D03*
X005528Y015196D03*
X006004Y016256D03*
X008780Y015900D03*
D88*
X004410Y015188D03*
D89*
X002710Y015192D03*
D90*
X003602Y015192D03*
X003602Y015904D03*
X004410Y015904D03*
X006782Y015904D03*
X008782Y015904D03*
D91*
X004410Y015192D03*
D92*
X005528Y015192D03*
X008784Y016272D03*
D93*
X008780Y015908D03*
X006780Y015908D03*
X003600Y015908D03*
X003600Y015196D03*
D94*
X004408Y015196D03*
D95*
X002768Y015200D03*
X007600Y016260D03*
D96*
X005168Y016260D03*
X005168Y016256D03*
X005168Y016248D03*
X005168Y016268D03*
X005168Y016276D03*
X005168Y016280D03*
X005168Y016288D03*
X005168Y016296D03*
X005168Y016300D03*
X003600Y015200D03*
D97*
X004408Y015200D03*
D98*
X004424Y015368D03*
X004376Y015388D03*
X005528Y015548D03*
X005528Y015200D03*
D99*
X005584Y015204D03*
X003592Y015364D03*
X003592Y015372D03*
X003592Y015384D03*
X003592Y015392D03*
X003592Y015404D03*
X003592Y015412D03*
X002764Y015204D03*
D100*
X003600Y015204D03*
D101*
X004410Y015204D03*
D102*
X005546Y015596D03*
X005726Y016240D03*
X002534Y015208D03*
D103*
X002952Y015208D03*
D104*
X003404Y015208D03*
X002468Y016240D03*
D105*
X003792Y015208D03*
X006480Y015596D03*
D106*
X005828Y015528D03*
X005248Y015860D03*
X005708Y016228D03*
X004636Y015208D03*
X003008Y015228D03*
X003008Y015528D03*
X007856Y015920D03*
D107*
X005358Y015208D03*
D108*
X004170Y015544D03*
X002510Y015212D03*
D109*
X002976Y015212D03*
D110*
X003380Y015212D03*
X003820Y015212D03*
X002572Y016252D03*
X006312Y015544D03*
D111*
X004162Y015212D03*
D112*
X002546Y015544D03*
X005798Y015212D03*
D113*
X005314Y015216D03*
X006190Y015520D03*
X005698Y016220D03*
X007350Y015940D03*
X003586Y015600D03*
X003018Y015520D03*
X002722Y015600D03*
X002498Y015536D03*
X002494Y015216D03*
X002450Y016228D03*
D114*
X002988Y015216D03*
D115*
X003836Y015216D03*
X002436Y016208D03*
X006176Y015500D03*
X007336Y015956D03*
D116*
X007900Y015936D03*
X008548Y016240D03*
X006228Y016236D03*
X005684Y016200D03*
X004148Y015216D03*
X003032Y015256D03*
X002468Y015228D03*
D117*
X005810Y015216D03*
D118*
X005844Y015240D03*
X005844Y015516D03*
X004644Y015348D03*
X003808Y015540D03*
X002484Y015220D03*
X002444Y016220D03*
X007344Y016216D03*
X007884Y016240D03*
X007884Y015928D03*
X008780Y016308D03*
D119*
X008968Y015916D03*
X002996Y015220D03*
D120*
X003382Y015540D03*
X005302Y015220D03*
X007342Y015948D03*
D121*
X006970Y015916D03*
X005718Y016236D03*
X005818Y015220D03*
X004598Y015916D03*
X003790Y015916D03*
D122*
X003002Y015224D03*
X005822Y015532D03*
D123*
X005858Y015492D03*
X005858Y015264D03*
X006170Y015492D03*
X005286Y015524D03*
X005282Y015232D03*
X003350Y015224D03*
X003038Y015492D03*
X002462Y015232D03*
X007330Y016192D03*
X007914Y016224D03*
X007914Y015944D03*
X008538Y015932D03*
D124*
X008534Y016232D03*
X009030Y015932D03*
X007922Y015952D03*
X007030Y015932D03*
X006534Y015932D03*
X006750Y015512D03*
X005862Y015484D03*
X005862Y015272D03*
X005438Y015932D03*
X004658Y015932D03*
X004162Y015932D03*
X003850Y015932D03*
X003354Y015932D03*
X003358Y015532D03*
X003042Y015484D03*
X002442Y015504D03*
X004134Y015224D03*
D125*
X003846Y015524D03*
X003338Y015232D03*
X003046Y015292D03*
X003046Y015464D03*
X003046Y015472D03*
X002426Y015484D03*
X003026Y016204D03*
X004158Y016232D03*
X004658Y016232D03*
X005446Y015944D03*
X005866Y015464D03*
X005866Y015292D03*
X004686Y015224D03*
X004674Y015524D03*
X006258Y016212D03*
X006266Y016204D03*
X007934Y016204D03*
X007934Y015964D03*
D126*
X007338Y015952D03*
X006178Y015504D03*
X005686Y016204D03*
X005306Y015532D03*
X005294Y015224D03*
X004638Y015924D03*
X002438Y016212D03*
D127*
X005826Y015224D03*
D128*
X005286Y015228D03*
X008546Y015928D03*
D129*
X006692Y015540D03*
X005832Y015228D03*
X005400Y015916D03*
X005092Y015916D03*
X002952Y016248D03*
D130*
X003012Y015232D03*
D131*
X005836Y015232D03*
D132*
X003016Y015236D03*
D133*
X003310Y015268D03*
X003314Y015260D03*
X003318Y015256D03*
X003302Y015436D03*
X003302Y015440D03*
X003318Y015496D03*
X003322Y015500D03*
X003870Y015496D03*
X003874Y015488D03*
X003878Y015480D03*
X003878Y015476D03*
X003878Y015468D03*
X003882Y015460D03*
X003882Y015456D03*
X003882Y015448D03*
X003882Y015440D03*
X003882Y015436D03*
X003882Y015288D03*
X003882Y015280D03*
X003882Y015276D03*
X003882Y015268D03*
X004102Y015508D03*
X004134Y015960D03*
X004130Y015968D03*
X004122Y015988D03*
X004118Y016008D03*
X004118Y016016D03*
X004118Y016020D03*
X004118Y016140D03*
X004118Y016148D03*
X004130Y016196D03*
X004134Y016208D03*
X004142Y016216D03*
X003890Y016160D03*
X003890Y016156D03*
X003878Y016200D03*
X003874Y016208D03*
X003890Y016000D03*
X003890Y015996D03*
X003882Y015976D03*
X003882Y015968D03*
X003874Y015956D03*
X003322Y015968D03*
X003318Y015976D03*
X003318Y015980D03*
X003314Y015988D03*
X003310Y016008D03*
X003310Y016016D03*
X003310Y016020D03*
X003310Y016140D03*
X003310Y016148D03*
X003318Y016188D03*
X003322Y016196D03*
X003334Y016216D03*
X004682Y016208D03*
X004694Y016180D03*
X004698Y016160D03*
X004698Y016156D03*
X004698Y016000D03*
X004698Y015996D03*
X004694Y015980D03*
X004690Y015976D03*
X004690Y015968D03*
X004682Y015956D03*
X004690Y015508D03*
X004694Y015320D03*
X004698Y015316D03*
X004702Y015240D03*
X004698Y015236D03*
X006498Y015976D03*
X006498Y015980D03*
X006494Y015988D03*
X006490Y016008D03*
X006490Y016016D03*
X006490Y016020D03*
X006502Y015968D03*
X006490Y016140D03*
X006490Y016148D03*
X006498Y016188D03*
X006502Y016196D03*
X006514Y016216D03*
X007054Y016208D03*
X007058Y016200D03*
X007070Y016160D03*
X007070Y016156D03*
X007070Y016000D03*
X007070Y015996D03*
X007062Y015976D03*
X007062Y015968D03*
X007054Y015956D03*
X008490Y016000D03*
X008490Y016008D03*
X008494Y015988D03*
X008498Y015980D03*
X008498Y015976D03*
X008490Y016156D03*
X008490Y016160D03*
X008490Y016168D03*
X008494Y016176D03*
X008494Y016180D03*
X008502Y016196D03*
X008502Y016200D03*
X009058Y016208D03*
X009062Y016196D03*
X009062Y015976D03*
D134*
X005840Y015520D03*
X005840Y015236D03*
X003020Y015240D03*
D135*
X003040Y015488D03*
X002452Y015240D03*
X005860Y015268D03*
X005860Y015488D03*
X007920Y015948D03*
X008532Y015936D03*
D136*
X007326Y016184D03*
X006246Y016224D03*
X004126Y015532D03*
X002446Y015244D03*
D137*
X003024Y015244D03*
X005692Y016212D03*
X006184Y015512D03*
D138*
X006498Y015972D03*
X006494Y015992D03*
X006490Y016012D03*
X006490Y016144D03*
X006490Y016152D03*
X006494Y016172D03*
X006510Y016212D03*
X007050Y016212D03*
X007058Y016204D03*
X007062Y016192D03*
X007070Y016164D03*
X007070Y016004D03*
X007062Y015972D03*
X007058Y015964D03*
X008490Y016004D03*
X008494Y015992D03*
X008490Y016164D03*
X008494Y016184D03*
X008498Y016192D03*
X009054Y016212D03*
X009058Y016204D03*
X009062Y016192D03*
X009062Y015972D03*
X009058Y015964D03*
X004698Y016004D03*
X004694Y015984D03*
X004690Y015972D03*
X004698Y016164D03*
X004690Y016192D03*
X004678Y016212D03*
X004138Y016212D03*
X004134Y016204D03*
X004122Y016172D03*
X004118Y016152D03*
X004118Y016144D03*
X004118Y016012D03*
X004122Y015992D03*
X003890Y016004D03*
X003882Y015972D03*
X003878Y015964D03*
X003890Y016164D03*
X003882Y016192D03*
X003878Y016204D03*
X003870Y016212D03*
X003330Y016212D03*
X003314Y016172D03*
X003310Y016152D03*
X003310Y016144D03*
X003310Y016012D03*
X003314Y015992D03*
X003318Y015972D03*
X003330Y015512D03*
X003878Y015472D03*
X003882Y015464D03*
X003882Y015452D03*
X003882Y015444D03*
X003882Y015432D03*
X003882Y015284D03*
X003882Y015272D03*
X004110Y015244D03*
X004102Y015444D03*
X004102Y015512D03*
X004694Y015504D03*
X004702Y015244D03*
D139*
X005074Y015920D03*
X006218Y016240D03*
X002978Y016240D03*
X003026Y015248D03*
D140*
X003326Y015508D03*
X003326Y015960D03*
X003326Y016208D03*
X003886Y016180D03*
X003886Y015980D03*
X004126Y015980D03*
X004126Y015976D03*
X004126Y016188D03*
X004686Y016200D03*
X004106Y015516D03*
X004106Y015440D03*
X004106Y015248D03*
X006506Y015960D03*
X006506Y016208D03*
X007066Y016180D03*
X007066Y015980D03*
X008486Y016028D03*
X008486Y016036D03*
X008486Y016040D03*
X008486Y016096D03*
X008486Y016100D03*
X008486Y016108D03*
X008486Y016116D03*
X008486Y016120D03*
X008486Y016128D03*
X008486Y016136D03*
X008486Y016140D03*
X009066Y016176D03*
X009066Y016180D03*
X009066Y016000D03*
X009066Y015996D03*
X009066Y015988D03*
D141*
X009068Y016008D03*
X009068Y016016D03*
X009068Y016020D03*
X009068Y016028D03*
X009068Y016156D03*
X009068Y016160D03*
X009068Y016168D03*
X009064Y016188D03*
X008496Y016188D03*
X008488Y016148D03*
X008484Y016088D03*
X008484Y016080D03*
X008484Y016076D03*
X008484Y016068D03*
X008484Y016060D03*
X008484Y016056D03*
X008484Y016048D03*
X008488Y016020D03*
X008488Y016016D03*
X007068Y015988D03*
X007068Y016168D03*
X007068Y016176D03*
X007064Y016188D03*
X006504Y016200D03*
X006496Y016180D03*
X006496Y016176D03*
X006488Y016136D03*
X006488Y016128D03*
X006488Y016120D03*
X006488Y016116D03*
X006488Y016108D03*
X006488Y016100D03*
X006488Y016096D03*
X006488Y016088D03*
X006488Y016080D03*
X006488Y016076D03*
X006488Y016068D03*
X006488Y016060D03*
X006488Y016056D03*
X006488Y016048D03*
X006488Y016040D03*
X006488Y016036D03*
X006488Y016028D03*
X004696Y015988D03*
X004696Y016168D03*
X004696Y016176D03*
X004688Y016196D03*
X004124Y016180D03*
X004124Y016176D03*
X004116Y016136D03*
X004116Y016128D03*
X004116Y016120D03*
X004116Y016116D03*
X004116Y016108D03*
X004116Y016100D03*
X004116Y016096D03*
X004116Y016088D03*
X004116Y016080D03*
X004116Y016076D03*
X004116Y016068D03*
X004116Y016060D03*
X004116Y016056D03*
X004116Y016048D03*
X004116Y016040D03*
X004116Y016036D03*
X004116Y016028D03*
X003888Y015988D03*
X003888Y016168D03*
X003888Y016176D03*
X003884Y016188D03*
X003324Y016200D03*
X003316Y016180D03*
X003316Y016176D03*
X003308Y016136D03*
X003308Y016128D03*
X003308Y016120D03*
X003308Y016116D03*
X003308Y016108D03*
X003308Y016100D03*
X003308Y016096D03*
X003308Y016088D03*
X003308Y016080D03*
X003308Y016076D03*
X003308Y016068D03*
X003308Y016060D03*
X003308Y016056D03*
X003308Y016048D03*
X003308Y016040D03*
X003308Y016036D03*
X003308Y016028D03*
X003316Y015488D03*
X003308Y015476D03*
X003308Y015468D03*
X003304Y015460D03*
X003304Y015456D03*
X003304Y015448D03*
X003304Y015300D03*
X003304Y015296D03*
X003304Y015288D03*
X003308Y015280D03*
X003308Y015276D03*
X003884Y015420D03*
X003884Y015428D03*
X004096Y015460D03*
X004096Y015496D03*
X004096Y015276D03*
X004104Y015256D03*
X004704Y015248D03*
X004708Y015256D03*
X004708Y015260D03*
X004704Y015308D03*
X004704Y015476D03*
X004696Y015500D03*
D142*
X005262Y015248D03*
X005450Y015948D03*
X005670Y016160D03*
X006262Y016208D03*
X006522Y015940D03*
X006162Y015468D03*
X006162Y015460D03*
X007322Y015988D03*
X007322Y015996D03*
X007322Y016168D03*
X007930Y016208D03*
X007942Y015976D03*
X004662Y015936D03*
X004150Y015940D03*
X003342Y015940D03*
X003030Y016200D03*
X002422Y016176D03*
X002422Y016168D03*
X002430Y015488D03*
X002422Y015476D03*
D143*
X003030Y015508D03*
X005850Y015508D03*
X005850Y015248D03*
D144*
X007010Y015924D03*
X003830Y015924D03*
X003030Y015252D03*
D145*
X002416Y015292D03*
X003876Y015252D03*
X003876Y015484D03*
X005236Y015452D03*
X005236Y015312D03*
X005236Y015304D03*
X007316Y016032D03*
X007316Y016044D03*
X007316Y016052D03*
X007316Y016064D03*
X007316Y016072D03*
X007316Y016084D03*
X007316Y016092D03*
X007316Y016104D03*
X007316Y016112D03*
X007316Y016124D03*
X007316Y016132D03*
X007956Y016144D03*
X007956Y016152D03*
X008496Y015984D03*
D146*
X008486Y016024D03*
X008486Y016032D03*
X008486Y016044D03*
X008486Y016104D03*
X008486Y016112D03*
X008486Y016124D03*
X008486Y016132D03*
X008486Y016144D03*
X009066Y016184D03*
X009066Y015992D03*
X009066Y015984D03*
X007066Y015984D03*
X006506Y016204D03*
X006286Y016124D03*
X004686Y016204D03*
X004686Y015964D03*
X004126Y015972D03*
X003886Y015984D03*
X003326Y016204D03*
X003866Y015504D03*
X004106Y015252D03*
D147*
X003884Y015292D03*
X003884Y015424D03*
X004096Y015492D03*
X004124Y015984D03*
X004116Y016024D03*
X004116Y016032D03*
X004116Y016044D03*
X004116Y016052D03*
X004116Y016064D03*
X004116Y016072D03*
X004116Y016084D03*
X004116Y016092D03*
X004116Y016104D03*
X004116Y016112D03*
X004116Y016124D03*
X004116Y016132D03*
X004124Y016184D03*
X004128Y016192D03*
X003888Y016172D03*
X003884Y016184D03*
X003888Y015992D03*
X003316Y015984D03*
X003308Y016024D03*
X003308Y016032D03*
X003308Y016044D03*
X003308Y016052D03*
X003308Y016064D03*
X003308Y016072D03*
X003308Y016084D03*
X003308Y016092D03*
X003308Y016104D03*
X003308Y016112D03*
X003308Y016124D03*
X003308Y016132D03*
X003316Y016184D03*
X003324Y015504D03*
X003316Y015492D03*
X003308Y015472D03*
X003308Y015464D03*
X003304Y015452D03*
X003304Y015444D03*
X003304Y015292D03*
X003304Y015284D03*
X003308Y015272D03*
X004704Y015304D03*
X004708Y015252D03*
X004696Y015992D03*
X004696Y016172D03*
X006488Y016132D03*
X006488Y016124D03*
X006488Y016112D03*
X006488Y016104D03*
X006488Y016092D03*
X006488Y016084D03*
X006488Y016072D03*
X006488Y016064D03*
X006488Y016052D03*
X006488Y016044D03*
X006488Y016032D03*
X006488Y016024D03*
X006496Y015984D03*
X006496Y016184D03*
X007064Y016184D03*
X007068Y016172D03*
X007068Y015992D03*
X008484Y016052D03*
X008484Y016064D03*
X008484Y016072D03*
X008484Y016084D03*
X008484Y016092D03*
X008488Y016152D03*
X008488Y016012D03*
X009068Y016012D03*
X009068Y016004D03*
X009068Y016024D03*
X009068Y016032D03*
X009068Y016152D03*
X009068Y016164D03*
X009068Y016172D03*
D148*
X009056Y015960D03*
X007956Y016140D03*
X007956Y016148D03*
X007956Y016156D03*
X007316Y016128D03*
X007316Y016120D03*
X007316Y016116D03*
X007316Y016108D03*
X007316Y016100D03*
X007316Y016096D03*
X007316Y016088D03*
X007316Y016080D03*
X007316Y016076D03*
X007316Y016068D03*
X007316Y016060D03*
X007316Y016056D03*
X007316Y016048D03*
X007316Y016040D03*
X007316Y016036D03*
X007316Y016028D03*
X007056Y015960D03*
X006516Y016220D03*
X005236Y015316D03*
X005236Y015308D03*
X005236Y015300D03*
X004676Y015948D03*
X004676Y016216D03*
X004136Y015956D03*
X003876Y015960D03*
X003336Y016220D03*
X003336Y015516D03*
X003856Y015516D03*
X003876Y015256D03*
X002416Y015296D03*
X002416Y015300D03*
D149*
X003300Y015308D03*
X003300Y015316D03*
X003300Y015320D03*
X003300Y015328D03*
X003300Y015336D03*
X003300Y015340D03*
X003300Y015348D03*
X003300Y015356D03*
X003300Y015360D03*
X003300Y015420D03*
X003300Y015428D03*
X003312Y015480D03*
X003312Y015996D03*
X003312Y016000D03*
X003312Y016156D03*
X003312Y016160D03*
X003312Y016168D03*
X003880Y016196D03*
X003892Y016148D03*
X003892Y016140D03*
X003892Y016136D03*
X003892Y016128D03*
X003892Y016120D03*
X003892Y016116D03*
X003892Y016108D03*
X003892Y016100D03*
X003892Y016096D03*
X003892Y016088D03*
X003892Y016080D03*
X003892Y016076D03*
X003892Y016068D03*
X003892Y016060D03*
X003892Y016056D03*
X003892Y016048D03*
X003892Y016040D03*
X003892Y016036D03*
X003892Y016028D03*
X003892Y016020D03*
X003892Y016016D03*
X003892Y016008D03*
X004120Y016000D03*
X004120Y015996D03*
X004120Y016156D03*
X004120Y016160D03*
X004120Y016168D03*
X004132Y016200D03*
X004692Y016188D03*
X004700Y016148D03*
X004700Y016140D03*
X004700Y016136D03*
X004700Y016128D03*
X004700Y016120D03*
X004700Y016116D03*
X004700Y016108D03*
X004700Y016100D03*
X004700Y016096D03*
X004700Y016088D03*
X004700Y016080D03*
X004700Y016076D03*
X004700Y016068D03*
X004700Y016060D03*
X004700Y016056D03*
X004700Y016048D03*
X004700Y016040D03*
X004700Y016036D03*
X004700Y016028D03*
X004700Y016020D03*
X004700Y016016D03*
X004700Y016008D03*
X004100Y015448D03*
X004100Y015260D03*
X006492Y015996D03*
X006492Y016000D03*
X006492Y016156D03*
X006492Y016160D03*
X006492Y016168D03*
X007060Y016196D03*
X007072Y016148D03*
X007072Y016140D03*
X007072Y016136D03*
X007072Y016128D03*
X007072Y016120D03*
X007072Y016116D03*
X007072Y016108D03*
X007072Y016100D03*
X007072Y016096D03*
X007072Y016088D03*
X007072Y016080D03*
X007072Y016076D03*
X007072Y016068D03*
X007072Y016060D03*
X007072Y016056D03*
X007072Y016048D03*
X007072Y016040D03*
X007072Y016036D03*
X007072Y016028D03*
X007072Y016020D03*
X007072Y016016D03*
X007072Y016008D03*
X008492Y015996D03*
X009060Y016200D03*
D150*
X007908Y016228D03*
X007908Y015940D03*
X005856Y015496D03*
X005856Y015260D03*
X005296Y015528D03*
X004648Y015928D03*
X004136Y015416D03*
X003368Y015536D03*
X003036Y015496D03*
X002456Y015516D03*
D151*
X003036Y015264D03*
X006236Y016232D03*
D152*
X006492Y016164D03*
X006500Y016192D03*
X006492Y016004D03*
X007072Y016012D03*
X007072Y016024D03*
X007072Y016032D03*
X007072Y016044D03*
X007072Y016052D03*
X007072Y016064D03*
X007072Y016072D03*
X007072Y016084D03*
X007072Y016092D03*
X007072Y016104D03*
X007072Y016112D03*
X007072Y016124D03*
X007072Y016132D03*
X007072Y016144D03*
X007072Y016152D03*
X008492Y016172D03*
X004700Y016152D03*
X004700Y016144D03*
X004700Y016132D03*
X004700Y016124D03*
X004700Y016112D03*
X004700Y016104D03*
X004700Y016092D03*
X004700Y016084D03*
X004700Y016072D03*
X004700Y016064D03*
X004700Y016052D03*
X004700Y016044D03*
X004700Y016032D03*
X004700Y016024D03*
X004700Y016012D03*
X004692Y016184D03*
X004120Y016164D03*
X004120Y016004D03*
X003892Y016012D03*
X003892Y016024D03*
X003892Y016032D03*
X003892Y016044D03*
X003892Y016052D03*
X003892Y016064D03*
X003892Y016072D03*
X003892Y016084D03*
X003892Y016092D03*
X003892Y016104D03*
X003892Y016112D03*
X003892Y016124D03*
X003892Y016132D03*
X003892Y016144D03*
X003892Y016152D03*
X003320Y016192D03*
X003312Y016164D03*
X003312Y016004D03*
X003312Y015484D03*
X003300Y015432D03*
X003300Y015424D03*
X003300Y015352D03*
X003300Y015344D03*
X003300Y015332D03*
X003300Y015324D03*
X003300Y015312D03*
X003312Y015264D03*
X004100Y015264D03*
X004100Y015452D03*
X004100Y015504D03*
X004700Y015492D03*
X004700Y015312D03*
D153*
X004710Y015284D03*
X004710Y015272D03*
X004710Y015264D03*
X004706Y015464D03*
X004706Y015472D03*
X004702Y015484D03*
X004094Y015484D03*
X004094Y015472D03*
X004094Y015464D03*
X004094Y015292D03*
X004094Y015284D03*
X004098Y015272D03*
X003302Y015304D03*
D154*
X004094Y015288D03*
X004094Y015280D03*
X004098Y015268D03*
X004098Y015456D03*
X004094Y015468D03*
X004094Y015476D03*
X004094Y015480D03*
X004094Y015488D03*
X004098Y015500D03*
X004698Y015496D03*
X004702Y015488D03*
X004702Y015480D03*
X004706Y015468D03*
X004706Y015460D03*
X004706Y015300D03*
X004706Y015296D03*
X004710Y015288D03*
X004710Y015280D03*
X004710Y015276D03*
X004710Y015268D03*
D155*
X004708Y015292D03*
D156*
X004676Y015336D03*
X005276Y015516D03*
X004156Y015936D03*
X003016Y016216D03*
X002436Y015496D03*
X006256Y016216D03*
X006756Y015508D03*
D157*
X006734Y015524D03*
X004658Y015344D03*
X002994Y016232D03*
X009014Y016244D03*
D158*
X005358Y015544D03*
X004602Y015544D03*
X004614Y015352D03*
D159*
X004468Y015356D03*
D160*
X004450Y015360D03*
X004390Y015576D03*
X003594Y015560D03*
X002710Y015560D03*
X007658Y015900D03*
D161*
X004436Y015364D03*
D162*
X003592Y015368D03*
X003592Y015376D03*
X003592Y015380D03*
X003592Y015388D03*
X003592Y015396D03*
X003592Y015400D03*
X003592Y015408D03*
X003592Y015416D03*
X007604Y016256D03*
D163*
X004414Y015372D03*
X004386Y015384D03*
D164*
X004404Y015376D03*
X004392Y015568D03*
D165*
X004396Y015380D03*
X003596Y015548D03*
D166*
X004364Y015392D03*
X004392Y015572D03*
X004408Y016264D03*
X003600Y016264D03*
X006780Y016264D03*
X007660Y016264D03*
D167*
X007660Y016268D03*
X006780Y015896D03*
X008780Y015896D03*
X004352Y015396D03*
X003600Y015896D03*
X002760Y016260D03*
D168*
X004312Y015404D03*
D169*
X004170Y015408D03*
D170*
X004166Y016236D03*
X003846Y016236D03*
X002426Y016188D03*
X002446Y015508D03*
X006166Y015480D03*
X007026Y016236D03*
X007326Y016180D03*
X007326Y015980D03*
X007326Y015976D03*
X007926Y015956D03*
D171*
X008558Y016244D03*
X006718Y015532D03*
X005846Y015512D03*
X003026Y015512D03*
D172*
X003022Y015516D03*
X003818Y015920D03*
X003814Y016248D03*
X004198Y016248D03*
X004194Y015920D03*
X004622Y016248D03*
X003390Y016248D03*
X006570Y016248D03*
X006994Y016248D03*
X006998Y015920D03*
X008998Y015920D03*
X008998Y016248D03*
D173*
X006706Y015536D03*
X006186Y015516D03*
X006566Y015920D03*
X004626Y015920D03*
X003386Y015920D03*
D174*
X003014Y015524D03*
X005702Y016224D03*
X005834Y015524D03*
D175*
X006196Y015524D03*
X002456Y016232D03*
D176*
X002462Y016236D03*
X003602Y015860D03*
X004410Y015860D03*
X006202Y015528D03*
X006782Y015860D03*
D177*
X006726Y015528D03*
X007338Y016208D03*
X007894Y016236D03*
X005418Y015920D03*
X004146Y015540D03*
X002986Y016236D03*
D178*
X002966Y016244D03*
X002446Y016224D03*
X002486Y015532D03*
X007346Y015944D03*
D179*
X003412Y015544D03*
X003000Y015532D03*
D180*
X006208Y015532D03*
D181*
X002992Y015536D03*
D182*
X004636Y015540D03*
X005316Y015536D03*
D183*
X005814Y015536D03*
X007374Y016240D03*
D184*
X006216Y015536D03*
D185*
X007858Y016248D03*
X002514Y015540D03*
D186*
X002980Y015540D03*
X004380Y015600D03*
D187*
X005802Y015540D03*
D188*
X006228Y015540D03*
X007388Y015920D03*
X002488Y016248D03*
D189*
X002948Y015544D03*
X005768Y016252D03*
D190*
X006600Y016252D03*
X006960Y016252D03*
X003780Y016252D03*
X003420Y016252D03*
X002740Y016304D03*
X003772Y015544D03*
D191*
X003602Y015864D03*
X004410Y015864D03*
X005778Y015544D03*
X006782Y015864D03*
D192*
X006666Y015544D03*
X008606Y016252D03*
X002926Y016252D03*
D193*
X002766Y015548D03*
D194*
X004394Y015548D03*
D195*
X004410Y015900D03*
X003602Y015900D03*
X002762Y016256D03*
X006502Y015548D03*
X006782Y015900D03*
X008782Y016268D03*
D196*
X002706Y015552D03*
D197*
X003596Y015552D03*
X008784Y016264D03*
D198*
X004392Y015552D03*
D199*
X005530Y015552D03*
D200*
X004394Y015556D03*
D201*
X004410Y016268D03*
X003602Y016268D03*
X005530Y015556D03*
X006782Y016268D03*
D202*
X004392Y015560D03*
D203*
X004390Y015580D03*
X004410Y016276D03*
X003602Y016276D03*
X002758Y016268D03*
X006498Y015560D03*
X006782Y016276D03*
X007658Y016276D03*
D204*
X002710Y015564D03*
D205*
X003594Y015564D03*
D206*
X004392Y015564D03*
D207*
X006004Y016272D03*
X006496Y015564D03*
X002756Y016272D03*
D208*
X002710Y015568D03*
X003594Y015568D03*
X003602Y015888D03*
X004410Y015888D03*
X006782Y015888D03*
D209*
X006494Y015568D03*
X002754Y016276D03*
D210*
X002712Y015572D03*
X003592Y015572D03*
X008780Y015884D03*
D211*
X005536Y015572D03*
D212*
X006494Y015572D03*
X007654Y015884D03*
D213*
X006782Y015880D03*
X006002Y016280D03*
X004410Y015880D03*
X003602Y015880D03*
X003594Y015576D03*
X002714Y015576D03*
X002754Y016280D03*
X008782Y015880D03*
D214*
X005538Y015576D03*
D215*
X006492Y015576D03*
X006780Y015876D03*
X008780Y015876D03*
X004408Y015876D03*
X003600Y015876D03*
D216*
X003594Y015580D03*
X002714Y015580D03*
D217*
X005538Y015580D03*
D218*
X006000Y016288D03*
X006492Y015580D03*
X002752Y016288D03*
D219*
X003602Y015884D03*
X004410Y015884D03*
X004390Y015584D03*
X006782Y015884D03*
D220*
X006782Y015872D03*
X005542Y015584D03*
X004410Y015872D03*
X003602Y015872D03*
D221*
X002748Y016292D03*
X006488Y015584D03*
D222*
X002716Y015588D03*
D223*
X003592Y015588D03*
D224*
X004388Y015588D03*
X008784Y016288D03*
D225*
X007650Y015868D03*
X006486Y015588D03*
X002746Y016296D03*
D226*
X002718Y015592D03*
X003590Y015592D03*
D227*
X004386Y015592D03*
X005246Y015884D03*
D228*
X005544Y015592D03*
D229*
X006484Y015592D03*
X007648Y016304D03*
D230*
X003592Y015596D03*
X002720Y015596D03*
D231*
X004386Y015596D03*
D232*
X007646Y015860D03*
X007646Y016308D03*
D233*
X005248Y015864D03*
D234*
X007650Y015864D03*
D235*
X008782Y015864D03*
D236*
X005246Y015868D03*
D237*
X008780Y015868D03*
D238*
X005246Y015872D03*
D239*
X007650Y015872D03*
D240*
X008780Y015872D03*
D241*
X005246Y015876D03*
D242*
X007654Y015876D03*
D243*
X005246Y015880D03*
D244*
X007652Y015880D03*
D245*
X005246Y015888D03*
D246*
X005246Y015908D03*
X007654Y015888D03*
D247*
X008780Y015888D03*
D248*
X008780Y015892D03*
X006780Y015892D03*
X004408Y015892D03*
X003600Y015892D03*
D249*
X007656Y015892D03*
D250*
X006004Y016260D03*
X004408Y015896D03*
D251*
X005246Y015896D03*
D252*
X005248Y015900D03*
D253*
X005246Y015904D03*
D254*
X004408Y015908D03*
D255*
X007662Y015908D03*
D256*
X006782Y015912D03*
X008782Y015912D03*
X004410Y015912D03*
X003602Y015912D03*
D257*
X005246Y015912D03*
D258*
X007602Y015912D03*
D259*
X006592Y015916D03*
X004220Y015916D03*
X003412Y015916D03*
D260*
X007412Y015916D03*
D261*
X007828Y015916D03*
D262*
X005426Y015924D03*
X005066Y015924D03*
D263*
X007376Y015924D03*
X002476Y016244D03*
D264*
X006206Y016244D03*
X007874Y016244D03*
X007870Y015924D03*
D265*
X007366Y015928D03*
X007366Y016236D03*
D266*
X007332Y015964D03*
X005680Y016192D03*
X002432Y016204D03*
D267*
X003376Y016244D03*
X004636Y016244D03*
X006556Y016244D03*
X007336Y016204D03*
D268*
X007342Y016212D03*
D269*
X007352Y016224D03*
D270*
X007356Y016228D03*
D271*
X005712Y016232D03*
D272*
X005734Y016244D03*
D273*
X007382Y016244D03*
D274*
X005746Y016248D03*
D275*
X007394Y016248D03*
D276*
X008572Y016248D03*
D277*
X004588Y016252D03*
X004228Y016252D03*
D278*
X005168Y016252D03*
X005168Y016264D03*
X005168Y016272D03*
X005168Y016284D03*
X005168Y016292D03*
X005168Y016304D03*
D279*
X006152Y016252D03*
D280*
X007422Y016252D03*
D281*
X007826Y016252D03*
D282*
X008966Y016252D03*
D283*
X008782Y016260D03*
X006782Y016256D03*
X004410Y016256D03*
X003602Y016256D03*
D284*
X008784Y016256D03*
D285*
X007658Y016272D03*
X002758Y016264D03*
D286*
X006004Y016264D03*
D287*
X006004Y016268D03*
D288*
X006002Y016276D03*
D289*
X008782Y016276D03*
D290*
X007656Y016280D03*
D291*
X002752Y016284D03*
D292*
X006002Y016284D03*
D293*
X008782Y016284D03*
D294*
X006780Y016292D03*
X003600Y016292D03*
D295*
X004408Y016292D03*
D296*
X006000Y016292D03*
D297*
X007654Y016292D03*
D298*
X008784Y016292D03*
D299*
X006780Y016296D03*
X003600Y016296D03*
D300*
X004408Y016296D03*
D301*
X006000Y016296D03*
D302*
X007650Y016296D03*
X008782Y016296D03*
D303*
X002744Y016300D03*
D304*
X003600Y016300D03*
X006780Y016300D03*
D305*
X008784Y016300D03*
X004408Y016300D03*
D306*
X005996Y016300D03*
D307*
X008784Y016304D03*
D308*
X007749Y015000D02*
X010449Y015000D01*
X010466Y014998D01*
X010483Y014994D01*
X010499Y014987D01*
X010513Y014977D01*
X010526Y014964D01*
X010536Y014950D01*
X010543Y014934D01*
X010547Y014917D01*
X010549Y014900D01*
X010549Y014100D01*
X010547Y014083D01*
X010543Y014066D01*
X010536Y014050D01*
X010526Y014036D01*
X010513Y014023D01*
X010499Y014013D01*
X010483Y014006D01*
X010466Y014002D01*
X010449Y014000D01*
X007749Y014000D01*
X007732Y014002D01*
X007715Y014006D01*
X007699Y014013D01*
X007685Y014023D01*
X007672Y014036D01*
X007662Y014050D01*
X007655Y014066D01*
X007651Y014083D01*
X007649Y014100D01*
X007649Y014900D01*
X007651Y014917D01*
X007655Y014934D01*
X007662Y014950D01*
X007672Y014964D01*
X007685Y014977D01*
X007699Y014987D01*
X007715Y014994D01*
X007732Y014998D01*
X007749Y015000D01*
X008499Y014500D02*
X008979Y014500D01*
X009229Y014500D02*
X009699Y014500D01*
X010099Y013950D02*
X010249Y013950D01*
X010266Y013948D01*
X010283Y013944D01*
X010299Y013937D01*
X010313Y013927D01*
X010326Y013914D01*
X010336Y013900D01*
X010343Y013884D01*
X010347Y013867D01*
X010349Y013850D01*
X010349Y013150D01*
X010347Y013133D01*
X010343Y013116D01*
X010336Y013100D01*
X010326Y013086D01*
X010313Y013073D01*
X010299Y013063D01*
X010283Y013056D01*
X010266Y013052D01*
X010249Y013050D01*
X010099Y013050D01*
X010049Y013100D01*
X008149Y013100D01*
X008099Y013050D01*
X007949Y013050D01*
X007932Y013052D01*
X007915Y013056D01*
X007899Y013063D01*
X007885Y013073D01*
X007872Y013086D01*
X007862Y013100D01*
X007855Y013116D01*
X007851Y013133D01*
X007849Y013150D01*
X007849Y013850D01*
X007851Y013867D01*
X007855Y013884D01*
X007862Y013900D01*
X007872Y013914D01*
X007885Y013927D01*
X007899Y013937D01*
X007915Y013944D01*
X007932Y013948D01*
X007949Y013950D01*
X008099Y013950D01*
X008149Y013900D01*
X010049Y013900D01*
X010099Y013950D01*
X010099Y012950D02*
X010049Y012900D01*
X008149Y012900D01*
X008099Y012950D01*
X007949Y012950D01*
X007932Y012948D01*
X007915Y012944D01*
X007899Y012937D01*
X007885Y012927D01*
X007872Y012914D01*
X007862Y012900D01*
X007855Y012884D01*
X007851Y012867D01*
X007849Y012850D01*
X007849Y012150D01*
X007851Y012133D01*
X007855Y012116D01*
X007862Y012100D01*
X007872Y012086D01*
X007885Y012073D01*
X007899Y012063D01*
X007915Y012056D01*
X007932Y012052D01*
X007949Y012050D01*
X008099Y012050D01*
X008149Y012100D01*
X010049Y012100D01*
X010099Y012050D01*
X010249Y012050D01*
X010266Y012052D01*
X010283Y012056D01*
X010299Y012063D01*
X010313Y012073D01*
X010326Y012086D01*
X010336Y012100D01*
X010343Y012116D01*
X010347Y012133D01*
X010349Y012150D01*
X010349Y012850D01*
X010347Y012867D01*
X010343Y012884D01*
X010336Y012900D01*
X010326Y012914D01*
X010313Y012927D01*
X010299Y012937D01*
X010283Y012944D01*
X010266Y012948D01*
X010249Y012950D01*
X010099Y012950D01*
X012849Y014100D02*
X012849Y014850D01*
X012888Y014852D01*
X012927Y014858D01*
X012965Y014867D01*
X013002Y014880D01*
X013038Y014897D01*
X013071Y014917D01*
X013103Y014941D01*
X013132Y014967D01*
X013158Y014996D01*
X013182Y015028D01*
X013202Y015061D01*
X013219Y015097D01*
X013232Y015134D01*
X013241Y015172D01*
X013247Y015211D01*
X013249Y015250D01*
X013247Y015289D01*
X013241Y015328D01*
X013232Y015366D01*
X013219Y015403D01*
X013202Y015439D01*
X013182Y015472D01*
X013158Y015504D01*
X013132Y015533D01*
X013103Y015559D01*
X013071Y015583D01*
X013038Y015603D01*
X013002Y015620D01*
X012965Y015633D01*
X012927Y015642D01*
X012888Y015648D01*
X012849Y015650D01*
X012849Y016400D01*
X016849Y016400D01*
X016849Y014100D01*
X012849Y014100D01*
X012499Y015300D02*
X011699Y015300D01*
X011682Y015302D01*
X011665Y015306D01*
X011649Y015313D01*
X011635Y015323D01*
X011622Y015336D01*
X011612Y015350D01*
X011605Y015366D01*
X011601Y015383D01*
X011599Y015400D01*
X011599Y017100D01*
X011601Y017117D01*
X011605Y017134D01*
X011612Y017150D01*
X011622Y017164D01*
X011635Y017177D01*
X011649Y017187D01*
X011665Y017194D01*
X011682Y017198D01*
X011699Y017200D01*
X012499Y017200D01*
X012516Y017198D01*
X012533Y017194D01*
X012549Y017187D01*
X012563Y017177D01*
X012576Y017164D01*
X012586Y017150D01*
X012593Y017134D01*
X012597Y017117D01*
X012599Y017100D01*
X012599Y015400D01*
X012597Y015383D01*
X012593Y015366D01*
X012586Y015350D01*
X012576Y015336D01*
X012563Y015323D01*
X012549Y015313D01*
X012533Y015306D01*
X012516Y015302D01*
X012499Y015300D01*
X012099Y018050D02*
X011949Y018050D01*
X011932Y018052D01*
X011915Y018056D01*
X011899Y018063D01*
X011885Y018073D01*
X011872Y018086D01*
X011862Y018100D01*
X011855Y018116D01*
X011851Y018133D01*
X011849Y018150D01*
X011849Y018850D01*
X011851Y018867D01*
X011855Y018884D01*
X011862Y018900D01*
X011872Y018914D01*
X011885Y018927D01*
X011899Y018937D01*
X011915Y018944D01*
X011932Y018948D01*
X011949Y018950D01*
X012099Y018950D01*
X012149Y018900D01*
X014049Y018900D01*
X014099Y018950D01*
X014249Y018950D01*
X014266Y018948D01*
X014283Y018944D01*
X014299Y018937D01*
X014313Y018927D01*
X014326Y018914D01*
X014336Y018900D01*
X014343Y018884D01*
X014347Y018867D01*
X014349Y018850D01*
X014349Y018150D01*
X014347Y018133D01*
X014343Y018116D01*
X014336Y018100D01*
X014326Y018086D01*
X014313Y018073D01*
X014299Y018063D01*
X014283Y018056D01*
X014266Y018052D01*
X014249Y018050D01*
X014099Y018050D01*
X014049Y018100D01*
X012149Y018100D01*
X012099Y018050D01*
X017099Y018150D02*
X017099Y018850D01*
X017101Y018867D01*
X017105Y018884D01*
X017112Y018900D01*
X017122Y018914D01*
X017135Y018927D01*
X017149Y018937D01*
X017165Y018944D01*
X017182Y018948D01*
X017199Y018950D01*
X017349Y018950D01*
X017399Y018900D01*
X019299Y018900D01*
X019349Y018950D01*
X019499Y018950D01*
X019516Y018948D01*
X019533Y018944D01*
X019549Y018937D01*
X019563Y018927D01*
X019576Y018914D01*
X019586Y018900D01*
X019593Y018884D01*
X019597Y018867D01*
X019599Y018850D01*
X019599Y018150D01*
X019597Y018133D01*
X019593Y018116D01*
X019586Y018100D01*
X019576Y018086D01*
X019563Y018073D01*
X019549Y018063D01*
X019533Y018056D01*
X019516Y018052D01*
X019499Y018050D01*
X019349Y018050D01*
X019299Y018100D01*
X017399Y018100D01*
X017349Y018050D01*
X017199Y018050D01*
X017182Y018052D01*
X017165Y018056D01*
X017149Y018063D01*
X017135Y018073D01*
X017122Y018086D01*
X017112Y018100D01*
X017105Y018116D01*
X017101Y018133D01*
X017099Y018150D01*
X018199Y017200D02*
X018999Y017200D01*
X019016Y017198D01*
X019033Y017194D01*
X019049Y017187D01*
X019063Y017177D01*
X019076Y017164D01*
X019086Y017150D01*
X019093Y017134D01*
X019097Y017117D01*
X019099Y017100D01*
X019099Y015400D01*
X019097Y015383D01*
X019093Y015366D01*
X019086Y015350D01*
X019076Y015336D01*
X019063Y015323D01*
X019049Y015313D01*
X019033Y015306D01*
X019016Y015302D01*
X018999Y015300D01*
X018199Y015300D01*
X018182Y015302D01*
X018165Y015306D01*
X018149Y015313D01*
X018135Y015323D01*
X018122Y015336D01*
X018112Y015350D01*
X018105Y015366D01*
X018101Y015383D01*
X018099Y015400D01*
X018099Y017100D01*
X018101Y017117D01*
X018105Y017134D01*
X018112Y017150D01*
X018122Y017164D01*
X018135Y017177D01*
X018149Y017187D01*
X018165Y017194D01*
X018182Y017198D01*
X018199Y017200D01*
X019349Y016400D02*
X019349Y015650D01*
X019388Y015648D01*
X019427Y015642D01*
X019465Y015633D01*
X019502Y015620D01*
X019538Y015603D01*
X019571Y015583D01*
X019603Y015559D01*
X019632Y015533D01*
X019658Y015504D01*
X019682Y015472D01*
X019702Y015439D01*
X019719Y015403D01*
X019732Y015366D01*
X019741Y015328D01*
X019747Y015289D01*
X019749Y015250D01*
X019747Y015211D01*
X019741Y015172D01*
X019732Y015134D01*
X019719Y015097D01*
X019702Y015061D01*
X019682Y015028D01*
X019658Y014996D01*
X019632Y014967D01*
X019603Y014941D01*
X019571Y014917D01*
X019538Y014897D01*
X019502Y014880D01*
X019465Y014867D01*
X019427Y014858D01*
X019388Y014852D01*
X019349Y014850D01*
X019349Y014100D01*
X023349Y014100D01*
X023349Y016400D01*
X019349Y016400D01*
X024424Y017200D02*
X024524Y017200D01*
X024524Y017100D01*
X024424Y017200D02*
X024424Y017800D01*
X024524Y017800D01*
X024524Y017900D01*
X024874Y018700D02*
X025224Y018700D01*
X026224Y018700D01*
X026574Y018700D01*
X026924Y017900D02*
X026924Y017800D01*
X027024Y017800D01*
X027024Y017200D01*
X026924Y017200D01*
X026924Y017100D01*
X025624Y017500D02*
X025626Y017520D01*
X025632Y017538D01*
X025641Y017556D01*
X025653Y017571D01*
X025668Y017583D01*
X025686Y017592D01*
X025704Y017598D01*
X025724Y017600D01*
X025744Y017598D01*
X025762Y017592D01*
X025780Y017583D01*
X025795Y017571D01*
X025807Y017556D01*
X025816Y017538D01*
X025822Y017520D01*
X025824Y017500D01*
X025822Y017480D01*
X025816Y017462D01*
X025807Y017444D01*
X025795Y017429D01*
X025780Y017417D01*
X025762Y017408D01*
X025744Y017402D01*
X025724Y017400D01*
X025704Y017402D01*
X025686Y017408D01*
X025668Y017417D01*
X025653Y017429D01*
X025641Y017444D01*
X025632Y017462D01*
X025626Y017480D01*
X025624Y017500D01*
X025024Y017500D02*
X025026Y017552D01*
X025032Y017604D01*
X025042Y017656D01*
X025055Y017706D01*
X025072Y017756D01*
X025093Y017804D01*
X025118Y017850D01*
X025146Y017894D01*
X025177Y017936D01*
X025211Y017976D01*
X025248Y018013D01*
X025288Y018047D01*
X025330Y018078D01*
X025374Y018106D01*
X025420Y018131D01*
X025468Y018152D01*
X025518Y018169D01*
X025568Y018182D01*
X025620Y018192D01*
X025672Y018198D01*
X025724Y018200D01*
X025776Y018198D01*
X025828Y018192D01*
X025880Y018182D01*
X025930Y018169D01*
X025980Y018152D01*
X026028Y018131D01*
X026074Y018106D01*
X026118Y018078D01*
X026160Y018047D01*
X026200Y018013D01*
X026237Y017976D01*
X026271Y017936D01*
X026302Y017894D01*
X026330Y017850D01*
X026355Y017804D01*
X026376Y017756D01*
X026393Y017706D01*
X026406Y017656D01*
X026416Y017604D01*
X026422Y017552D01*
X026424Y017500D01*
X026422Y017448D01*
X026416Y017396D01*
X026406Y017344D01*
X026393Y017294D01*
X026376Y017244D01*
X026355Y017196D01*
X026330Y017150D01*
X026302Y017106D01*
X026271Y017064D01*
X026237Y017024D01*
X026200Y016987D01*
X026160Y016953D01*
X026118Y016922D01*
X026074Y016894D01*
X026028Y016869D01*
X025980Y016848D01*
X025930Y016831D01*
X025880Y016818D01*
X025828Y016808D01*
X025776Y016802D01*
X025724Y016800D01*
X025672Y016802D01*
X025620Y016808D01*
X025568Y016818D01*
X025518Y016831D01*
X025468Y016848D01*
X025420Y016869D01*
X025374Y016894D01*
X025330Y016922D01*
X025288Y016953D01*
X025248Y016987D01*
X025211Y017024D01*
X025177Y017064D01*
X025146Y017106D01*
X025118Y017150D01*
X025093Y017196D01*
X025072Y017244D01*
X025055Y017294D01*
X025042Y017344D01*
X025032Y017396D01*
X025026Y017448D01*
X025024Y017500D01*
X024874Y016300D02*
X025224Y016300D01*
X026174Y016300D01*
X026574Y016300D01*
X026574Y015700D02*
X026224Y015700D01*
X025224Y015700D01*
X024874Y015700D01*
X024524Y014900D02*
X024524Y014800D01*
X024424Y014800D01*
X024424Y014200D01*
X024524Y014200D01*
X024524Y014100D01*
X024874Y013300D02*
X025224Y013300D01*
X026174Y013300D01*
X026574Y013300D01*
X026649Y013000D02*
X028149Y013000D01*
X028399Y012750D01*
X028399Y012250D01*
X028149Y012000D01*
X026649Y012000D01*
X026399Y011750D01*
X026399Y011250D01*
X026649Y011000D01*
X026399Y010750D01*
X026399Y010250D01*
X026649Y010000D01*
X028149Y010000D01*
X028399Y010250D01*
X028399Y010750D01*
X028149Y011000D01*
X026649Y011000D01*
X025349Y010650D02*
X025349Y008350D01*
X021349Y008350D01*
X021349Y009100D01*
X021388Y009102D01*
X021427Y009108D01*
X021465Y009117D01*
X021502Y009130D01*
X021538Y009147D01*
X021571Y009167D01*
X021603Y009191D01*
X021632Y009217D01*
X021658Y009246D01*
X021682Y009278D01*
X021702Y009311D01*
X021719Y009347D01*
X021732Y009384D01*
X021741Y009422D01*
X021747Y009461D01*
X021749Y009500D01*
X021747Y009539D01*
X021741Y009578D01*
X021732Y009616D01*
X021719Y009653D01*
X021702Y009689D01*
X021682Y009722D01*
X021658Y009754D01*
X021632Y009783D01*
X021603Y009809D01*
X021571Y009833D01*
X021538Y009853D01*
X021502Y009870D01*
X021465Y009883D01*
X021427Y009892D01*
X021388Y009898D01*
X021349Y009900D01*
X021349Y010650D01*
X025349Y010650D01*
X026649Y012000D02*
X026399Y012250D01*
X026399Y012750D01*
X026649Y013000D01*
X026924Y014100D02*
X026924Y014200D01*
X027024Y014200D01*
X027024Y014800D01*
X026924Y014800D01*
X026924Y014900D01*
X025624Y014500D02*
X025626Y014520D01*
X025632Y014538D01*
X025641Y014556D01*
X025653Y014571D01*
X025668Y014583D01*
X025686Y014592D01*
X025704Y014598D01*
X025724Y014600D01*
X025744Y014598D01*
X025762Y014592D01*
X025780Y014583D01*
X025795Y014571D01*
X025807Y014556D01*
X025816Y014538D01*
X025822Y014520D01*
X025824Y014500D01*
X025822Y014480D01*
X025816Y014462D01*
X025807Y014444D01*
X025795Y014429D01*
X025780Y014417D01*
X025762Y014408D01*
X025744Y014402D01*
X025724Y014400D01*
X025704Y014402D01*
X025686Y014408D01*
X025668Y014417D01*
X025653Y014429D01*
X025641Y014444D01*
X025632Y014462D01*
X025626Y014480D01*
X025624Y014500D01*
X025024Y014500D02*
X025026Y014552D01*
X025032Y014604D01*
X025042Y014656D01*
X025055Y014706D01*
X025072Y014756D01*
X025093Y014804D01*
X025118Y014850D01*
X025146Y014894D01*
X025177Y014936D01*
X025211Y014976D01*
X025248Y015013D01*
X025288Y015047D01*
X025330Y015078D01*
X025374Y015106D01*
X025420Y015131D01*
X025468Y015152D01*
X025518Y015169D01*
X025568Y015182D01*
X025620Y015192D01*
X025672Y015198D01*
X025724Y015200D01*
X025776Y015198D01*
X025828Y015192D01*
X025880Y015182D01*
X025930Y015169D01*
X025980Y015152D01*
X026028Y015131D01*
X026074Y015106D01*
X026118Y015078D01*
X026160Y015047D01*
X026200Y015013D01*
X026237Y014976D01*
X026271Y014936D01*
X026302Y014894D01*
X026330Y014850D01*
X026355Y014804D01*
X026376Y014756D01*
X026393Y014706D01*
X026406Y014656D01*
X026416Y014604D01*
X026422Y014552D01*
X026424Y014500D01*
X026422Y014448D01*
X026416Y014396D01*
X026406Y014344D01*
X026393Y014294D01*
X026376Y014244D01*
X026355Y014196D01*
X026330Y014150D01*
X026302Y014106D01*
X026271Y014064D01*
X026237Y014024D01*
X026200Y013987D01*
X026160Y013953D01*
X026118Y013922D01*
X026074Y013894D01*
X026028Y013869D01*
X025980Y013848D01*
X025930Y013831D01*
X025880Y013818D01*
X025828Y013808D01*
X025776Y013802D01*
X025724Y013800D01*
X025672Y013802D01*
X025620Y013808D01*
X025568Y013818D01*
X025518Y013831D01*
X025468Y013848D01*
X025420Y013869D01*
X025374Y013894D01*
X025330Y013922D01*
X025288Y013953D01*
X025248Y013987D01*
X025211Y014024D01*
X025177Y014064D01*
X025146Y014106D01*
X025118Y014150D01*
X025093Y014196D01*
X025072Y014244D01*
X025055Y014294D01*
X025042Y014344D01*
X025032Y014396D01*
X025026Y014448D01*
X025024Y014500D01*
X028149Y012000D02*
X028399Y011750D01*
X028399Y011250D01*
X028149Y011000D01*
X020824Y011050D02*
X020724Y011050D01*
X020724Y010950D01*
X020724Y011050D02*
X020624Y011050D01*
X020724Y011050D02*
X020724Y011150D01*
X019224Y010500D02*
X019226Y010563D01*
X019232Y010625D01*
X019242Y010687D01*
X019255Y010749D01*
X019273Y010809D01*
X019294Y010868D01*
X019319Y010926D01*
X019348Y010982D01*
X019380Y011036D01*
X019415Y011088D01*
X019453Y011137D01*
X019495Y011185D01*
X019539Y011229D01*
X019587Y011271D01*
X019636Y011309D01*
X019688Y011344D01*
X019742Y011376D01*
X019798Y011405D01*
X019856Y011430D01*
X019915Y011451D01*
X019975Y011469D01*
X020037Y011482D01*
X020099Y011492D01*
X020161Y011498D01*
X020224Y011500D01*
X020287Y011498D01*
X020349Y011492D01*
X020411Y011482D01*
X020473Y011469D01*
X020533Y011451D01*
X020592Y011430D01*
X020650Y011405D01*
X020706Y011376D01*
X020760Y011344D01*
X020812Y011309D01*
X020861Y011271D01*
X020909Y011229D01*
X020953Y011185D01*
X020995Y011137D01*
X021033Y011088D01*
X021068Y011036D01*
X021100Y010982D01*
X021129Y010926D01*
X021154Y010868D01*
X021175Y010809D01*
X021193Y010749D01*
X021206Y010687D01*
X021216Y010625D01*
X021222Y010563D01*
X021224Y010500D01*
X021222Y010437D01*
X021216Y010375D01*
X021206Y010313D01*
X021193Y010251D01*
X021175Y010191D01*
X021154Y010132D01*
X021129Y010074D01*
X021100Y010018D01*
X021068Y009964D01*
X021033Y009912D01*
X020995Y009863D01*
X020953Y009815D01*
X020909Y009771D01*
X020861Y009729D01*
X020812Y009691D01*
X020760Y009656D01*
X020706Y009624D01*
X020650Y009595D01*
X020592Y009570D01*
X020533Y009549D01*
X020473Y009531D01*
X020411Y009518D01*
X020349Y009508D01*
X020287Y009502D01*
X020224Y009500D01*
X020161Y009502D01*
X020099Y009508D01*
X020037Y009518D01*
X019975Y009531D01*
X019915Y009549D01*
X019856Y009570D01*
X019798Y009595D01*
X019742Y009624D01*
X019688Y009656D01*
X019636Y009691D01*
X019587Y009729D01*
X019539Y009771D01*
X019495Y009815D01*
X019453Y009863D01*
X019415Y009912D01*
X019380Y009964D01*
X019348Y010018D01*
X019319Y010074D01*
X019294Y010132D01*
X019273Y010191D01*
X019255Y010251D01*
X019242Y010313D01*
X019232Y010375D01*
X019226Y010437D01*
X019224Y010500D01*
X018099Y011350D02*
X018099Y009650D01*
X018097Y009633D01*
X018093Y009616D01*
X018086Y009600D01*
X018076Y009586D01*
X018063Y009573D01*
X018049Y009563D01*
X018033Y009556D01*
X018016Y009552D01*
X017999Y009550D01*
X017199Y009550D01*
X017182Y009552D01*
X017165Y009556D01*
X017149Y009563D01*
X017135Y009573D01*
X017122Y009586D01*
X017112Y009600D01*
X017105Y009616D01*
X017101Y009633D01*
X017099Y009650D01*
X017099Y011350D01*
X017101Y011367D01*
X017105Y011384D01*
X017112Y011400D01*
X017122Y011414D01*
X017135Y011427D01*
X017149Y011437D01*
X017165Y011444D01*
X017182Y011448D01*
X017199Y011450D01*
X017999Y011450D01*
X018016Y011448D01*
X018033Y011444D01*
X018049Y011437D01*
X018063Y011427D01*
X018076Y011414D01*
X018086Y011400D01*
X018093Y011384D01*
X018097Y011367D01*
X018099Y011350D01*
X016849Y010650D02*
X016849Y009900D01*
X016810Y009898D01*
X016771Y009892D01*
X016733Y009883D01*
X016696Y009870D01*
X016660Y009853D01*
X016627Y009833D01*
X016595Y009809D01*
X016566Y009783D01*
X016540Y009754D01*
X016516Y009722D01*
X016496Y009689D01*
X016479Y009653D01*
X016466Y009616D01*
X016457Y009578D01*
X016451Y009539D01*
X016449Y009500D01*
X016451Y009461D01*
X016457Y009422D01*
X016466Y009384D01*
X016479Y009347D01*
X016496Y009311D01*
X016516Y009278D01*
X016540Y009246D01*
X016566Y009217D01*
X016595Y009191D01*
X016627Y009167D01*
X016660Y009147D01*
X016696Y009130D01*
X016733Y009117D01*
X016771Y009108D01*
X016810Y009102D01*
X016849Y009100D01*
X016849Y008350D01*
X012849Y008350D01*
X012849Y010650D01*
X016849Y010650D01*
X015499Y006950D02*
X014699Y006950D01*
X014682Y006948D01*
X014665Y006944D01*
X014649Y006937D01*
X014635Y006927D01*
X014622Y006914D01*
X014612Y006900D01*
X014605Y006884D01*
X014601Y006867D01*
X014599Y006850D01*
X014599Y005150D01*
X014601Y005133D01*
X014605Y005116D01*
X014612Y005100D01*
X014622Y005086D01*
X014635Y005073D01*
X014649Y005063D01*
X014665Y005056D01*
X014682Y005052D01*
X014699Y005050D01*
X015499Y005050D01*
X015516Y005052D01*
X015533Y005056D01*
X015549Y005063D01*
X015563Y005073D01*
X015576Y005086D01*
X015586Y005100D01*
X015593Y005116D01*
X015597Y005133D01*
X015599Y005150D01*
X015599Y006850D01*
X015597Y006867D01*
X015593Y006884D01*
X015586Y006900D01*
X015576Y006914D01*
X015563Y006927D01*
X015549Y006937D01*
X015533Y006944D01*
X015516Y006948D01*
X015499Y006950D01*
X015849Y006150D02*
X015849Y005400D01*
X015888Y005398D01*
X015927Y005392D01*
X015965Y005383D01*
X016002Y005370D01*
X016038Y005353D01*
X016071Y005333D01*
X016103Y005309D01*
X016132Y005283D01*
X016158Y005254D01*
X016182Y005222D01*
X016202Y005189D01*
X016219Y005153D01*
X016232Y005116D01*
X016241Y005078D01*
X016247Y005039D01*
X016249Y005000D01*
X016247Y004961D01*
X016241Y004922D01*
X016232Y004884D01*
X016219Y004847D01*
X016202Y004811D01*
X016182Y004778D01*
X016158Y004746D01*
X016132Y004717D01*
X016103Y004691D01*
X016071Y004667D01*
X016038Y004647D01*
X016002Y004630D01*
X015965Y004617D01*
X015927Y004608D01*
X015888Y004602D01*
X015849Y004600D01*
X015849Y003850D01*
X019849Y003850D01*
X019849Y006150D01*
X015849Y006150D01*
X013799Y004650D02*
X013799Y004500D01*
X013749Y004450D01*
X013749Y002550D01*
X013799Y002500D01*
X013799Y002350D01*
X013797Y002333D01*
X013793Y002316D01*
X013786Y002300D01*
X013776Y002286D01*
X013763Y002273D01*
X013749Y002263D01*
X013733Y002256D01*
X013716Y002252D01*
X013699Y002250D01*
X012999Y002250D01*
X012982Y002252D01*
X012965Y002256D01*
X012949Y002263D01*
X012935Y002273D01*
X012922Y002286D01*
X012912Y002300D01*
X012905Y002316D01*
X012901Y002333D01*
X012899Y002350D01*
X012899Y002500D01*
X012949Y002550D01*
X012949Y004450D01*
X012899Y004500D01*
X012899Y004650D01*
X012799Y004650D02*
X012799Y004500D01*
X012749Y004450D01*
X012749Y002550D01*
X012799Y002500D01*
X012799Y002350D01*
X012797Y002333D01*
X012793Y002316D01*
X012786Y002300D01*
X012776Y002286D01*
X012763Y002273D01*
X012749Y002263D01*
X012733Y002256D01*
X012716Y002252D01*
X012699Y002250D01*
X011999Y002250D01*
X011982Y002252D01*
X011965Y002256D01*
X011949Y002263D01*
X011935Y002273D01*
X011922Y002286D01*
X011912Y002300D01*
X011905Y002316D01*
X011901Y002333D01*
X011899Y002350D01*
X011899Y002500D01*
X011949Y002550D01*
X011949Y004450D01*
X011899Y004500D01*
X011899Y004650D01*
X011901Y004667D01*
X011905Y004684D01*
X011912Y004700D01*
X011922Y004714D01*
X011935Y004727D01*
X011949Y004737D01*
X011965Y004744D01*
X011982Y004748D01*
X011999Y004750D01*
X012699Y004750D01*
X012716Y004748D01*
X012733Y004744D01*
X012749Y004737D01*
X012763Y004727D01*
X012776Y004714D01*
X012786Y004700D01*
X012793Y004684D01*
X012797Y004667D01*
X012799Y004650D01*
X012899Y004650D02*
X012901Y004667D01*
X012905Y004684D01*
X012912Y004700D01*
X012922Y004714D01*
X012935Y004727D01*
X012949Y004737D01*
X012965Y004744D01*
X012982Y004748D01*
X012999Y004750D01*
X013699Y004750D01*
X013716Y004748D01*
X013733Y004744D01*
X013749Y004737D01*
X013763Y004727D01*
X013776Y004714D01*
X013786Y004700D01*
X013793Y004684D01*
X013797Y004667D01*
X013799Y004650D01*
X008749Y007000D02*
X008751Y007066D01*
X008757Y007131D01*
X008767Y007196D01*
X008780Y007261D01*
X008798Y007324D01*
X008819Y007387D01*
X008844Y007447D01*
X008873Y007507D01*
X008905Y007564D01*
X008940Y007620D01*
X008979Y007673D01*
X009021Y007724D01*
X009065Y007772D01*
X009113Y007817D01*
X009163Y007860D01*
X009216Y007899D01*
X009271Y007936D01*
X009328Y007969D01*
X009387Y007998D01*
X009447Y008024D01*
X009509Y008046D01*
X009572Y008065D01*
X009636Y008079D01*
X009701Y008090D01*
X009767Y008097D01*
X009833Y008100D01*
X009898Y008099D01*
X009964Y008094D01*
X010029Y008085D01*
X010094Y008072D01*
X010157Y008056D01*
X010220Y008036D01*
X010281Y008011D01*
X010341Y007984D01*
X010399Y007953D01*
X010455Y007918D01*
X010509Y007880D01*
X010560Y007839D01*
X010609Y007795D01*
X010655Y007748D01*
X010699Y007699D01*
X010739Y007647D01*
X010776Y007592D01*
X010810Y007536D01*
X010840Y007477D01*
X010867Y007417D01*
X010890Y007356D01*
X010909Y007293D01*
X010925Y007229D01*
X010937Y007164D01*
X010945Y007099D01*
X010949Y007033D01*
X010949Y006967D01*
X010945Y006901D01*
X010937Y006836D01*
X010925Y006771D01*
X010909Y006707D01*
X010890Y006644D01*
X010867Y006583D01*
X010840Y006523D01*
X010810Y006464D01*
X010776Y006408D01*
X010739Y006353D01*
X010699Y006301D01*
X010655Y006252D01*
X010609Y006205D01*
X010560Y006161D01*
X010509Y006120D01*
X010455Y006082D01*
X010399Y006047D01*
X010341Y006016D01*
X010281Y005989D01*
X010220Y005964D01*
X010157Y005944D01*
X010094Y005928D01*
X010029Y005915D01*
X009964Y005906D01*
X009898Y005901D01*
X009833Y005900D01*
X009767Y005903D01*
X009701Y005910D01*
X009636Y005921D01*
X009572Y005935D01*
X009509Y005954D01*
X009447Y005976D01*
X009387Y006002D01*
X009328Y006031D01*
X009271Y006064D01*
X009216Y006101D01*
X009163Y006140D01*
X009113Y006183D01*
X009065Y006228D01*
X009021Y006276D01*
X008979Y006327D01*
X008940Y006380D01*
X008905Y006436D01*
X008873Y006493D01*
X008844Y006553D01*
X008819Y006613D01*
X008798Y006676D01*
X008780Y006739D01*
X008767Y006804D01*
X008757Y006869D01*
X008751Y006934D01*
X008749Y007000D01*
X009219Y007450D02*
X009219Y007600D01*
X009219Y007750D01*
X009219Y007600D02*
X009369Y007600D01*
X009219Y007600D02*
X009069Y007600D01*
X008849Y010000D02*
X008851Y010063D01*
X008857Y010125D01*
X008867Y010187D01*
X008880Y010249D01*
X008898Y010309D01*
X008919Y010368D01*
X008944Y010426D01*
X008973Y010482D01*
X009005Y010536D01*
X009040Y010588D01*
X009078Y010637D01*
X009120Y010685D01*
X009164Y010729D01*
X009212Y010771D01*
X009261Y010809D01*
X009313Y010844D01*
X009367Y010876D01*
X009423Y010905D01*
X009481Y010930D01*
X009540Y010951D01*
X009600Y010969D01*
X009662Y010982D01*
X009724Y010992D01*
X009786Y010998D01*
X009849Y011000D01*
X009912Y010998D01*
X009974Y010992D01*
X010036Y010982D01*
X010098Y010969D01*
X010158Y010951D01*
X010217Y010930D01*
X010275Y010905D01*
X010331Y010876D01*
X010385Y010844D01*
X010437Y010809D01*
X010486Y010771D01*
X010534Y010729D01*
X010578Y010685D01*
X010620Y010637D01*
X010658Y010588D01*
X010693Y010536D01*
X010725Y010482D01*
X010754Y010426D01*
X010779Y010368D01*
X010800Y010309D01*
X010818Y010249D01*
X010831Y010187D01*
X010841Y010125D01*
X010847Y010063D01*
X010849Y010000D01*
X010847Y009937D01*
X010841Y009875D01*
X010831Y009813D01*
X010818Y009751D01*
X010800Y009691D01*
X010779Y009632D01*
X010754Y009574D01*
X010725Y009518D01*
X010693Y009464D01*
X010658Y009412D01*
X010620Y009363D01*
X010578Y009315D01*
X010534Y009271D01*
X010486Y009229D01*
X010437Y009191D01*
X010385Y009156D01*
X010331Y009124D01*
X010275Y009095D01*
X010217Y009070D01*
X010158Y009049D01*
X010098Y009031D01*
X010036Y009018D01*
X009974Y009008D01*
X009912Y009002D01*
X009849Y009000D01*
X009786Y009002D01*
X009724Y009008D01*
X009662Y009018D01*
X009600Y009031D01*
X009540Y009049D01*
X009481Y009070D01*
X009423Y009095D01*
X009367Y009124D01*
X009313Y009156D01*
X009261Y009191D01*
X009212Y009229D01*
X009164Y009271D01*
X009120Y009315D01*
X009078Y009363D01*
X009040Y009412D01*
X009005Y009464D01*
X008973Y009518D01*
X008944Y009574D01*
X008919Y009632D01*
X008898Y009691D01*
X008880Y009751D01*
X008867Y009813D01*
X008857Y009875D01*
X008851Y009937D01*
X008849Y010000D01*
X009299Y010400D02*
X009299Y010500D01*
X009299Y010600D01*
X009299Y010500D02*
X009199Y010500D01*
X009299Y010500D02*
X009399Y010500D01*
X020399Y006150D02*
X020399Y006000D01*
X020449Y005950D01*
X020449Y004050D01*
X020399Y004000D01*
X020399Y003850D01*
X020401Y003833D01*
X020405Y003816D01*
X020412Y003800D01*
X020422Y003786D01*
X020435Y003773D01*
X020449Y003763D01*
X020465Y003756D01*
X020482Y003752D01*
X020499Y003750D01*
X021199Y003750D01*
X021216Y003752D01*
X021233Y003756D01*
X021249Y003763D01*
X021263Y003773D01*
X021276Y003786D01*
X021286Y003800D01*
X021293Y003816D01*
X021297Y003833D01*
X021299Y003850D01*
X021299Y004000D01*
X021249Y004050D01*
X021249Y005950D01*
X021299Y006000D01*
X021299Y006150D01*
X021297Y006167D01*
X021293Y006184D01*
X021286Y006200D01*
X021276Y006214D01*
X021263Y006227D01*
X021249Y006237D01*
X021233Y006244D01*
X021216Y006248D01*
X021199Y006250D01*
X020499Y006250D01*
X020482Y006248D01*
X020465Y006244D01*
X020449Y006237D01*
X020435Y006227D01*
X020422Y006214D01*
X020412Y006200D01*
X020405Y006184D01*
X020401Y006167D01*
X020399Y006150D01*
X023199Y006000D02*
X023299Y006000D01*
X023299Y006100D01*
X023299Y006000D02*
X023399Y006000D01*
X023299Y006000D02*
X023299Y005900D01*
X022849Y005500D02*
X022851Y005563D01*
X022857Y005625D01*
X022867Y005687D01*
X022880Y005749D01*
X022898Y005809D01*
X022919Y005868D01*
X022944Y005926D01*
X022973Y005982D01*
X023005Y006036D01*
X023040Y006088D01*
X023078Y006137D01*
X023120Y006185D01*
X023164Y006229D01*
X023212Y006271D01*
X023261Y006309D01*
X023313Y006344D01*
X023367Y006376D01*
X023423Y006405D01*
X023481Y006430D01*
X023540Y006451D01*
X023600Y006469D01*
X023662Y006482D01*
X023724Y006492D01*
X023786Y006498D01*
X023849Y006500D01*
X023912Y006498D01*
X023974Y006492D01*
X024036Y006482D01*
X024098Y006469D01*
X024158Y006451D01*
X024217Y006430D01*
X024275Y006405D01*
X024331Y006376D01*
X024385Y006344D01*
X024437Y006309D01*
X024486Y006271D01*
X024534Y006229D01*
X024578Y006185D01*
X024620Y006137D01*
X024658Y006088D01*
X024693Y006036D01*
X024725Y005982D01*
X024754Y005926D01*
X024779Y005868D01*
X024800Y005809D01*
X024818Y005749D01*
X024831Y005687D01*
X024841Y005625D01*
X024847Y005563D01*
X024849Y005500D01*
X024847Y005437D01*
X024841Y005375D01*
X024831Y005313D01*
X024818Y005251D01*
X024800Y005191D01*
X024779Y005132D01*
X024754Y005074D01*
X024725Y005018D01*
X024693Y004964D01*
X024658Y004912D01*
X024620Y004863D01*
X024578Y004815D01*
X024534Y004771D01*
X024486Y004729D01*
X024437Y004691D01*
X024385Y004656D01*
X024331Y004624D01*
X024275Y004595D01*
X024217Y004570D01*
X024158Y004549D01*
X024098Y004531D01*
X024036Y004518D01*
X023974Y004508D01*
X023912Y004502D01*
X023849Y004500D01*
X023786Y004502D01*
X023724Y004508D01*
X023662Y004518D01*
X023600Y004531D01*
X023540Y004549D01*
X023481Y004570D01*
X023423Y004595D01*
X023367Y004624D01*
X023313Y004656D01*
X023261Y004691D01*
X023212Y004729D01*
X023164Y004771D01*
X023120Y004815D01*
X023078Y004863D01*
X023040Y004912D01*
X023005Y004964D01*
X022973Y005018D01*
X022944Y005074D01*
X022919Y005132D01*
X022898Y005191D01*
X022880Y005251D01*
X022867Y005313D01*
X022857Y005375D01*
X022851Y005437D01*
X022849Y005500D01*
D309*
X025224Y013300D02*
X025224Y013400D01*
X026174Y013400D01*
X026174Y013300D01*
X026224Y015600D02*
X025224Y015600D01*
X025224Y015700D01*
X025224Y016300D02*
X025224Y016400D01*
X026174Y016400D01*
X026174Y016300D01*
X026224Y015700D02*
X026224Y015600D01*
X026224Y018600D02*
X025224Y018600D01*
X025224Y018700D01*
X026224Y018700D02*
X026224Y018600D01*
D310*
X010349Y020250D02*
X010099Y020000D01*
X009599Y020000D01*
X009349Y020250D01*
X009099Y020000D01*
X008599Y020000D01*
X008349Y020250D01*
X008349Y020750D01*
X008599Y021000D01*
X009099Y021000D01*
X009349Y020750D01*
X009599Y021000D01*
X010099Y021000D01*
X010349Y020750D01*
X010349Y020250D01*
X005652Y010862D02*
X005258Y010862D01*
X005652Y010862D02*
X005652Y006138D01*
X005258Y006138D01*
X005258Y005862D02*
X005652Y005862D01*
X005652Y001138D01*
X005258Y001138D01*
X004077Y001138D02*
X002321Y001138D01*
X006724Y002250D02*
X006974Y002000D01*
X007474Y002000D01*
X007724Y002250D01*
X007724Y002750D01*
X007474Y003000D01*
X007724Y003250D01*
X007724Y003750D01*
X007474Y004000D01*
X007724Y004250D01*
X007724Y004750D01*
X007474Y005000D01*
X006974Y005000D01*
X006724Y004750D01*
X006724Y004250D01*
X006974Y004000D01*
X006724Y003750D01*
X006724Y003250D01*
X006974Y003000D01*
X006724Y002750D01*
X006724Y002250D01*
X004077Y005862D02*
X002321Y005862D01*
X002321Y006138D02*
X004077Y006138D01*
X006724Y007750D02*
X006974Y007500D01*
X007474Y007500D01*
X007724Y007750D01*
X007724Y008250D01*
X007474Y008500D01*
X007724Y008750D01*
X007724Y009250D01*
X007474Y009500D01*
X006974Y009500D01*
X006724Y009250D01*
X006724Y008750D01*
X006974Y008500D01*
X006724Y008250D01*
X006724Y007750D01*
X004077Y010862D02*
X002321Y010862D01*
D311*
X012349Y004920D03*
X013349Y004920D03*
X013349Y002080D03*
X012349Y002080D03*
X020849Y003580D03*
X020849Y006420D03*
D312*
X010519Y012500D03*
X010519Y013500D03*
X007679Y013500D03*
X007679Y012500D03*
X011679Y018500D03*
X014519Y018500D03*
X016929Y018500D03*
X019769Y018500D03*
M02*
