G75*
G70*
%OFA0B0*%
%FSLAX24Y24*%
%IPPOS*%
%LPD*%
%AMOC8*
5,1,8,0,0,1.08239X$1,22.5*
%
%ADD10C,0.0000*%
%ADD11C,0.0120*%
%ADD12C,0.0740*%
%ADD13OC8,0.0600*%
%ADD14OC8,0.0660*%
%ADD15OC8,0.0560*%
%ADD16C,0.0760*%
%ADD17C,0.0520*%
%ADD18OC8,0.0630*%
%ADD19C,0.0630*%
%ADD20OC8,0.0520*%
%ADD21OC8,0.0700*%
%ADD22C,0.0700*%
%ADD23C,0.0100*%
%ADD24C,0.0160*%
%ADD25C,0.0400*%
D10*
X001849Y000500D02*
X001849Y021500D01*
X028849Y021500D01*
X028849Y000500D01*
X001849Y000500D01*
X002482Y001531D02*
X002484Y001560D01*
X002490Y001588D01*
X002499Y001616D01*
X002512Y001642D01*
X002529Y001665D01*
X002548Y001687D01*
X002570Y001706D01*
X002595Y001721D01*
X002621Y001734D01*
X002649Y001742D01*
X002677Y001747D01*
X002706Y001748D01*
X002735Y001745D01*
X002763Y001738D01*
X002790Y001728D01*
X002816Y001714D01*
X002839Y001697D01*
X002860Y001677D01*
X002878Y001654D01*
X002893Y001629D01*
X002904Y001602D01*
X002912Y001574D01*
X002916Y001545D01*
X002916Y001517D01*
X002912Y001488D01*
X002904Y001460D01*
X002893Y001433D01*
X002878Y001408D01*
X002860Y001385D01*
X002839Y001365D01*
X002816Y001348D01*
X002790Y001334D01*
X002763Y001324D01*
X002735Y001317D01*
X002706Y001314D01*
X002677Y001315D01*
X002649Y001320D01*
X002621Y001328D01*
X002595Y001341D01*
X002570Y001356D01*
X002548Y001375D01*
X002529Y001397D01*
X002512Y001420D01*
X002499Y001446D01*
X002490Y001474D01*
X002484Y001502D01*
X002482Y001531D01*
X004451Y003500D02*
X004453Y003529D01*
X004459Y003557D01*
X004468Y003585D01*
X004481Y003611D01*
X004498Y003634D01*
X004517Y003656D01*
X004539Y003675D01*
X004564Y003690D01*
X004590Y003703D01*
X004618Y003711D01*
X004646Y003716D01*
X004675Y003717D01*
X004704Y003714D01*
X004732Y003707D01*
X004759Y003697D01*
X004785Y003683D01*
X004808Y003666D01*
X004829Y003646D01*
X004847Y003623D01*
X004862Y003598D01*
X004873Y003571D01*
X004881Y003543D01*
X004885Y003514D01*
X004885Y003486D01*
X004881Y003457D01*
X004873Y003429D01*
X004862Y003402D01*
X004847Y003377D01*
X004829Y003354D01*
X004808Y003334D01*
X004785Y003317D01*
X004759Y003303D01*
X004732Y003293D01*
X004704Y003286D01*
X004675Y003283D01*
X004646Y003284D01*
X004618Y003289D01*
X004590Y003297D01*
X004564Y003310D01*
X004539Y003325D01*
X004517Y003344D01*
X004498Y003366D01*
X004481Y003389D01*
X004468Y003415D01*
X004459Y003443D01*
X004453Y003471D01*
X004451Y003500D01*
X002482Y005469D02*
X002484Y005498D01*
X002490Y005526D01*
X002499Y005554D01*
X002512Y005580D01*
X002529Y005603D01*
X002548Y005625D01*
X002570Y005644D01*
X002595Y005659D01*
X002621Y005672D01*
X002649Y005680D01*
X002677Y005685D01*
X002706Y005686D01*
X002735Y005683D01*
X002763Y005676D01*
X002790Y005666D01*
X002816Y005652D01*
X002839Y005635D01*
X002860Y005615D01*
X002878Y005592D01*
X002893Y005567D01*
X002904Y005540D01*
X002912Y005512D01*
X002916Y005483D01*
X002916Y005455D01*
X002912Y005426D01*
X002904Y005398D01*
X002893Y005371D01*
X002878Y005346D01*
X002860Y005323D01*
X002839Y005303D01*
X002816Y005286D01*
X002790Y005272D01*
X002763Y005262D01*
X002735Y005255D01*
X002706Y005252D01*
X002677Y005253D01*
X002649Y005258D01*
X002621Y005266D01*
X002595Y005279D01*
X002570Y005294D01*
X002548Y005313D01*
X002529Y005335D01*
X002512Y005358D01*
X002499Y005384D01*
X002490Y005412D01*
X002484Y005440D01*
X002482Y005469D01*
X002482Y006531D02*
X002484Y006560D01*
X002490Y006588D01*
X002499Y006616D01*
X002512Y006642D01*
X002529Y006665D01*
X002548Y006687D01*
X002570Y006706D01*
X002595Y006721D01*
X002621Y006734D01*
X002649Y006742D01*
X002677Y006747D01*
X002706Y006748D01*
X002735Y006745D01*
X002763Y006738D01*
X002790Y006728D01*
X002816Y006714D01*
X002839Y006697D01*
X002860Y006677D01*
X002878Y006654D01*
X002893Y006629D01*
X002904Y006602D01*
X002912Y006574D01*
X002916Y006545D01*
X002916Y006517D01*
X002912Y006488D01*
X002904Y006460D01*
X002893Y006433D01*
X002878Y006408D01*
X002860Y006385D01*
X002839Y006365D01*
X002816Y006348D01*
X002790Y006334D01*
X002763Y006324D01*
X002735Y006317D01*
X002706Y006314D01*
X002677Y006315D01*
X002649Y006320D01*
X002621Y006328D01*
X002595Y006341D01*
X002570Y006356D01*
X002548Y006375D01*
X002529Y006397D01*
X002512Y006420D01*
X002499Y006446D01*
X002490Y006474D01*
X002484Y006502D01*
X002482Y006531D01*
X004451Y008500D02*
X004453Y008529D01*
X004459Y008557D01*
X004468Y008585D01*
X004481Y008611D01*
X004498Y008634D01*
X004517Y008656D01*
X004539Y008675D01*
X004564Y008690D01*
X004590Y008703D01*
X004618Y008711D01*
X004646Y008716D01*
X004675Y008717D01*
X004704Y008714D01*
X004732Y008707D01*
X004759Y008697D01*
X004785Y008683D01*
X004808Y008666D01*
X004829Y008646D01*
X004847Y008623D01*
X004862Y008598D01*
X004873Y008571D01*
X004881Y008543D01*
X004885Y008514D01*
X004885Y008486D01*
X004881Y008457D01*
X004873Y008429D01*
X004862Y008402D01*
X004847Y008377D01*
X004829Y008354D01*
X004808Y008334D01*
X004785Y008317D01*
X004759Y008303D01*
X004732Y008293D01*
X004704Y008286D01*
X004675Y008283D01*
X004646Y008284D01*
X004618Y008289D01*
X004590Y008297D01*
X004564Y008310D01*
X004539Y008325D01*
X004517Y008344D01*
X004498Y008366D01*
X004481Y008389D01*
X004468Y008415D01*
X004459Y008443D01*
X004453Y008471D01*
X004451Y008500D01*
X002482Y010469D02*
X002484Y010498D01*
X002490Y010526D01*
X002499Y010554D01*
X002512Y010580D01*
X002529Y010603D01*
X002548Y010625D01*
X002570Y010644D01*
X002595Y010659D01*
X002621Y010672D01*
X002649Y010680D01*
X002677Y010685D01*
X002706Y010686D01*
X002735Y010683D01*
X002763Y010676D01*
X002790Y010666D01*
X002816Y010652D01*
X002839Y010635D01*
X002860Y010615D01*
X002878Y010592D01*
X002893Y010567D01*
X002904Y010540D01*
X002912Y010512D01*
X002916Y010483D01*
X002916Y010455D01*
X002912Y010426D01*
X002904Y010398D01*
X002893Y010371D01*
X002878Y010346D01*
X002860Y010323D01*
X002839Y010303D01*
X002816Y010286D01*
X002790Y010272D01*
X002763Y010262D01*
X002735Y010255D01*
X002706Y010252D01*
X002677Y010253D01*
X002649Y010258D01*
X002621Y010266D01*
X002595Y010279D01*
X002570Y010294D01*
X002548Y010313D01*
X002529Y010335D01*
X002512Y010358D01*
X002499Y010384D01*
X002490Y010412D01*
X002484Y010440D01*
X002482Y010469D01*
D11*
X001849Y001000D02*
X001849Y021000D01*
X002349Y021500D01*
X027349Y021500D01*
X027849Y021000D01*
X027849Y016500D01*
X028849Y015500D01*
X028849Y002500D01*
X027849Y001500D01*
X027849Y000500D01*
X002349Y000500D01*
X001849Y001000D01*
D12*
X007224Y002500D03*
X007224Y003500D03*
X007224Y004500D03*
X007224Y008000D03*
X007224Y009000D03*
X014849Y001500D03*
X015849Y001500D03*
X016849Y001500D03*
X017849Y001500D03*
X018849Y001500D03*
X019849Y001500D03*
X021849Y001500D03*
X022849Y001500D03*
X023849Y001500D03*
X024849Y001500D03*
X025849Y001500D03*
X026849Y001500D03*
X025849Y004500D03*
X026849Y005500D03*
X027849Y004500D03*
X026849Y020500D03*
X025849Y020500D03*
X024849Y020500D03*
X023849Y020500D03*
X022849Y020500D03*
X021849Y020500D03*
X020849Y020500D03*
X019849Y020500D03*
X018249Y020500D03*
X017249Y020500D03*
X016249Y020500D03*
X015249Y020500D03*
X014249Y020500D03*
X013249Y020500D03*
X012249Y020500D03*
X011249Y020500D03*
X009849Y020500D03*
X008849Y020500D03*
D13*
X026899Y012500D03*
X027899Y012500D03*
X027899Y011500D03*
X026899Y011500D03*
X026899Y010500D03*
X027899Y010500D03*
D14*
X027004Y013610D03*
X024444Y013610D03*
X024444Y015390D03*
X024444Y016610D03*
X027004Y016610D03*
X027004Y015390D03*
X027004Y018390D03*
X024444Y018390D03*
X020349Y018500D03*
X018599Y016750D03*
X018599Y015750D03*
X016349Y018500D03*
X015099Y018500D03*
X012099Y016750D03*
X012099Y015750D03*
X011099Y013500D03*
X011099Y012500D03*
X007099Y012500D03*
X007099Y013500D03*
X011099Y018500D03*
X006512Y018691D03*
X006512Y019675D03*
X006512Y020659D03*
X017599Y011000D03*
X017599Y010000D03*
X020849Y007000D03*
X015099Y006500D03*
X015099Y005500D03*
X013349Y005500D03*
X012349Y005500D03*
X012349Y001500D03*
X013349Y001500D03*
X020849Y003000D03*
D15*
X002615Y019675D03*
D16*
X004668Y010469D03*
X004668Y009484D03*
X002699Y008500D03*
X004668Y007516D03*
X004668Y006531D03*
X004668Y005469D03*
X004668Y004484D03*
X002699Y003500D03*
X004668Y002516D03*
X004668Y001531D03*
D17*
X013349Y007740D02*
X013349Y008260D01*
X014349Y008260D02*
X014349Y007740D01*
X015349Y007740D02*
X015349Y008260D01*
X016349Y008260D02*
X016349Y007740D01*
X016349Y006760D02*
X016349Y006240D01*
X017349Y006240D02*
X017349Y006760D01*
X018349Y006760D02*
X018349Y006240D01*
X019349Y006240D02*
X019349Y006760D01*
X021849Y007740D02*
X021849Y008260D01*
X022849Y008260D02*
X022849Y007740D01*
X023849Y007740D02*
X023849Y008260D01*
X024849Y008260D02*
X024849Y007740D01*
X024849Y010740D02*
X024849Y011260D01*
X023849Y011260D02*
X023849Y010740D01*
X022849Y010740D02*
X022849Y011260D01*
X021849Y011260D02*
X021849Y010740D01*
X021849Y013490D02*
X021849Y014010D01*
X020849Y014010D02*
X020849Y013490D01*
X019849Y013490D02*
X019849Y014010D01*
X022849Y014010D02*
X022849Y013490D01*
X022849Y016490D02*
X022849Y017010D01*
X021849Y017010D02*
X021849Y016490D01*
X020849Y016490D02*
X020849Y017010D01*
X019849Y017010D02*
X019849Y016490D01*
X016349Y016490D02*
X016349Y017010D01*
X015349Y017010D02*
X015349Y016490D01*
X014349Y016490D02*
X014349Y017010D01*
X013349Y017010D02*
X013349Y016490D01*
X013349Y014010D02*
X013349Y013490D01*
X014349Y013490D02*
X014349Y014010D01*
X015349Y014010D02*
X015349Y013490D01*
X016349Y013490D02*
X016349Y014010D01*
X016349Y011260D02*
X016349Y010740D01*
X015349Y010740D02*
X015349Y011260D01*
X014349Y011260D02*
X014349Y010740D01*
X013349Y010740D02*
X013349Y011260D01*
X016349Y003760D02*
X016349Y003240D01*
X017349Y003240D02*
X017349Y003760D01*
X018349Y003760D02*
X018349Y003240D01*
X019349Y003240D02*
X019349Y003760D01*
D18*
X024349Y005500D03*
X020224Y010000D03*
X010349Y010000D03*
X004849Y011750D03*
X003849Y011750D03*
X002849Y011750D03*
X002849Y012750D03*
X003849Y012750D03*
X004849Y012750D03*
D19*
X009349Y010000D03*
X020224Y011000D03*
X023349Y005500D03*
D20*
X010099Y014500D03*
X008099Y014500D03*
D21*
X010349Y007000D03*
D22*
X009349Y007000D03*
D23*
X009828Y006771D02*
X010130Y006470D01*
X010569Y006470D01*
X010879Y006780D01*
X010879Y007220D01*
X010569Y007530D01*
X010130Y007530D01*
X009828Y007229D01*
X009798Y007300D01*
X009649Y007449D01*
X009454Y007530D01*
X009244Y007530D01*
X009049Y007449D01*
X008900Y007300D01*
X008819Y007105D01*
X008819Y006895D01*
X008900Y006700D01*
X009049Y006551D01*
X009139Y006513D01*
X009139Y006413D01*
X009262Y006290D01*
X009762Y005790D01*
X010936Y005790D01*
X011059Y005913D01*
X012186Y007040D01*
X016007Y007040D01*
X015976Y007009D01*
X015909Y006848D01*
X015909Y006152D01*
X015976Y005991D01*
X016100Y005867D01*
X016262Y005800D01*
X016437Y005800D01*
X016598Y005867D01*
X016722Y005991D01*
X016789Y006152D01*
X016789Y006848D01*
X016722Y007009D01*
X016691Y007040D01*
X017007Y007040D01*
X016976Y007009D01*
X016909Y006848D01*
X016909Y006152D01*
X016976Y005991D01*
X017100Y005867D01*
X017262Y005800D01*
X017437Y005800D01*
X017598Y005867D01*
X017722Y005991D01*
X017789Y006152D01*
X017789Y006290D01*
X017909Y006290D01*
X017909Y006152D01*
X017976Y005991D01*
X018100Y005867D01*
X018262Y005800D01*
X018437Y005800D01*
X018598Y005867D01*
X018722Y005991D01*
X018789Y006152D01*
X018789Y006848D01*
X018722Y007009D01*
X018598Y007133D01*
X018437Y007200D01*
X018262Y007200D01*
X018100Y007133D01*
X017976Y007009D01*
X017909Y006848D01*
X017909Y006710D01*
X017789Y006710D01*
X017789Y006848D01*
X017722Y007009D01*
X017598Y007133D01*
X017453Y007193D01*
X017436Y007210D01*
X017186Y007460D01*
X016691Y007460D01*
X016722Y007491D01*
X016789Y007652D01*
X016789Y008348D01*
X016722Y008509D01*
X016598Y008633D01*
X016437Y008700D01*
X016262Y008700D01*
X016100Y008633D01*
X015976Y008509D01*
X015909Y008348D01*
X015909Y007652D01*
X015976Y007491D01*
X016007Y007460D01*
X015649Y007460D01*
X015662Y007473D01*
X015700Y007525D01*
X015729Y007583D01*
X015749Y007644D01*
X015759Y007708D01*
X015759Y007970D01*
X015379Y007970D01*
X015379Y008030D01*
X015319Y008030D01*
X015319Y007970D01*
X014939Y007970D01*
X014939Y007708D01*
X014949Y007644D01*
X014969Y007583D01*
X014998Y007525D01*
X015036Y007473D01*
X015049Y007460D01*
X014691Y007460D01*
X014722Y007491D01*
X014789Y007652D01*
X014789Y008348D01*
X014722Y008509D01*
X014598Y008633D01*
X014437Y008700D01*
X014262Y008700D01*
X014100Y008633D01*
X013976Y008509D01*
X013909Y008348D01*
X013909Y007652D01*
X013976Y007491D01*
X014007Y007460D01*
X013649Y007460D01*
X013662Y007473D01*
X013700Y007525D01*
X013729Y007583D01*
X013749Y007644D01*
X013759Y007708D01*
X013759Y007970D01*
X013379Y007970D01*
X013379Y008030D01*
X013319Y008030D01*
X013319Y007970D01*
X012939Y007970D01*
X012939Y007708D01*
X012949Y007644D01*
X012969Y007583D01*
X012998Y007525D01*
X013036Y007473D01*
X013049Y007460D01*
X012012Y007460D01*
X010762Y006210D01*
X009936Y006210D01*
X009611Y006535D01*
X009649Y006551D01*
X009798Y006700D01*
X009828Y006771D01*
X009801Y006706D02*
X009894Y006706D01*
X009993Y006607D02*
X009706Y006607D01*
X009638Y006509D02*
X010091Y006509D01*
X009835Y006312D02*
X010864Y006312D01*
X010962Y006410D02*
X009736Y006410D01*
X009933Y006213D02*
X010765Y006213D01*
X010607Y006509D02*
X011061Y006509D01*
X011159Y006607D02*
X010706Y006607D01*
X010804Y006706D02*
X011258Y006706D01*
X011356Y006804D02*
X010879Y006804D01*
X010879Y006903D02*
X011455Y006903D01*
X011553Y007001D02*
X010879Y007001D01*
X010879Y007100D02*
X011652Y007100D01*
X011750Y007198D02*
X010879Y007198D01*
X010802Y007297D02*
X011849Y007297D01*
X011947Y007395D02*
X010704Y007395D01*
X010605Y007494D02*
X013021Y007494D01*
X012966Y007592D02*
X008309Y007592D01*
X008309Y007494D02*
X009156Y007494D01*
X008995Y007395D02*
X008309Y007395D01*
X008309Y007297D02*
X008898Y007297D01*
X008857Y007198D02*
X008309Y007198D01*
X008309Y007100D02*
X008819Y007100D01*
X008819Y007001D02*
X008309Y007001D01*
X008309Y006903D02*
X008819Y006903D01*
X008857Y006804D02*
X008342Y006804D01*
X008309Y006837D02*
X008309Y009587D01*
X005684Y012212D01*
X005684Y013337D01*
X005434Y013587D01*
X005311Y013710D01*
X004262Y013710D01*
X004139Y013587D01*
X004139Y013587D01*
X003797Y013245D01*
X003644Y013245D01*
X003354Y012955D01*
X003354Y012545D01*
X003644Y012255D01*
X004054Y012255D01*
X004344Y012545D01*
X004344Y012955D01*
X004223Y013077D01*
X004436Y013290D01*
X005137Y013290D01*
X005264Y013163D01*
X005264Y013035D01*
X005054Y013245D01*
X004644Y013245D01*
X004354Y012955D01*
X004354Y012545D01*
X004644Y012255D01*
X005054Y012255D01*
X005264Y012465D01*
X005264Y012038D01*
X005387Y011915D01*
X007889Y009413D01*
X007889Y006663D01*
X009639Y004913D01*
X009762Y004790D01*
X011936Y004790D01*
X012137Y004991D01*
X012138Y004990D01*
X012560Y004990D01*
X012849Y005279D01*
X013138Y004990D01*
X013560Y004990D01*
X013859Y005289D01*
X013859Y005711D01*
X013560Y006010D01*
X013138Y006010D01*
X012849Y005721D01*
X012560Y006010D01*
X012138Y006010D01*
X011839Y005711D01*
X011839Y005289D01*
X011840Y005288D01*
X011762Y005210D01*
X009936Y005210D01*
X008309Y006837D01*
X008441Y006706D02*
X008897Y006706D01*
X008993Y006607D02*
X008539Y006607D01*
X008638Y006509D02*
X009139Y006509D01*
X009142Y006410D02*
X008736Y006410D01*
X008835Y006312D02*
X009241Y006312D01*
X009339Y006213D02*
X008933Y006213D01*
X009032Y006115D02*
X009438Y006115D01*
X009536Y006016D02*
X009130Y006016D01*
X009229Y005918D02*
X009635Y005918D01*
X009733Y005819D02*
X009327Y005819D01*
X009426Y005721D02*
X011848Y005721D01*
X011839Y005622D02*
X009524Y005622D01*
X009623Y005524D02*
X011839Y005524D01*
X011839Y005425D02*
X009721Y005425D01*
X009820Y005327D02*
X011839Y005327D01*
X011780Y005228D02*
X009918Y005228D01*
X009620Y004933D02*
X007569Y004933D01*
X007536Y004966D02*
X007333Y005050D01*
X007115Y005050D01*
X006913Y004966D01*
X006758Y004812D01*
X006709Y004694D01*
X005187Y004694D01*
X005142Y004801D01*
X004985Y004959D01*
X004943Y004976D01*
X004985Y004994D01*
X005142Y005151D01*
X005228Y005357D01*
X005228Y005580D01*
X005142Y005786D01*
X004985Y005943D01*
X004848Y006000D01*
X004985Y006057D01*
X005142Y006214D01*
X005228Y006420D01*
X005228Y006643D01*
X005142Y006849D01*
X004985Y007006D01*
X004943Y007024D01*
X004985Y007041D01*
X005142Y007199D01*
X005187Y007306D01*
X005827Y007306D01*
X006764Y008243D01*
X006742Y008200D01*
X006717Y008122D01*
X006705Y008050D01*
X007174Y008050D01*
X007174Y007950D01*
X006705Y007950D01*
X006717Y007878D01*
X006742Y007800D01*
X006779Y007727D01*
X006827Y007661D01*
X006885Y007603D01*
X006952Y007555D01*
X007024Y007518D01*
X007102Y007493D01*
X007174Y007481D01*
X007174Y007950D01*
X007274Y007950D01*
X007274Y007481D01*
X007346Y007493D01*
X007424Y007518D01*
X007497Y007555D01*
X007563Y007603D01*
X007621Y007661D01*
X007669Y007727D01*
X007706Y007800D01*
X007731Y007878D01*
X007743Y007950D01*
X007274Y007950D01*
X007274Y008050D01*
X007743Y008050D01*
X007731Y008122D01*
X007706Y008200D01*
X007669Y008273D01*
X007621Y008339D01*
X007563Y008397D01*
X007497Y008445D01*
X007424Y008482D01*
X007416Y008484D01*
X007536Y008534D01*
X007690Y008688D01*
X007774Y008891D01*
X007774Y009109D01*
X007690Y009312D01*
X007536Y009466D01*
X007333Y009550D01*
X007115Y009550D01*
X007013Y009508D01*
X006827Y009694D01*
X005187Y009694D01*
X005142Y009801D01*
X004985Y009959D01*
X004943Y009976D01*
X004985Y009994D01*
X005142Y010151D01*
X005228Y010357D01*
X005228Y010580D01*
X005142Y010786D01*
X004985Y010943D01*
X004779Y011029D01*
X004556Y011029D01*
X004350Y010943D01*
X004277Y010869D01*
X004059Y011087D01*
X004059Y011260D01*
X004344Y011545D01*
X004344Y011955D01*
X004054Y012245D01*
X003644Y012245D01*
X003354Y011955D01*
X003354Y011545D01*
X003639Y011260D01*
X003639Y010913D01*
X004108Y010445D01*
X004108Y010357D01*
X004193Y010151D01*
X004350Y009994D01*
X004392Y009976D01*
X004350Y009959D01*
X004193Y009801D01*
X004108Y009596D01*
X004108Y009373D01*
X004193Y009167D01*
X004293Y009066D01*
X004290Y009065D01*
X004102Y008878D01*
X004001Y008633D01*
X004001Y008367D01*
X004102Y008122D01*
X004290Y007935D01*
X004293Y007934D01*
X004193Y007833D01*
X004108Y007627D01*
X004108Y007404D01*
X004193Y007199D01*
X004350Y007041D01*
X004392Y007024D01*
X004350Y007006D01*
X004193Y006849D01*
X004108Y006643D01*
X004108Y006420D01*
X004193Y006214D01*
X004350Y006057D01*
X004487Y006000D01*
X004350Y005943D01*
X004193Y005786D01*
X004108Y005580D01*
X004108Y005357D01*
X004193Y005151D01*
X004350Y004994D01*
X004392Y004976D01*
X004350Y004959D01*
X004193Y004801D01*
X004108Y004596D01*
X004108Y004373D01*
X004193Y004167D01*
X004293Y004066D01*
X004290Y004065D01*
X004102Y003878D01*
X004001Y003633D01*
X004001Y003367D01*
X004102Y003122D01*
X004290Y002935D01*
X004293Y002934D01*
X004193Y002833D01*
X004108Y002627D01*
X004108Y002404D01*
X004193Y002199D01*
X004350Y002041D01*
X004392Y002024D01*
X004350Y002006D01*
X004193Y001849D01*
X004108Y001643D01*
X004108Y001420D01*
X004193Y001214D01*
X004350Y001057D01*
X004463Y001010D01*
X003120Y001010D01*
X003264Y001154D01*
X003366Y001399D01*
X003366Y001664D01*
X003264Y001909D01*
X003077Y002097D01*
X002832Y002198D01*
X002566Y002198D01*
X002359Y002112D01*
X002359Y003092D01*
X002421Y003047D01*
X002496Y003009D01*
X002575Y002983D01*
X002649Y002971D01*
X002649Y003450D01*
X002749Y003450D01*
X002749Y002971D01*
X002823Y002983D01*
X002903Y003009D01*
X002977Y003047D01*
X003044Y003096D01*
X003103Y003155D01*
X003152Y003222D01*
X003190Y003297D01*
X003216Y003376D01*
X003228Y003450D01*
X002749Y003450D01*
X002749Y003550D01*
X002649Y003550D01*
X002649Y004029D01*
X002575Y004017D01*
X002496Y003991D01*
X002421Y003953D01*
X002359Y003908D01*
X002359Y004888D01*
X002566Y004802D01*
X002832Y004802D01*
X003077Y004903D01*
X003264Y005091D01*
X003366Y005336D01*
X003366Y005601D01*
X003264Y005846D01*
X003110Y006000D01*
X003264Y006154D01*
X003366Y006399D01*
X003366Y006664D01*
X003264Y006909D01*
X003077Y007097D01*
X002832Y007198D01*
X004193Y007198D01*
X004152Y007297D02*
X002359Y007297D01*
X002359Y007395D02*
X004111Y007395D01*
X004108Y007494D02*
X002359Y007494D01*
X002359Y007592D02*
X004108Y007592D01*
X004134Y007691D02*
X002359Y007691D01*
X002359Y007789D02*
X004175Y007789D01*
X004247Y007888D02*
X002359Y007888D01*
X002359Y007986D02*
X002566Y007986D01*
X002575Y007983D02*
X002649Y007971D01*
X002649Y008450D01*
X002749Y008450D01*
X002749Y007971D01*
X002823Y007983D01*
X002903Y008009D01*
X002977Y008047D01*
X003044Y008096D01*
X003103Y008155D01*
X003152Y008222D01*
X003190Y008297D01*
X003216Y008376D01*
X003228Y008450D01*
X002749Y008450D01*
X002749Y008550D01*
X002649Y008550D01*
X002649Y009029D01*
X002575Y009017D01*
X002496Y008991D01*
X002421Y008953D01*
X002359Y008908D01*
X002359Y009888D01*
X002566Y009802D01*
X002832Y009802D01*
X003077Y009903D01*
X003264Y010091D01*
X003366Y010336D01*
X003366Y010601D01*
X003264Y010846D01*
X003077Y011034D01*
X002832Y011135D01*
X002566Y011135D01*
X002359Y011049D01*
X002359Y011540D01*
X002644Y011255D01*
X003054Y011255D01*
X003344Y011545D01*
X003344Y011955D01*
X003054Y012245D01*
X002644Y012245D01*
X002359Y011960D01*
X002359Y012540D01*
X002644Y012255D01*
X003054Y012255D01*
X003344Y012545D01*
X003344Y012955D01*
X003223Y013077D01*
X003936Y013790D01*
X005762Y013790D01*
X006139Y013413D01*
X006139Y012163D01*
X006639Y011663D01*
X006762Y011540D01*
X007262Y011540D01*
X008264Y010538D01*
X008264Y009663D01*
X008764Y009163D01*
X008887Y009040D01*
X010186Y009040D01*
X010559Y009413D01*
X010559Y009510D01*
X010844Y009795D01*
X010844Y010205D01*
X010554Y010495D01*
X010144Y010495D01*
X009854Y010205D01*
X009854Y009795D01*
X010101Y009548D01*
X010012Y009460D01*
X009061Y009460D01*
X008684Y009837D01*
X008684Y010712D01*
X008561Y010835D01*
X007436Y011960D01*
X006936Y011960D01*
X006906Y011990D01*
X007310Y011990D01*
X007609Y012289D01*
X007609Y012290D01*
X007762Y012290D01*
X009139Y010913D01*
X009139Y010449D01*
X009069Y010420D01*
X008929Y010280D01*
X008854Y010098D01*
X008854Y009902D01*
X008929Y009720D01*
X009069Y009580D01*
X009251Y009505D01*
X009448Y009505D01*
X009629Y009580D01*
X009769Y009720D01*
X009844Y009902D01*
X009844Y010098D01*
X009769Y010280D01*
X009629Y010420D01*
X009559Y010449D01*
X009559Y011087D01*
X008059Y012587D01*
X007936Y012710D01*
X007609Y012710D01*
X007609Y012711D01*
X007320Y013000D01*
X007609Y013289D01*
X007609Y013711D01*
X007608Y013712D01*
X007956Y014060D01*
X008281Y014060D01*
X008539Y014318D01*
X008539Y014682D01*
X008281Y014940D01*
X007917Y014940D01*
X007659Y014682D01*
X007659Y014357D01*
X007311Y014009D01*
X007310Y014010D01*
X006888Y014010D01*
X006589Y013711D01*
X006589Y013289D01*
X006878Y013000D01*
X006589Y012711D01*
X006589Y012307D01*
X006559Y012337D01*
X006559Y013587D01*
X005936Y014210D01*
X003762Y014210D01*
X003639Y014087D01*
X002797Y013245D01*
X002644Y013245D01*
X002359Y012960D01*
X002359Y019280D01*
X002424Y019215D01*
X002359Y019215D01*
X002424Y019215D02*
X002805Y019215D01*
X003075Y019484D01*
X003075Y019866D01*
X002805Y020135D01*
X002424Y020135D01*
X002359Y020070D01*
X002359Y020789D01*
X002560Y020990D01*
X006122Y020990D01*
X006002Y020870D01*
X006002Y020448D01*
X006283Y020167D01*
X006002Y019886D01*
X006002Y019464D01*
X006301Y019165D01*
X006308Y019165D01*
X006032Y018890D01*
X006032Y018719D01*
X006484Y018719D01*
X006484Y018662D01*
X006541Y018662D01*
X006541Y018211D01*
X006711Y018211D01*
X006992Y018492D01*
X006992Y018662D01*
X006541Y018662D01*
X006541Y018719D01*
X006992Y018719D01*
X006992Y018890D01*
X006717Y019165D01*
X006724Y019165D01*
X007022Y019464D01*
X007022Y019886D01*
X006742Y020167D01*
X007022Y020448D01*
X007022Y020870D01*
X006903Y020990D01*
X007099Y020990D01*
X007099Y018500D01*
X011599Y014000D01*
X011599Y013721D01*
X011310Y014010D01*
X010888Y014010D01*
X010589Y013711D01*
X010589Y013289D01*
X010888Y012990D01*
X011310Y012990D01*
X011599Y013279D01*
X011599Y010470D01*
X011942Y010124D01*
X012296Y010124D01*
X013349Y010125D01*
X017119Y010125D01*
X017119Y010030D01*
X017569Y010030D01*
X017569Y009970D01*
X017119Y009970D01*
X017119Y009801D01*
X017400Y009520D01*
X017569Y009520D01*
X017569Y009970D01*
X017629Y009970D01*
X017629Y009520D01*
X017798Y009520D01*
X018079Y009801D01*
X018079Y009970D01*
X017629Y009970D01*
X017629Y010030D01*
X018079Y010030D01*
X018079Y010125D01*
X019759Y010125D01*
X019759Y010030D01*
X020194Y010030D01*
X020194Y009970D01*
X019759Y009970D01*
X019759Y009807D01*
X020031Y009535D01*
X020194Y009535D01*
X020194Y009970D01*
X020254Y009970D01*
X020254Y009535D01*
X020417Y009535D01*
X020689Y009807D01*
X020689Y009970D01*
X020254Y009970D01*
X020254Y010030D01*
X020689Y010030D01*
X020689Y010125D01*
X025474Y010125D01*
X026649Y008950D01*
X028339Y008950D01*
X028339Y004754D01*
X028315Y004812D01*
X028161Y004966D01*
X027958Y005050D01*
X027740Y005050D01*
X027538Y004966D01*
X027383Y004812D01*
X027299Y004609D01*
X027299Y004391D01*
X027383Y004188D01*
X027538Y004034D01*
X027740Y003950D01*
X027958Y003950D01*
X028161Y004034D01*
X028315Y004188D01*
X028339Y004246D01*
X028339Y002711D01*
X027560Y001932D01*
X027417Y001789D01*
X027371Y001678D01*
X027315Y001812D01*
X027161Y001966D01*
X026958Y002050D01*
X026740Y002050D01*
X026538Y001966D01*
X026383Y001812D01*
X026349Y001730D01*
X026315Y001812D01*
X026161Y001966D01*
X025958Y002050D01*
X025740Y002050D01*
X025538Y001966D01*
X025383Y001812D01*
X025349Y001730D01*
X025315Y001812D01*
X025161Y001966D01*
X024958Y002050D01*
X024740Y002050D01*
X024538Y001966D01*
X024383Y001812D01*
X024349Y001730D01*
X024315Y001812D01*
X024161Y001966D01*
X023958Y002050D01*
X023740Y002050D01*
X023538Y001966D01*
X023383Y001812D01*
X023349Y001730D01*
X023315Y001812D01*
X023161Y001966D01*
X022958Y002050D01*
X022740Y002050D01*
X022538Y001966D01*
X022383Y001812D01*
X022349Y001730D01*
X022315Y001812D01*
X022161Y001966D01*
X021958Y002050D01*
X021740Y002050D01*
X021538Y001966D01*
X021383Y001812D01*
X021299Y001609D01*
X021299Y001391D01*
X021383Y001188D01*
X021538Y001034D01*
X021595Y001010D01*
X020103Y001010D01*
X020161Y001034D01*
X020315Y001188D01*
X020399Y001391D01*
X020399Y001609D01*
X020315Y001812D01*
X020161Y001966D01*
X019958Y002050D01*
X019740Y002050D01*
X019538Y001966D01*
X019383Y001812D01*
X019333Y001692D01*
X019331Y001700D01*
X019294Y001773D01*
X019246Y001839D01*
X019188Y001897D01*
X019122Y001945D01*
X019049Y001982D01*
X018971Y002007D01*
X018899Y002019D01*
X018899Y001550D01*
X018799Y001550D01*
X018799Y001450D01*
X018330Y001450D01*
X017899Y001450D01*
X017899Y001550D01*
X017799Y001550D01*
X017799Y002019D01*
X017727Y002007D01*
X017649Y001982D01*
X017577Y001945D01*
X017510Y001897D01*
X017452Y001839D01*
X017404Y001773D01*
X017367Y001700D01*
X017365Y001692D01*
X017315Y001812D01*
X017161Y001966D01*
X016958Y002050D01*
X016740Y002050D01*
X016538Y001966D01*
X016383Y001812D01*
X016349Y001730D01*
X016315Y001812D01*
X016161Y001966D01*
X015958Y002050D01*
X015740Y002050D01*
X015538Y001966D01*
X015383Y001812D01*
X015349Y001730D01*
X015315Y001812D01*
X015161Y001966D01*
X014958Y002050D01*
X014740Y002050D01*
X014538Y001966D01*
X014383Y001812D01*
X014299Y001609D01*
X014299Y001391D01*
X014383Y001188D01*
X014538Y001034D01*
X014595Y001010D01*
X013580Y001010D01*
X013859Y001289D01*
X013859Y001711D01*
X013560Y002010D01*
X013138Y002010D01*
X012849Y001721D01*
X012560Y002010D01*
X012138Y002010D01*
X011839Y001711D01*
X011839Y001289D01*
X012118Y001010D01*
X004872Y001010D01*
X004985Y001057D01*
X005142Y001214D01*
X005228Y001420D01*
X005228Y001643D01*
X005142Y001849D01*
X004985Y002006D01*
X004943Y002024D01*
X004985Y002041D01*
X005142Y002199D01*
X005187Y002306D01*
X005952Y002306D01*
X006796Y003150D01*
X006913Y003034D01*
X007032Y002984D01*
X007024Y002982D01*
X006952Y002945D01*
X006885Y002897D01*
X006827Y002839D01*
X006779Y002773D01*
X006742Y002700D01*
X006717Y002622D01*
X006705Y002550D01*
X007174Y002550D01*
X007174Y002450D01*
X006705Y002450D01*
X006717Y002378D01*
X006742Y002300D01*
X006779Y002227D01*
X006827Y002161D01*
X006885Y002103D01*
X006952Y002055D01*
X007024Y002018D01*
X007102Y001993D01*
X007174Y001981D01*
X007174Y002450D01*
X007274Y002450D01*
X007274Y001981D01*
X007346Y001993D01*
X007424Y002018D01*
X007497Y002055D01*
X007563Y002103D01*
X007621Y002161D01*
X007669Y002227D01*
X007706Y002300D01*
X007731Y002378D01*
X007743Y002450D01*
X007274Y002450D01*
X007274Y002550D01*
X007743Y002550D01*
X007731Y002622D01*
X007706Y002700D01*
X007669Y002773D01*
X007621Y002839D01*
X007563Y002897D01*
X007497Y002945D01*
X007424Y002982D01*
X007416Y002984D01*
X007536Y003034D01*
X007690Y003188D01*
X007774Y003391D01*
X007774Y003609D01*
X007690Y003812D01*
X007536Y003966D01*
X007454Y004000D01*
X007536Y004034D01*
X007690Y004188D01*
X007774Y004391D01*
X007774Y004609D01*
X007690Y004812D01*
X007536Y004966D01*
X007379Y005031D02*
X009521Y005031D01*
X009423Y005130D02*
X005121Y005130D01*
X005174Y005228D02*
X009324Y005228D01*
X009226Y005327D02*
X005215Y005327D01*
X005228Y005425D02*
X009127Y005425D01*
X009029Y005524D02*
X005228Y005524D01*
X005210Y005622D02*
X008930Y005622D01*
X008832Y005721D02*
X005169Y005721D01*
X005109Y005819D02*
X008733Y005819D01*
X008635Y005918D02*
X005011Y005918D01*
X004886Y006016D02*
X008536Y006016D01*
X008438Y006115D02*
X005043Y006115D01*
X005141Y006213D02*
X008339Y006213D01*
X008241Y006312D02*
X005183Y006312D01*
X005223Y006410D02*
X008142Y006410D01*
X008044Y006509D02*
X005228Y006509D01*
X005228Y006607D02*
X007945Y006607D01*
X007889Y006706D02*
X005202Y006706D01*
X005161Y006804D02*
X007889Y006804D01*
X007889Y006903D02*
X005088Y006903D01*
X004990Y007001D02*
X007889Y007001D01*
X007889Y007100D02*
X005043Y007100D01*
X005142Y007198D02*
X007889Y007198D01*
X007889Y007297D02*
X005183Y007297D01*
X005916Y007395D02*
X007889Y007395D01*
X007889Y007494D02*
X007348Y007494D01*
X007274Y007494D02*
X007174Y007494D01*
X007100Y007494D02*
X006015Y007494D01*
X006113Y007592D02*
X006901Y007592D01*
X006806Y007691D02*
X006212Y007691D01*
X006310Y007789D02*
X006748Y007789D01*
X006715Y007888D02*
X006409Y007888D01*
X006507Y007986D02*
X007174Y007986D01*
X007174Y007888D02*
X007274Y007888D01*
X007274Y007986D02*
X007889Y007986D01*
X007889Y007888D02*
X007733Y007888D01*
X007700Y007789D02*
X007889Y007789D01*
X007889Y007691D02*
X007642Y007691D01*
X007547Y007592D02*
X007889Y007592D01*
X008309Y007691D02*
X012942Y007691D01*
X012939Y007789D02*
X008309Y007789D01*
X008309Y007888D02*
X012939Y007888D01*
X012939Y008030D02*
X013319Y008030D01*
X013319Y008670D01*
X013317Y008670D01*
X013253Y008660D01*
X013192Y008640D01*
X013134Y008611D01*
X013082Y008573D01*
X013036Y008527D01*
X012998Y008475D01*
X012969Y008417D01*
X012949Y008356D01*
X012939Y008292D01*
X012939Y008030D01*
X012939Y008085D02*
X008309Y008085D01*
X008309Y008183D02*
X012939Y008183D01*
X012939Y008282D02*
X008309Y008282D01*
X008309Y008380D02*
X012957Y008380D01*
X013001Y008479D02*
X008309Y008479D01*
X008309Y008577D02*
X013088Y008577D01*
X013319Y008577D02*
X013379Y008577D01*
X013379Y008670D02*
X013379Y008030D01*
X013759Y008030D01*
X013759Y008292D01*
X013749Y008356D01*
X013729Y008417D01*
X013700Y008475D01*
X013662Y008527D01*
X013616Y008573D01*
X013564Y008611D01*
X013506Y008640D01*
X013445Y008660D01*
X013381Y008670D01*
X013379Y008670D01*
X013379Y008479D02*
X013319Y008479D01*
X013319Y008380D02*
X013379Y008380D01*
X013379Y008282D02*
X013319Y008282D01*
X013319Y008183D02*
X013379Y008183D01*
X013379Y008085D02*
X013319Y008085D01*
X013319Y007986D02*
X008309Y007986D01*
X007889Y008085D02*
X007737Y008085D01*
X007711Y008183D02*
X007889Y008183D01*
X007889Y008282D02*
X007662Y008282D01*
X007579Y008380D02*
X007889Y008380D01*
X007889Y008479D02*
X007430Y008479D01*
X007579Y008577D02*
X007889Y008577D01*
X007889Y008676D02*
X007677Y008676D01*
X007726Y008774D02*
X007889Y008774D01*
X007889Y008873D02*
X007767Y008873D01*
X007774Y008971D02*
X007889Y008971D01*
X007889Y009070D02*
X007774Y009070D01*
X007750Y009168D02*
X007889Y009168D01*
X007889Y009267D02*
X007709Y009267D01*
X007637Y009365D02*
X007889Y009365D01*
X007839Y009464D02*
X007538Y009464D01*
X007642Y009661D02*
X006861Y009661D01*
X006959Y009562D02*
X007740Y009562D01*
X007543Y009759D02*
X005160Y009759D01*
X005086Y009858D02*
X007445Y009858D01*
X007346Y009956D02*
X004988Y009956D01*
X005046Y010055D02*
X007248Y010055D01*
X007149Y010153D02*
X005143Y010153D01*
X005184Y010252D02*
X007051Y010252D01*
X006952Y010350D02*
X005225Y010350D01*
X005228Y010449D02*
X006854Y010449D01*
X006755Y010547D02*
X005228Y010547D01*
X005200Y010646D02*
X006657Y010646D01*
X006558Y010744D02*
X005160Y010744D01*
X005085Y010843D02*
X006460Y010843D01*
X006361Y010941D02*
X004987Y010941D01*
X005054Y011255D02*
X004644Y011255D01*
X004354Y011545D01*
X004354Y011955D01*
X004644Y012245D01*
X005054Y012245D01*
X005344Y011955D01*
X005344Y011545D01*
X005054Y011255D01*
X005134Y011335D02*
X005967Y011335D01*
X005869Y011434D02*
X005233Y011434D01*
X005331Y011532D02*
X005770Y011532D01*
X005672Y011631D02*
X005344Y011631D01*
X005344Y011729D02*
X005573Y011729D01*
X005475Y011828D02*
X005344Y011828D01*
X005344Y011926D02*
X005376Y011926D01*
X005278Y012025D02*
X005275Y012025D01*
X005264Y012123D02*
X005176Y012123D01*
X005264Y012222D02*
X005078Y012222D01*
X005119Y012320D02*
X005264Y012320D01*
X005264Y012419D02*
X005218Y012419D01*
X005684Y012419D02*
X006139Y012419D01*
X006139Y012517D02*
X005684Y012517D01*
X005684Y012616D02*
X006139Y012616D01*
X006139Y012714D02*
X005684Y012714D01*
X005684Y012813D02*
X006139Y012813D01*
X006139Y012911D02*
X005684Y012911D01*
X005684Y013010D02*
X006139Y013010D01*
X006139Y013108D02*
X005684Y013108D01*
X005684Y013207D02*
X006139Y013207D01*
X006139Y013305D02*
X005684Y013305D01*
X005618Y013404D02*
X006139Y013404D01*
X006050Y013502D02*
X005519Y013502D01*
X005421Y013601D02*
X005952Y013601D01*
X005853Y013699D02*
X005322Y013699D01*
X005955Y014192D02*
X007494Y014192D01*
X007592Y014290D02*
X002359Y014290D01*
X002359Y014192D02*
X003744Y014192D01*
X003645Y014093D02*
X002359Y014093D01*
X002359Y013995D02*
X003547Y013995D01*
X003448Y013896D02*
X002359Y013896D01*
X002359Y013798D02*
X003350Y013798D01*
X003251Y013699D02*
X002359Y013699D01*
X002359Y013601D02*
X003153Y013601D01*
X003054Y013502D02*
X002359Y013502D01*
X002359Y013404D02*
X002956Y013404D01*
X002857Y013305D02*
X002359Y013305D01*
X002359Y013207D02*
X002606Y013207D01*
X002507Y013108D02*
X002359Y013108D01*
X002359Y013010D02*
X002409Y013010D01*
X002382Y012517D02*
X002359Y012517D01*
X002359Y012419D02*
X002480Y012419D01*
X002579Y012320D02*
X002359Y012320D01*
X002359Y012222D02*
X002621Y012222D01*
X002522Y012123D02*
X002359Y012123D01*
X002359Y012025D02*
X002424Y012025D01*
X002367Y011532D02*
X002359Y011532D01*
X002359Y011434D02*
X002465Y011434D01*
X002564Y011335D02*
X002359Y011335D01*
X002359Y011237D02*
X003639Y011237D01*
X003639Y011138D02*
X002359Y011138D01*
X003062Y011040D02*
X003639Y011040D01*
X003639Y010941D02*
X003169Y010941D01*
X003266Y010843D02*
X003710Y010843D01*
X003808Y010744D02*
X003306Y010744D01*
X003347Y010646D02*
X003907Y010646D01*
X004005Y010547D02*
X003366Y010547D01*
X003366Y010449D02*
X004104Y010449D01*
X004110Y010350D02*
X003366Y010350D01*
X003331Y010252D02*
X004151Y010252D01*
X004192Y010153D02*
X003290Y010153D01*
X003228Y010055D02*
X004290Y010055D01*
X004347Y009956D02*
X003129Y009956D01*
X002966Y009858D02*
X004249Y009858D01*
X004175Y009759D02*
X002359Y009759D01*
X002359Y009661D02*
X004134Y009661D01*
X004108Y009562D02*
X002359Y009562D01*
X002359Y009464D02*
X004108Y009464D01*
X004111Y009365D02*
X002359Y009365D01*
X002359Y009267D02*
X004152Y009267D01*
X004192Y009168D02*
X002359Y009168D01*
X002359Y009070D02*
X004290Y009070D01*
X004196Y008971D02*
X002942Y008971D01*
X002977Y008953D02*
X002903Y008991D01*
X002823Y009017D01*
X002749Y009029D01*
X002749Y008550D01*
X003228Y008550D01*
X003216Y008624D01*
X003190Y008703D01*
X003152Y008778D01*
X003103Y008845D01*
X003044Y008904D01*
X002977Y008953D01*
X003076Y008873D02*
X004100Y008873D01*
X004060Y008774D02*
X003154Y008774D01*
X003199Y008676D02*
X004019Y008676D01*
X004001Y008577D02*
X003223Y008577D01*
X003217Y008380D02*
X004001Y008380D01*
X004001Y008479D02*
X002749Y008479D01*
X002749Y008577D02*
X002649Y008577D01*
X002649Y008676D02*
X002749Y008676D01*
X002749Y008774D02*
X002649Y008774D01*
X002649Y008873D02*
X002749Y008873D01*
X002749Y008971D02*
X002649Y008971D01*
X002456Y008971D02*
X002359Y008971D01*
X002649Y008380D02*
X002749Y008380D01*
X002749Y008282D02*
X002649Y008282D01*
X002649Y008183D02*
X002749Y008183D01*
X002749Y008085D02*
X002649Y008085D01*
X002649Y007986D02*
X002749Y007986D01*
X002832Y007986D02*
X004239Y007986D01*
X004140Y008085D02*
X003029Y008085D01*
X003124Y008183D02*
X004077Y008183D01*
X004037Y008282D02*
X003183Y008282D01*
X002575Y007983D02*
X002496Y008009D01*
X002421Y008047D01*
X002359Y008092D01*
X002359Y007112D01*
X002566Y007198D01*
X002359Y007198D01*
X002566Y007198D02*
X002832Y007198D01*
X003069Y007100D02*
X004292Y007100D01*
X004345Y007001D02*
X003172Y007001D01*
X003267Y006903D02*
X004247Y006903D01*
X004174Y006804D02*
X003308Y006804D01*
X003348Y006706D02*
X004134Y006706D01*
X004108Y006607D02*
X003366Y006607D01*
X003366Y006509D02*
X004108Y006509D01*
X004112Y006410D02*
X003366Y006410D01*
X003329Y006312D02*
X004153Y006312D01*
X004194Y006213D02*
X003289Y006213D01*
X003225Y006115D02*
X004293Y006115D01*
X004449Y006016D02*
X003126Y006016D01*
X003193Y005918D02*
X004325Y005918D01*
X004226Y005819D02*
X003275Y005819D01*
X003316Y005721D02*
X004166Y005721D01*
X004125Y005622D02*
X003357Y005622D01*
X003366Y005524D02*
X004108Y005524D01*
X004108Y005425D02*
X003366Y005425D01*
X003362Y005327D02*
X004120Y005327D01*
X004161Y005228D02*
X003321Y005228D01*
X003280Y005130D02*
X004215Y005130D01*
X004313Y005031D02*
X003204Y005031D01*
X003106Y004933D02*
X004324Y004933D01*
X004225Y004834D02*
X002909Y004834D01*
X002489Y004834D02*
X002359Y004834D01*
X002359Y004736D02*
X004165Y004736D01*
X004125Y004637D02*
X002359Y004637D01*
X002359Y004539D02*
X004108Y004539D01*
X004108Y004440D02*
X002359Y004440D01*
X002359Y004342D02*
X004121Y004342D01*
X004161Y004243D02*
X002359Y004243D01*
X002359Y004145D02*
X004215Y004145D01*
X004271Y004046D02*
X002359Y004046D01*
X002359Y003948D02*
X002413Y003948D01*
X002649Y003948D02*
X002749Y003948D01*
X002749Y004029D02*
X002749Y003550D01*
X003228Y003550D01*
X003216Y003624D01*
X003190Y003703D01*
X003152Y003778D01*
X003103Y003845D01*
X003044Y003904D01*
X002977Y003953D01*
X002903Y003991D01*
X002823Y004017D01*
X002749Y004029D01*
X002749Y003849D02*
X002649Y003849D01*
X002649Y003751D02*
X002749Y003751D01*
X002749Y003652D02*
X002649Y003652D01*
X002649Y003554D02*
X002749Y003554D01*
X002749Y003455D02*
X004001Y003455D01*
X004001Y003554D02*
X003227Y003554D01*
X003207Y003652D02*
X004009Y003652D01*
X004050Y003751D02*
X003166Y003751D01*
X003100Y003849D02*
X004091Y003849D01*
X004172Y003948D02*
X002985Y003948D01*
X003210Y003357D02*
X004006Y003357D01*
X004046Y003258D02*
X003171Y003258D01*
X003107Y003160D02*
X004087Y003160D01*
X004164Y003061D02*
X002997Y003061D01*
X002749Y003061D02*
X002649Y003061D01*
X002649Y003160D02*
X002749Y003160D01*
X002749Y003258D02*
X002649Y003258D01*
X002649Y003357D02*
X002749Y003357D01*
X002402Y003061D02*
X002359Y003061D01*
X002359Y002963D02*
X004262Y002963D01*
X004224Y002864D02*
X002359Y002864D01*
X002359Y002766D02*
X004165Y002766D01*
X004124Y002667D02*
X002359Y002667D01*
X002359Y002569D02*
X004108Y002569D01*
X004108Y002470D02*
X002359Y002470D01*
X002359Y002372D02*
X004121Y002372D01*
X004162Y002273D02*
X002359Y002273D01*
X002359Y002175D02*
X002510Y002175D01*
X002888Y002175D02*
X004217Y002175D01*
X004315Y002076D02*
X003097Y002076D01*
X003196Y001978D02*
X004322Y001978D01*
X004223Y001879D02*
X003277Y001879D01*
X003317Y001781D02*
X004165Y001781D01*
X004124Y001682D02*
X003358Y001682D01*
X003366Y001584D02*
X004108Y001584D01*
X004108Y001485D02*
X003366Y001485D01*
X003360Y001387D02*
X004121Y001387D01*
X004162Y001288D02*
X003320Y001288D01*
X003279Y001190D02*
X004218Y001190D01*
X004316Y001091D02*
X003201Y001091D01*
X005019Y001091D02*
X012037Y001091D01*
X011938Y001190D02*
X005118Y001190D01*
X005173Y001288D02*
X011840Y001288D01*
X011839Y001387D02*
X005214Y001387D01*
X005228Y001485D02*
X011839Y001485D01*
X011839Y001584D02*
X005228Y001584D01*
X005211Y001682D02*
X011839Y001682D01*
X011908Y001781D02*
X005171Y001781D01*
X005112Y001879D02*
X012007Y001879D01*
X012105Y001978D02*
X005014Y001978D01*
X005020Y002076D02*
X006923Y002076D01*
X006818Y002175D02*
X005118Y002175D01*
X005173Y002273D02*
X006756Y002273D01*
X006719Y002372D02*
X006018Y002372D01*
X006116Y002470D02*
X007174Y002470D01*
X007174Y002372D02*
X007274Y002372D01*
X007274Y002470D02*
X016582Y002470D01*
X016484Y002569D02*
X007740Y002569D01*
X007717Y002667D02*
X016385Y002667D01*
X016287Y002766D02*
X007672Y002766D01*
X007595Y002864D02*
X016107Y002864D01*
X016100Y002867D02*
X016245Y002807D01*
X016262Y002790D01*
X016887Y002165D01*
X021811Y002165D01*
X021934Y002288D01*
X022436Y002790D01*
X022559Y002913D01*
X022559Y007408D01*
X022600Y007367D01*
X022745Y007307D01*
X022762Y007290D01*
X023139Y006913D01*
X023262Y006790D01*
X024762Y006790D01*
X025639Y005913D01*
X025639Y005008D01*
X025538Y004966D01*
X025383Y004812D01*
X025299Y004609D01*
X025299Y004391D01*
X025383Y004188D01*
X025538Y004034D01*
X025740Y003950D01*
X025958Y003950D01*
X026161Y004034D01*
X026315Y004188D01*
X026399Y004391D01*
X026399Y004609D01*
X026315Y004812D01*
X026161Y004966D01*
X026059Y005008D01*
X026059Y006087D01*
X025936Y006210D01*
X024936Y007210D01*
X023436Y007210D01*
X023189Y007457D01*
X023222Y007491D01*
X023289Y007652D01*
X023289Y008348D01*
X023222Y008509D01*
X023098Y008633D01*
X022937Y008700D01*
X022762Y008700D01*
X022600Y008633D01*
X022476Y008509D01*
X022409Y008348D01*
X022409Y007857D01*
X022289Y007737D01*
X022289Y008348D01*
X022222Y008509D01*
X022098Y008633D01*
X021937Y008700D01*
X021762Y008700D01*
X021600Y008633D01*
X021476Y008509D01*
X021409Y008348D01*
X021409Y007652D01*
X021476Y007491D01*
X021600Y007367D01*
X021762Y007300D01*
X021937Y007300D01*
X022098Y007367D01*
X022139Y007408D01*
X022139Y003087D01*
X021637Y002585D01*
X021155Y002585D01*
X021359Y002789D01*
X021359Y003211D01*
X021060Y003510D01*
X020638Y003510D01*
X020339Y003211D01*
X020339Y002960D01*
X019649Y002960D01*
X019662Y002973D01*
X019700Y003025D01*
X019729Y003083D01*
X019749Y003144D01*
X019759Y003208D01*
X019759Y003470D01*
X019379Y003470D01*
X019379Y003530D01*
X019319Y003530D01*
X019319Y003470D01*
X018939Y003470D01*
X018939Y003208D01*
X018949Y003144D01*
X018969Y003083D01*
X018998Y003025D01*
X019036Y002973D01*
X019049Y002960D01*
X018691Y002960D01*
X018722Y002991D01*
X018789Y003152D01*
X018789Y003848D01*
X018722Y004009D01*
X018598Y004133D01*
X018437Y004200D01*
X018262Y004200D01*
X018100Y004133D01*
X017976Y004009D01*
X017909Y003848D01*
X017909Y003152D01*
X017976Y002991D01*
X018007Y002960D01*
X017691Y002960D01*
X017722Y002991D01*
X017789Y003152D01*
X017789Y003848D01*
X017722Y004009D01*
X017598Y004133D01*
X017437Y004200D01*
X017262Y004200D01*
X017100Y004133D01*
X016976Y004009D01*
X016909Y003848D01*
X016909Y003152D01*
X016976Y002991D01*
X017100Y002867D01*
X017245Y002807D01*
X017262Y002790D01*
X017262Y002790D01*
X017389Y002663D01*
X017467Y002585D01*
X017061Y002585D01*
X016689Y002957D01*
X016722Y002991D01*
X016789Y003152D01*
X016789Y003848D01*
X016722Y004009D01*
X016598Y004133D01*
X016437Y004200D01*
X016262Y004200D01*
X016100Y004133D01*
X015976Y004009D01*
X015909Y003848D01*
X015909Y003152D01*
X015976Y002991D01*
X016100Y002867D01*
X016004Y002963D02*
X007462Y002963D01*
X007563Y003061D02*
X015947Y003061D01*
X015909Y003160D02*
X007661Y003160D01*
X007719Y003258D02*
X015909Y003258D01*
X015909Y003357D02*
X007760Y003357D01*
X007774Y003455D02*
X015909Y003455D01*
X015909Y003554D02*
X007774Y003554D01*
X007756Y003652D02*
X015909Y003652D01*
X015909Y003751D02*
X007716Y003751D01*
X007653Y003849D02*
X015910Y003849D01*
X015950Y003948D02*
X007554Y003948D01*
X007548Y004046D02*
X016013Y004046D01*
X016128Y004145D02*
X007646Y004145D01*
X007713Y004243D02*
X022139Y004243D01*
X022139Y004145D02*
X019492Y004145D01*
X019506Y004140D02*
X019445Y004160D01*
X019381Y004170D01*
X019379Y004170D01*
X019379Y003530D01*
X019759Y003530D01*
X019759Y003792D01*
X019749Y003856D01*
X019729Y003917D01*
X019700Y003975D01*
X019662Y004027D01*
X019616Y004073D01*
X019564Y004111D01*
X019506Y004140D01*
X019379Y004145D02*
X019319Y004145D01*
X019319Y004170D02*
X019317Y004170D01*
X019253Y004160D01*
X019192Y004140D01*
X019134Y004111D01*
X019082Y004073D01*
X019036Y004027D01*
X018998Y003975D01*
X018969Y003917D01*
X018949Y003856D01*
X018939Y003792D01*
X018939Y003530D01*
X019319Y003530D01*
X019319Y004170D01*
X019206Y004145D02*
X018571Y004145D01*
X018685Y004046D02*
X019055Y004046D01*
X018984Y003948D02*
X018748Y003948D01*
X018788Y003849D02*
X018948Y003849D01*
X018939Y003751D02*
X018789Y003751D01*
X018789Y003652D02*
X018939Y003652D01*
X018939Y003554D02*
X018789Y003554D01*
X018789Y003455D02*
X018939Y003455D01*
X018939Y003357D02*
X018789Y003357D01*
X018789Y003258D02*
X018939Y003258D01*
X018947Y003160D02*
X018789Y003160D01*
X018751Y003061D02*
X018980Y003061D01*
X019047Y002963D02*
X018694Y002963D01*
X018004Y002963D02*
X017694Y002963D01*
X017751Y003061D02*
X017947Y003061D01*
X017909Y003160D02*
X017789Y003160D01*
X017789Y003258D02*
X017909Y003258D01*
X017909Y003357D02*
X017789Y003357D01*
X017789Y003455D02*
X017909Y003455D01*
X017909Y003554D02*
X017789Y003554D01*
X017789Y003652D02*
X017909Y003652D01*
X017909Y003751D02*
X017789Y003751D01*
X017788Y003849D02*
X017910Y003849D01*
X017950Y003948D02*
X017748Y003948D01*
X017685Y004046D02*
X018013Y004046D01*
X018128Y004145D02*
X017571Y004145D01*
X017128Y004145D02*
X016571Y004145D01*
X016685Y004046D02*
X017013Y004046D01*
X016950Y003948D02*
X016748Y003948D01*
X016788Y003849D02*
X016910Y003849D01*
X016909Y003751D02*
X016789Y003751D01*
X016789Y003652D02*
X016909Y003652D01*
X016909Y003554D02*
X016789Y003554D01*
X016789Y003455D02*
X016909Y003455D01*
X016909Y003357D02*
X016789Y003357D01*
X016789Y003258D02*
X016909Y003258D01*
X016909Y003160D02*
X016789Y003160D01*
X016751Y003061D02*
X016947Y003061D01*
X017004Y002963D02*
X016694Y002963D01*
X016782Y002864D02*
X017107Y002864D01*
X017287Y002766D02*
X016881Y002766D01*
X016979Y002667D02*
X017385Y002667D01*
X017389Y002663D02*
X017389Y002663D01*
X016779Y002273D02*
X007692Y002273D01*
X007729Y002372D02*
X016681Y002372D01*
X016878Y002175D02*
X007630Y002175D01*
X007525Y002076D02*
X027704Y002076D01*
X027802Y002175D02*
X021821Y002175D01*
X021919Y002273D02*
X027901Y002273D01*
X027999Y002372D02*
X022018Y002372D01*
X022116Y002470D02*
X028098Y002470D01*
X028196Y002569D02*
X022215Y002569D01*
X022313Y002667D02*
X028295Y002667D01*
X028339Y002766D02*
X022412Y002766D01*
X022510Y002864D02*
X028339Y002864D01*
X028339Y002963D02*
X022559Y002963D01*
X022559Y003061D02*
X028339Y003061D01*
X028339Y003160D02*
X022559Y003160D01*
X022559Y003258D02*
X028339Y003258D01*
X028339Y003357D02*
X022559Y003357D01*
X022559Y003455D02*
X028339Y003455D01*
X028339Y003554D02*
X022559Y003554D01*
X022559Y003652D02*
X028339Y003652D01*
X028339Y003751D02*
X022559Y003751D01*
X022559Y003849D02*
X028339Y003849D01*
X028339Y003948D02*
X022559Y003948D01*
X022559Y004046D02*
X025525Y004046D01*
X025427Y004145D02*
X022559Y004145D01*
X022559Y004243D02*
X025360Y004243D01*
X025319Y004342D02*
X022559Y004342D01*
X022559Y004440D02*
X025299Y004440D01*
X025299Y004539D02*
X022559Y004539D01*
X022559Y004637D02*
X025310Y004637D01*
X025351Y004736D02*
X022559Y004736D01*
X022559Y004834D02*
X025405Y004834D01*
X025504Y004933D02*
X022559Y004933D01*
X022559Y005031D02*
X023188Y005031D01*
X023251Y005005D02*
X023448Y005005D01*
X023629Y005080D01*
X023769Y005220D01*
X023844Y005402D01*
X023844Y005598D01*
X023769Y005780D01*
X023629Y005920D01*
X023448Y005995D01*
X023251Y005995D01*
X023069Y005920D01*
X022929Y005780D01*
X022854Y005598D01*
X022854Y005402D01*
X022929Y005220D01*
X023069Y005080D01*
X023251Y005005D01*
X023510Y005031D02*
X025639Y005031D01*
X025639Y005130D02*
X024636Y005130D01*
X024542Y005035D02*
X024379Y005035D01*
X024379Y005470D01*
X024319Y005470D01*
X023884Y005470D01*
X023884Y005307D01*
X024156Y005035D01*
X024319Y005035D01*
X024319Y005470D01*
X024319Y005530D01*
X023884Y005530D01*
X023884Y005693D01*
X024156Y005965D01*
X024319Y005965D01*
X024319Y005530D01*
X024379Y005530D01*
X024379Y005965D01*
X024542Y005965D01*
X024814Y005693D01*
X024814Y005530D01*
X024379Y005530D01*
X024379Y005470D01*
X024814Y005470D01*
X024814Y005307D01*
X024542Y005035D01*
X024379Y005130D02*
X024319Y005130D01*
X024319Y005228D02*
X024379Y005228D01*
X024379Y005327D02*
X024319Y005327D01*
X024319Y005425D02*
X024379Y005425D01*
X024379Y005524D02*
X025639Y005524D01*
X025639Y005622D02*
X024814Y005622D01*
X024786Y005721D02*
X025639Y005721D01*
X025639Y005819D02*
X024688Y005819D01*
X024589Y005918D02*
X025635Y005918D01*
X025536Y006016D02*
X022559Y006016D01*
X022559Y005918D02*
X023067Y005918D01*
X022968Y005819D02*
X022559Y005819D01*
X022559Y005721D02*
X022905Y005721D01*
X022864Y005622D02*
X022559Y005622D01*
X022559Y005524D02*
X022854Y005524D01*
X022854Y005425D02*
X022559Y005425D01*
X022559Y005327D02*
X022885Y005327D01*
X022926Y005228D02*
X022559Y005228D01*
X022559Y005130D02*
X023020Y005130D01*
X023679Y005130D02*
X024062Y005130D01*
X023963Y005228D02*
X023772Y005228D01*
X023813Y005327D02*
X023884Y005327D01*
X023884Y005425D02*
X023844Y005425D01*
X023844Y005524D02*
X024319Y005524D01*
X024319Y005622D02*
X024379Y005622D01*
X024379Y005721D02*
X024319Y005721D01*
X024319Y005819D02*
X024379Y005819D01*
X024379Y005918D02*
X024319Y005918D01*
X024109Y005918D02*
X023632Y005918D01*
X023730Y005819D02*
X024010Y005819D01*
X023912Y005721D02*
X023793Y005721D01*
X023834Y005622D02*
X023884Y005622D01*
X024735Y005228D02*
X025639Y005228D01*
X025639Y005327D02*
X024814Y005327D01*
X024814Y005425D02*
X025639Y005425D01*
X026059Y005425D02*
X026299Y005425D01*
X026299Y005391D02*
X026383Y005188D01*
X026538Y005034D01*
X026740Y004950D01*
X026958Y004950D01*
X027161Y005034D01*
X027315Y005188D01*
X027399Y005391D01*
X027399Y005609D01*
X027315Y005812D01*
X027161Y005966D01*
X026958Y006050D01*
X026740Y006050D01*
X026538Y005966D01*
X026383Y005812D01*
X026299Y005609D01*
X026299Y005391D01*
X026326Y005327D02*
X026059Y005327D01*
X026059Y005228D02*
X026366Y005228D01*
X026442Y005130D02*
X026059Y005130D01*
X026059Y005031D02*
X026544Y005031D01*
X026293Y004834D02*
X027405Y004834D01*
X027351Y004736D02*
X026347Y004736D01*
X026388Y004637D02*
X027310Y004637D01*
X027299Y004539D02*
X026399Y004539D01*
X026399Y004440D02*
X027299Y004440D01*
X027319Y004342D02*
X026379Y004342D01*
X026338Y004243D02*
X027360Y004243D01*
X027427Y004145D02*
X026271Y004145D01*
X026173Y004046D02*
X027525Y004046D01*
X028173Y004046D02*
X028339Y004046D01*
X028339Y004145D02*
X028271Y004145D01*
X028338Y004243D02*
X028339Y004243D01*
X028339Y004834D02*
X028293Y004834D01*
X028339Y004933D02*
X028194Y004933D01*
X028339Y005031D02*
X028004Y005031D01*
X027694Y005031D02*
X027154Y005031D01*
X027256Y005130D02*
X028339Y005130D01*
X028339Y005228D02*
X027332Y005228D01*
X027373Y005327D02*
X028339Y005327D01*
X028339Y005425D02*
X027399Y005425D01*
X027399Y005524D02*
X028339Y005524D01*
X028339Y005622D02*
X027394Y005622D01*
X027353Y005721D02*
X028339Y005721D01*
X028339Y005819D02*
X027308Y005819D01*
X027209Y005918D02*
X028339Y005918D01*
X028339Y006016D02*
X027041Y006016D01*
X026658Y006016D02*
X026059Y006016D01*
X026059Y005918D02*
X026489Y005918D01*
X026390Y005819D02*
X026059Y005819D01*
X026059Y005721D02*
X026345Y005721D01*
X026304Y005622D02*
X026059Y005622D01*
X026059Y005524D02*
X026299Y005524D01*
X026032Y006115D02*
X028339Y006115D01*
X028339Y006213D02*
X025933Y006213D01*
X025835Y006312D02*
X028339Y006312D01*
X028339Y006410D02*
X025736Y006410D01*
X025638Y006509D02*
X028339Y006509D01*
X028339Y006607D02*
X025539Y006607D01*
X025441Y006706D02*
X028339Y006706D01*
X028339Y006804D02*
X025342Y006804D01*
X025244Y006903D02*
X028339Y006903D01*
X028339Y007001D02*
X025145Y007001D01*
X025047Y007100D02*
X028339Y007100D01*
X028339Y007198D02*
X024948Y007198D01*
X024945Y007340D02*
X025006Y007360D01*
X025064Y007389D01*
X025116Y007427D01*
X025162Y007473D01*
X025200Y007525D01*
X025229Y007583D01*
X025249Y007644D01*
X025259Y007708D01*
X025259Y007970D01*
X024879Y007970D01*
X024879Y007330D01*
X024881Y007330D01*
X024945Y007340D01*
X024879Y007395D02*
X024819Y007395D01*
X024819Y007330D02*
X024819Y007970D01*
X024439Y007970D01*
X024439Y007708D01*
X024449Y007644D01*
X024469Y007583D01*
X024498Y007525D01*
X024536Y007473D01*
X024582Y007427D01*
X024634Y007389D01*
X024692Y007360D01*
X024753Y007340D01*
X024817Y007330D01*
X024819Y007330D01*
X024819Y007494D02*
X024879Y007494D01*
X024879Y007592D02*
X024819Y007592D01*
X024819Y007691D02*
X024879Y007691D01*
X024879Y007789D02*
X024819Y007789D01*
X024819Y007888D02*
X024879Y007888D01*
X024879Y007970D02*
X024819Y007970D01*
X024819Y008030D01*
X024439Y008030D01*
X024439Y008292D01*
X024449Y008356D01*
X024469Y008417D01*
X024498Y008475D01*
X024536Y008527D01*
X024582Y008573D01*
X024634Y008611D01*
X024692Y008640D01*
X024753Y008660D01*
X024817Y008670D01*
X024819Y008670D01*
X024819Y008030D01*
X024879Y008030D01*
X024879Y008670D01*
X024881Y008670D01*
X024945Y008660D01*
X025006Y008640D01*
X025064Y008611D01*
X025116Y008573D01*
X025162Y008527D01*
X025200Y008475D01*
X025229Y008417D01*
X025249Y008356D01*
X025259Y008292D01*
X025259Y008030D01*
X024879Y008030D01*
X024879Y007970D01*
X024879Y007986D02*
X028339Y007986D01*
X028339Y007888D02*
X025259Y007888D01*
X025259Y007789D02*
X028339Y007789D01*
X028339Y007691D02*
X025256Y007691D01*
X025232Y007592D02*
X028339Y007592D01*
X028339Y007494D02*
X025177Y007494D01*
X025072Y007395D02*
X028339Y007395D01*
X028339Y007297D02*
X023350Y007297D01*
X023251Y007395D02*
X023626Y007395D01*
X023634Y007389D02*
X023692Y007360D01*
X023753Y007340D01*
X023817Y007330D01*
X023819Y007330D01*
X023819Y007970D01*
X023439Y007970D01*
X023439Y007708D01*
X023449Y007644D01*
X023469Y007583D01*
X023498Y007525D01*
X023536Y007473D01*
X023582Y007427D01*
X023634Y007389D01*
X023521Y007494D02*
X023223Y007494D01*
X023264Y007592D02*
X023466Y007592D01*
X023442Y007691D02*
X023289Y007691D01*
X023289Y007789D02*
X023439Y007789D01*
X023439Y007888D02*
X023289Y007888D01*
X023289Y007986D02*
X023819Y007986D01*
X023819Y007970D02*
X023819Y008030D01*
X023439Y008030D01*
X023439Y008292D01*
X023449Y008356D01*
X023469Y008417D01*
X023498Y008475D01*
X023536Y008527D01*
X023582Y008573D01*
X023634Y008611D01*
X023692Y008640D01*
X023753Y008660D01*
X023817Y008670D01*
X023819Y008670D01*
X023819Y008030D01*
X023879Y008030D01*
X023879Y008670D01*
X023881Y008670D01*
X023945Y008660D01*
X024006Y008640D01*
X024064Y008611D01*
X024116Y008573D01*
X024162Y008527D01*
X024200Y008475D01*
X024229Y008417D01*
X024249Y008356D01*
X024259Y008292D01*
X024259Y008030D01*
X023879Y008030D01*
X023879Y007970D01*
X023879Y007330D01*
X023881Y007330D01*
X023945Y007340D01*
X024006Y007360D01*
X024064Y007389D01*
X024116Y007427D01*
X024162Y007473D01*
X024200Y007525D01*
X024229Y007583D01*
X024249Y007644D01*
X024259Y007708D01*
X024259Y007970D01*
X023879Y007970D01*
X023819Y007970D01*
X023879Y007986D02*
X024819Y007986D01*
X024819Y008085D02*
X024879Y008085D01*
X024879Y008183D02*
X024819Y008183D01*
X024819Y008282D02*
X024879Y008282D01*
X024879Y008380D02*
X024819Y008380D01*
X024819Y008479D02*
X024879Y008479D01*
X024879Y008577D02*
X024819Y008577D01*
X024588Y008577D02*
X024110Y008577D01*
X024197Y008479D02*
X024501Y008479D01*
X024457Y008380D02*
X024241Y008380D01*
X024259Y008282D02*
X024439Y008282D01*
X024439Y008183D02*
X024259Y008183D01*
X024259Y008085D02*
X024439Y008085D01*
X024439Y007888D02*
X024259Y007888D01*
X024259Y007789D02*
X024439Y007789D01*
X024442Y007691D02*
X024256Y007691D01*
X024232Y007592D02*
X024466Y007592D01*
X024521Y007494D02*
X024177Y007494D01*
X024072Y007395D02*
X024626Y007395D01*
X023879Y007395D02*
X023819Y007395D01*
X023819Y007494D02*
X023879Y007494D01*
X023879Y007592D02*
X023819Y007592D01*
X023819Y007691D02*
X023879Y007691D01*
X023879Y007789D02*
X023819Y007789D01*
X023819Y007888D02*
X023879Y007888D01*
X023879Y008085D02*
X023819Y008085D01*
X023819Y008183D02*
X023879Y008183D01*
X023879Y008282D02*
X023819Y008282D01*
X023819Y008380D02*
X023879Y008380D01*
X023879Y008479D02*
X023819Y008479D01*
X023819Y008577D02*
X023879Y008577D01*
X023588Y008577D02*
X023154Y008577D01*
X023235Y008479D02*
X023501Y008479D01*
X023457Y008380D02*
X023276Y008380D01*
X023289Y008282D02*
X023439Y008282D01*
X023439Y008183D02*
X023289Y008183D01*
X023289Y008085D02*
X023439Y008085D01*
X022544Y008577D02*
X022154Y008577D01*
X022235Y008479D02*
X022463Y008479D01*
X022423Y008380D02*
X022276Y008380D01*
X022289Y008282D02*
X022409Y008282D01*
X022409Y008183D02*
X022289Y008183D01*
X022289Y008085D02*
X022409Y008085D01*
X022409Y007986D02*
X022289Y007986D01*
X022289Y007888D02*
X022409Y007888D01*
X022341Y007789D02*
X022289Y007789D01*
X022139Y007395D02*
X022126Y007395D01*
X022139Y007297D02*
X021274Y007297D01*
X021359Y007211D02*
X021060Y007510D01*
X020638Y007510D01*
X020339Y007211D01*
X020339Y006789D01*
X020638Y006490D01*
X021060Y006490D01*
X021359Y006789D01*
X021359Y007211D01*
X021359Y007198D02*
X022139Y007198D01*
X022139Y007100D02*
X021359Y007100D01*
X021359Y007001D02*
X022139Y007001D01*
X022139Y006903D02*
X021359Y006903D01*
X021359Y006804D02*
X022139Y006804D01*
X022139Y006706D02*
X021276Y006706D01*
X021177Y006607D02*
X022139Y006607D01*
X022139Y006509D02*
X021079Y006509D01*
X020619Y006509D02*
X019789Y006509D01*
X019789Y006607D02*
X020521Y006607D01*
X020422Y006706D02*
X019789Y006706D01*
X019789Y006804D02*
X020339Y006804D01*
X020339Y006903D02*
X019766Y006903D01*
X019789Y006848D02*
X019722Y007009D01*
X019598Y007133D01*
X019437Y007200D01*
X019262Y007200D01*
X019100Y007133D01*
X018976Y007009D01*
X018909Y006848D01*
X018909Y006152D01*
X018976Y005991D01*
X019100Y005867D01*
X019262Y005800D01*
X019437Y005800D01*
X019598Y005867D01*
X019722Y005991D01*
X019789Y006152D01*
X019789Y006848D01*
X019725Y007001D02*
X020339Y007001D01*
X020339Y007100D02*
X019632Y007100D01*
X019441Y007198D02*
X020339Y007198D01*
X020424Y007297D02*
X017350Y007297D01*
X017251Y007395D02*
X020523Y007395D01*
X020621Y007494D02*
X016723Y007494D01*
X016764Y007592D02*
X021434Y007592D01*
X021409Y007691D02*
X016789Y007691D01*
X016789Y007789D02*
X021409Y007789D01*
X021409Y007888D02*
X016789Y007888D01*
X016789Y007986D02*
X021409Y007986D01*
X021409Y008085D02*
X016789Y008085D01*
X016789Y008183D02*
X021409Y008183D01*
X021409Y008282D02*
X016789Y008282D01*
X016776Y008380D02*
X021423Y008380D01*
X021463Y008479D02*
X016735Y008479D01*
X016654Y008577D02*
X021544Y008577D01*
X021702Y008676D02*
X016496Y008676D01*
X016202Y008676D02*
X014496Y008676D01*
X014654Y008577D02*
X015088Y008577D01*
X015082Y008573D02*
X015036Y008527D01*
X014998Y008475D01*
X014969Y008417D01*
X014949Y008356D01*
X014939Y008292D01*
X014939Y008030D01*
X015319Y008030D01*
X015319Y008670D01*
X015317Y008670D01*
X015253Y008660D01*
X015192Y008640D01*
X015134Y008611D01*
X015082Y008573D01*
X015001Y008479D02*
X014735Y008479D01*
X014776Y008380D02*
X014957Y008380D01*
X014939Y008282D02*
X014789Y008282D01*
X014789Y008183D02*
X014939Y008183D01*
X014939Y008085D02*
X014789Y008085D01*
X014789Y007986D02*
X015319Y007986D01*
X015379Y007986D02*
X015909Y007986D01*
X015909Y007888D02*
X015759Y007888D01*
X015759Y007789D02*
X015909Y007789D01*
X015909Y007691D02*
X015756Y007691D01*
X015732Y007592D02*
X015934Y007592D01*
X015975Y007494D02*
X015677Y007494D01*
X015973Y007001D02*
X015319Y007001D01*
X015310Y007010D02*
X014888Y007010D01*
X014589Y006711D01*
X014589Y006289D01*
X014888Y005990D01*
X015310Y005990D01*
X015609Y006289D01*
X015609Y006711D01*
X015310Y007010D01*
X015418Y006903D02*
X015932Y006903D01*
X015909Y006804D02*
X015516Y006804D01*
X015609Y006706D02*
X015909Y006706D01*
X015909Y006607D02*
X015609Y006607D01*
X015609Y006509D02*
X015909Y006509D01*
X015909Y006410D02*
X015609Y006410D01*
X015609Y006312D02*
X015909Y006312D01*
X015909Y006213D02*
X015533Y006213D01*
X015435Y006115D02*
X015925Y006115D01*
X015966Y006016D02*
X015336Y006016D01*
X015298Y005980D02*
X015129Y005980D01*
X015129Y005530D01*
X015069Y005530D01*
X015069Y005470D01*
X014619Y005470D01*
X014619Y005301D01*
X014900Y005020D01*
X015069Y005020D01*
X015069Y005470D01*
X015129Y005470D01*
X015129Y005020D01*
X015298Y005020D01*
X015579Y005301D01*
X015579Y005470D01*
X015129Y005470D01*
X015129Y005530D01*
X015579Y005530D01*
X015579Y005699D01*
X015298Y005980D01*
X015360Y005918D02*
X016049Y005918D01*
X016216Y005819D02*
X015459Y005819D01*
X015557Y005721D02*
X022139Y005721D01*
X022139Y005819D02*
X019482Y005819D01*
X019649Y005918D02*
X022139Y005918D01*
X022139Y006016D02*
X019733Y006016D01*
X019773Y006115D02*
X022139Y006115D01*
X022139Y006213D02*
X019789Y006213D01*
X019789Y006312D02*
X022139Y006312D01*
X022139Y006410D02*
X019789Y006410D01*
X018909Y006410D02*
X018789Y006410D01*
X018789Y006312D02*
X018909Y006312D01*
X018909Y006213D02*
X018789Y006213D01*
X018773Y006115D02*
X018925Y006115D01*
X018966Y006016D02*
X018733Y006016D01*
X018649Y005918D02*
X019049Y005918D01*
X019216Y005819D02*
X018482Y005819D01*
X018216Y005819D02*
X017482Y005819D01*
X017649Y005918D02*
X018049Y005918D01*
X017966Y006016D02*
X017733Y006016D01*
X017773Y006115D02*
X017925Y006115D01*
X017909Y006213D02*
X017789Y006213D01*
X017789Y006804D02*
X017909Y006804D01*
X017932Y006903D02*
X017766Y006903D01*
X017725Y007001D02*
X017973Y007001D01*
X018066Y007100D02*
X017632Y007100D01*
X017448Y007198D02*
X018257Y007198D01*
X018441Y007198D02*
X019257Y007198D01*
X019066Y007100D02*
X018632Y007100D01*
X018725Y007001D02*
X018973Y007001D01*
X018932Y006903D02*
X018766Y006903D01*
X018789Y006804D02*
X018909Y006804D01*
X018909Y006706D02*
X018789Y006706D01*
X018789Y006607D02*
X018909Y006607D01*
X018909Y006509D02*
X018789Y006509D01*
X017216Y005819D02*
X016482Y005819D01*
X016649Y005918D02*
X017049Y005918D01*
X016966Y006016D02*
X016733Y006016D01*
X016773Y006115D02*
X016925Y006115D01*
X016909Y006213D02*
X016789Y006213D01*
X016789Y006312D02*
X016909Y006312D01*
X016909Y006410D02*
X016789Y006410D01*
X016789Y006509D02*
X016909Y006509D01*
X016909Y006607D02*
X016789Y006607D01*
X016789Y006706D02*
X016909Y006706D01*
X016909Y006804D02*
X016789Y006804D01*
X016766Y006903D02*
X016932Y006903D01*
X016973Y007001D02*
X016725Y007001D01*
X015909Y008085D02*
X015759Y008085D01*
X015759Y008030D02*
X015759Y008292D01*
X015749Y008356D01*
X015729Y008417D01*
X015700Y008475D01*
X015662Y008527D01*
X015616Y008573D01*
X015564Y008611D01*
X015506Y008640D01*
X015445Y008660D01*
X015381Y008670D01*
X015379Y008670D01*
X015379Y008030D01*
X015759Y008030D01*
X015759Y008183D02*
X015909Y008183D01*
X015909Y008282D02*
X015759Y008282D01*
X015741Y008380D02*
X015923Y008380D01*
X015963Y008479D02*
X015697Y008479D01*
X015610Y008577D02*
X016044Y008577D01*
X015379Y008577D02*
X015319Y008577D01*
X015319Y008479D02*
X015379Y008479D01*
X015379Y008380D02*
X015319Y008380D01*
X015319Y008282D02*
X015379Y008282D01*
X015379Y008183D02*
X015319Y008183D01*
X015319Y008085D02*
X015379Y008085D01*
X014939Y007888D02*
X014789Y007888D01*
X014789Y007789D02*
X014939Y007789D01*
X014942Y007691D02*
X014789Y007691D01*
X014764Y007592D02*
X014966Y007592D01*
X015021Y007494D02*
X014723Y007494D01*
X014879Y007001D02*
X012147Y007001D01*
X012049Y006903D02*
X014780Y006903D01*
X014682Y006804D02*
X011950Y006804D01*
X011852Y006706D02*
X014589Y006706D01*
X014589Y006607D02*
X011753Y006607D01*
X011655Y006509D02*
X014589Y006509D01*
X014589Y006410D02*
X011556Y006410D01*
X011458Y006312D02*
X014589Y006312D01*
X014665Y006213D02*
X011359Y006213D01*
X011261Y006115D02*
X014763Y006115D01*
X014862Y006016D02*
X011162Y006016D01*
X011064Y005918D02*
X012045Y005918D01*
X011947Y005819D02*
X010965Y005819D01*
X011059Y005913D02*
X011059Y005913D01*
X012079Y004933D02*
X022139Y004933D01*
X022139Y005031D02*
X015309Y005031D01*
X015407Y005130D02*
X022139Y005130D01*
X022139Y005228D02*
X015506Y005228D01*
X015579Y005327D02*
X022139Y005327D01*
X022139Y005425D02*
X015579Y005425D01*
X015579Y005622D02*
X022139Y005622D01*
X022139Y005524D02*
X015129Y005524D01*
X015069Y005524D02*
X013859Y005524D01*
X013859Y005622D02*
X014619Y005622D01*
X014619Y005699D02*
X014619Y005530D01*
X015069Y005530D01*
X015069Y005980D01*
X014900Y005980D01*
X014619Y005699D01*
X014641Y005721D02*
X013850Y005721D01*
X013751Y005819D02*
X014739Y005819D01*
X014838Y005918D02*
X013653Y005918D01*
X013859Y005425D02*
X014619Y005425D01*
X014619Y005327D02*
X013859Y005327D01*
X013798Y005228D02*
X014692Y005228D01*
X014791Y005130D02*
X013700Y005130D01*
X013601Y005031D02*
X014889Y005031D01*
X015069Y005031D02*
X015129Y005031D01*
X015129Y005130D02*
X015069Y005130D01*
X015069Y005228D02*
X015129Y005228D01*
X015129Y005327D02*
X015069Y005327D01*
X015069Y005425D02*
X015129Y005425D01*
X015129Y005622D02*
X015069Y005622D01*
X015069Y005721D02*
X015129Y005721D01*
X015129Y005819D02*
X015069Y005819D01*
X015069Y005918D02*
X015129Y005918D01*
X013045Y005918D02*
X012653Y005918D01*
X012751Y005819D02*
X012947Y005819D01*
X012900Y005228D02*
X012798Y005228D01*
X012700Y005130D02*
X012998Y005130D01*
X013097Y005031D02*
X012601Y005031D01*
X011980Y004834D02*
X022139Y004834D01*
X022139Y004736D02*
X007722Y004736D01*
X007763Y004637D02*
X022139Y004637D01*
X022139Y004539D02*
X007774Y004539D01*
X007774Y004440D02*
X022139Y004440D01*
X022139Y004342D02*
X007754Y004342D01*
X007668Y004834D02*
X009718Y004834D01*
X007069Y005031D02*
X005022Y005031D01*
X005011Y004933D02*
X006879Y004933D01*
X006780Y004834D02*
X005110Y004834D01*
X005170Y004736D02*
X006726Y004736D01*
X006707Y003061D02*
X006885Y003061D01*
X006986Y002963D02*
X006609Y002963D01*
X006510Y002864D02*
X006853Y002864D01*
X006776Y002766D02*
X006412Y002766D01*
X006313Y002667D02*
X006732Y002667D01*
X006708Y002569D02*
X006215Y002569D01*
X007174Y002273D02*
X007274Y002273D01*
X007274Y002175D02*
X007174Y002175D01*
X007174Y002076D02*
X007274Y002076D01*
X012593Y001978D02*
X013105Y001978D01*
X013007Y001879D02*
X012691Y001879D01*
X012790Y001781D02*
X012908Y001781D01*
X013593Y001978D02*
X014565Y001978D01*
X014450Y001879D02*
X013691Y001879D01*
X013790Y001781D02*
X014370Y001781D01*
X014329Y001682D02*
X013859Y001682D01*
X013859Y001584D02*
X014299Y001584D01*
X014299Y001485D02*
X013859Y001485D01*
X013859Y001387D02*
X014301Y001387D01*
X014342Y001288D02*
X013858Y001288D01*
X013760Y001190D02*
X014382Y001190D01*
X014480Y001091D02*
X013661Y001091D01*
X015133Y001978D02*
X015565Y001978D01*
X015450Y001879D02*
X015248Y001879D01*
X015328Y001781D02*
X015370Y001781D01*
X016133Y001978D02*
X016565Y001978D01*
X016450Y001879D02*
X016248Y001879D01*
X016328Y001781D02*
X016370Y001781D01*
X017133Y001978D02*
X017641Y001978D01*
X017799Y001978D02*
X017899Y001978D01*
X017899Y002019D02*
X017899Y001550D01*
X018799Y001550D01*
X018799Y002019D01*
X018727Y002007D01*
X018649Y001982D01*
X018577Y001945D01*
X018510Y001897D01*
X018452Y001839D01*
X018404Y001773D01*
X018367Y001700D01*
X018349Y001644D01*
X018331Y001700D01*
X018294Y001773D01*
X018246Y001839D01*
X018188Y001897D01*
X018122Y001945D01*
X018049Y001982D01*
X017971Y002007D01*
X017899Y002019D01*
X017899Y001879D02*
X017799Y001879D01*
X017799Y001781D02*
X017899Y001781D01*
X017899Y001682D02*
X017799Y001682D01*
X017799Y001584D02*
X017899Y001584D01*
X017899Y001485D02*
X018799Y001485D01*
X018799Y001584D02*
X018899Y001584D01*
X018899Y001682D02*
X018799Y001682D01*
X018799Y001781D02*
X018899Y001781D01*
X018899Y001879D02*
X018799Y001879D01*
X018799Y001978D02*
X018899Y001978D01*
X019057Y001978D02*
X019565Y001978D01*
X019450Y001879D02*
X019205Y001879D01*
X019288Y001781D02*
X019370Y001781D01*
X018641Y001978D02*
X018057Y001978D01*
X018205Y001879D02*
X018493Y001879D01*
X018410Y001781D02*
X018288Y001781D01*
X018337Y001682D02*
X018361Y001682D01*
X017493Y001879D02*
X017248Y001879D01*
X017328Y001781D02*
X017410Y001781D01*
X019651Y002963D02*
X020339Y002963D01*
X020339Y003061D02*
X019718Y003061D01*
X019751Y003160D02*
X020339Y003160D01*
X020386Y003258D02*
X019759Y003258D01*
X019759Y003357D02*
X020484Y003357D01*
X020583Y003455D02*
X019759Y003455D01*
X019759Y003554D02*
X022139Y003554D01*
X022139Y003652D02*
X019759Y003652D01*
X019759Y003751D02*
X022139Y003751D01*
X022139Y003849D02*
X019750Y003849D01*
X019714Y003948D02*
X022139Y003948D01*
X022139Y004046D02*
X019643Y004046D01*
X019379Y004046D02*
X019319Y004046D01*
X019319Y003948D02*
X019379Y003948D01*
X019379Y003849D02*
X019319Y003849D01*
X019319Y003751D02*
X019379Y003751D01*
X019379Y003652D02*
X019319Y003652D01*
X019319Y003554D02*
X019379Y003554D01*
X021115Y003455D02*
X022139Y003455D01*
X022139Y003357D02*
X021214Y003357D01*
X021312Y003258D02*
X022139Y003258D01*
X022139Y003160D02*
X021359Y003160D01*
X021359Y003061D02*
X022113Y003061D01*
X022015Y002963D02*
X021359Y002963D01*
X021359Y002864D02*
X021916Y002864D01*
X021818Y002766D02*
X021336Y002766D01*
X021237Y002667D02*
X021719Y002667D01*
X021565Y001978D02*
X020133Y001978D01*
X020248Y001879D02*
X021450Y001879D01*
X021370Y001781D02*
X020328Y001781D01*
X020369Y001682D02*
X021329Y001682D01*
X021299Y001584D02*
X020399Y001584D01*
X020399Y001485D02*
X021299Y001485D01*
X021301Y001387D02*
X020397Y001387D01*
X020357Y001288D02*
X021342Y001288D01*
X021382Y001190D02*
X020316Y001190D01*
X020218Y001091D02*
X021480Y001091D01*
X022328Y001781D02*
X022370Y001781D01*
X022450Y001879D02*
X022248Y001879D01*
X022133Y001978D02*
X022565Y001978D01*
X023133Y001978D02*
X023565Y001978D01*
X023450Y001879D02*
X023248Y001879D01*
X023328Y001781D02*
X023370Y001781D01*
X024133Y001978D02*
X024565Y001978D01*
X024450Y001879D02*
X024248Y001879D01*
X024328Y001781D02*
X024370Y001781D01*
X025133Y001978D02*
X025565Y001978D01*
X025450Y001879D02*
X025248Y001879D01*
X025328Y001781D02*
X025370Y001781D01*
X026133Y001978D02*
X026565Y001978D01*
X026450Y001879D02*
X026248Y001879D01*
X026328Y001781D02*
X026370Y001781D01*
X027133Y001978D02*
X027605Y001978D01*
X027507Y001879D02*
X027248Y001879D01*
X027328Y001781D02*
X027413Y001781D01*
X027372Y001682D02*
X027369Y001682D01*
X027504Y004933D02*
X026194Y004933D01*
X025438Y006115D02*
X022559Y006115D01*
X022559Y006213D02*
X025339Y006213D01*
X025241Y006312D02*
X022559Y006312D01*
X022559Y006410D02*
X025142Y006410D01*
X025044Y006509D02*
X022559Y006509D01*
X022559Y006607D02*
X024945Y006607D01*
X024847Y006706D02*
X022559Y006706D01*
X022559Y006804D02*
X023248Y006804D01*
X023150Y006903D02*
X022559Y006903D01*
X022559Y007001D02*
X023051Y007001D01*
X022953Y007100D02*
X022559Y007100D01*
X022559Y007198D02*
X022854Y007198D01*
X022756Y007297D02*
X022559Y007297D01*
X022559Y007395D02*
X022572Y007395D01*
X021572Y007395D02*
X021175Y007395D01*
X021077Y007494D02*
X021475Y007494D01*
X021996Y008676D02*
X022702Y008676D01*
X022996Y008676D02*
X028339Y008676D01*
X028339Y008774D02*
X008309Y008774D01*
X008309Y008676D02*
X014202Y008676D01*
X014044Y008577D02*
X013610Y008577D01*
X013697Y008479D02*
X013963Y008479D01*
X013923Y008380D02*
X013741Y008380D01*
X013759Y008282D02*
X013909Y008282D01*
X013909Y008183D02*
X013759Y008183D01*
X013759Y008085D02*
X013909Y008085D01*
X013909Y007986D02*
X013379Y007986D01*
X013759Y007888D02*
X013909Y007888D01*
X013909Y007789D02*
X013759Y007789D01*
X013756Y007691D02*
X013909Y007691D01*
X013934Y007592D02*
X013732Y007592D01*
X013677Y007494D02*
X013975Y007494D01*
X010710Y009661D02*
X017260Y009661D01*
X017161Y009759D02*
X010808Y009759D01*
X010844Y009858D02*
X017119Y009858D01*
X017119Y009956D02*
X010844Y009956D01*
X010844Y010055D02*
X017119Y010055D01*
X017569Y009956D02*
X017629Y009956D01*
X017629Y009858D02*
X017569Y009858D01*
X017569Y009759D02*
X017629Y009759D01*
X017629Y009661D02*
X017569Y009661D01*
X017569Y009562D02*
X017629Y009562D01*
X017840Y009562D02*
X020004Y009562D01*
X019906Y009661D02*
X017938Y009661D01*
X018037Y009759D02*
X019807Y009759D01*
X019759Y009858D02*
X018079Y009858D01*
X018079Y009956D02*
X019759Y009956D01*
X019759Y010055D02*
X018079Y010055D01*
X017358Y009562D02*
X010611Y009562D01*
X010559Y009464D02*
X026136Y009464D01*
X026037Y009562D02*
X020444Y009562D01*
X020542Y009661D02*
X025939Y009661D01*
X025840Y009759D02*
X020641Y009759D01*
X020689Y009858D02*
X025742Y009858D01*
X025643Y009956D02*
X020689Y009956D01*
X020689Y010055D02*
X025545Y010055D01*
X026026Y010449D02*
X026419Y010449D01*
X026419Y010547D02*
X025927Y010547D01*
X025829Y010646D02*
X026419Y010646D01*
X026419Y010699D02*
X026419Y010301D01*
X026700Y010020D01*
X027098Y010020D01*
X027379Y010301D01*
X027379Y010699D01*
X027288Y010790D01*
X027436Y010790D01*
X027559Y010913D01*
X027683Y011037D01*
X027700Y011020D01*
X028098Y011020D01*
X028339Y011261D01*
X028339Y010696D01*
X028085Y010950D01*
X027949Y010950D01*
X027949Y010550D01*
X027849Y010550D01*
X027849Y010450D01*
X027449Y010450D01*
X027449Y010314D01*
X027713Y010050D01*
X027849Y010050D01*
X027849Y010450D01*
X027949Y010450D01*
X027949Y010050D01*
X028085Y010050D01*
X028339Y010304D01*
X028339Y009500D01*
X026974Y009500D01*
X025474Y011000D01*
X025289Y011000D01*
X025289Y011348D01*
X025222Y011509D01*
X025098Y011633D01*
X025059Y011649D01*
X025059Y011913D01*
X025309Y012163D01*
X025309Y017337D01*
X025186Y017460D01*
X024936Y017710D01*
X024106Y017710D01*
X024036Y017780D01*
X023915Y017830D01*
X023783Y017830D01*
X023662Y017780D01*
X023569Y017687D01*
X023519Y017566D01*
X023519Y017434D01*
X023569Y017313D01*
X023662Y017220D01*
X023783Y017170D01*
X023915Y017170D01*
X024036Y017220D01*
X024106Y017290D01*
X024762Y017290D01*
X024889Y017163D01*
X024889Y016886D01*
X024655Y017120D01*
X024233Y017120D01*
X023934Y016821D01*
X023934Y016399D01*
X024233Y016100D01*
X024655Y016100D01*
X024889Y016334D01*
X024889Y015666D01*
X024655Y015900D01*
X024233Y015900D01*
X023934Y015601D01*
X023934Y015212D01*
X023186Y015960D01*
X022686Y015960D01*
X022559Y016087D01*
X022559Y016158D01*
X022600Y016117D01*
X022762Y016050D01*
X022937Y016050D01*
X023098Y016117D01*
X023222Y016241D01*
X023289Y016402D01*
X023289Y017098D01*
X023222Y017259D01*
X023098Y017383D01*
X023059Y017399D01*
X023059Y017837D01*
X022936Y017960D01*
X022186Y018710D01*
X020859Y018710D01*
X020859Y018711D01*
X020560Y019010D01*
X020138Y019010D01*
X019839Y018711D01*
X019839Y018289D01*
X020138Y017990D01*
X020560Y017990D01*
X020859Y018289D01*
X020859Y018290D01*
X022012Y018290D01*
X022639Y017663D01*
X022639Y017399D01*
X022600Y017383D01*
X022559Y017342D01*
X022559Y017587D01*
X022436Y017710D01*
X022309Y017837D01*
X022186Y017960D01*
X021512Y017960D01*
X021389Y017837D01*
X021139Y017587D01*
X021139Y017342D01*
X021098Y017383D01*
X020937Y017450D01*
X020762Y017450D01*
X020600Y017383D01*
X020476Y017259D01*
X020409Y017098D01*
X020409Y016402D01*
X020422Y016370D01*
X019262Y015210D01*
X018436Y015210D01*
X017434Y016212D01*
X017434Y017587D01*
X017311Y017710D01*
X017061Y017960D01*
X014512Y017960D01*
X014389Y017837D01*
X014262Y017710D01*
X014139Y017587D01*
X014139Y017507D01*
X014059Y017587D01*
X013936Y017710D01*
X010606Y017710D01*
X010536Y017780D01*
X010415Y017830D01*
X010283Y017830D01*
X010162Y017780D01*
X010069Y017687D01*
X010019Y017566D01*
X010019Y017434D01*
X010069Y017313D01*
X010162Y017220D01*
X010283Y017170D01*
X010415Y017170D01*
X010536Y017220D01*
X010606Y017290D01*
X013007Y017290D01*
X012976Y017259D01*
X012909Y017098D01*
X012909Y016402D01*
X012976Y016241D01*
X013100Y016117D01*
X013262Y016050D01*
X013437Y016050D01*
X013598Y016117D01*
X013722Y016241D01*
X013789Y016402D01*
X013789Y017098D01*
X013722Y017259D01*
X013691Y017290D01*
X013762Y017290D01*
X013922Y017130D01*
X013909Y017098D01*
X013909Y016402D01*
X013976Y016241D01*
X014100Y016117D01*
X014262Y016050D01*
X014437Y016050D01*
X014598Y016117D01*
X014722Y016241D01*
X014789Y016402D01*
X014789Y017098D01*
X014722Y017259D01*
X014598Y017383D01*
X014559Y017399D01*
X014559Y017413D01*
X014686Y017540D01*
X016887Y017540D01*
X017014Y017413D01*
X017014Y016038D01*
X018139Y014913D01*
X018262Y014790D01*
X019436Y014790D01*
X020715Y016069D01*
X020762Y016050D01*
X020937Y016050D01*
X021098Y016117D01*
X021139Y016158D01*
X021139Y016087D01*
X020639Y015587D01*
X020639Y014399D01*
X020600Y014383D01*
X020476Y014259D01*
X020409Y014098D01*
X020409Y013402D01*
X020476Y013241D01*
X020600Y013117D01*
X020762Y013050D01*
X020937Y013050D01*
X021098Y013117D01*
X021222Y013241D01*
X021289Y013402D01*
X021289Y014098D01*
X021222Y014259D01*
X021098Y014383D01*
X021059Y014399D01*
X021059Y015413D01*
X021436Y015790D01*
X021559Y015913D01*
X021559Y016158D01*
X021600Y016117D01*
X021639Y016101D01*
X021639Y015413D01*
X022262Y014790D01*
X022762Y014790D01*
X023139Y014413D01*
X023139Y014300D01*
X023116Y014323D01*
X023064Y014361D01*
X023006Y014390D01*
X022945Y014410D01*
X022881Y014420D01*
X022879Y014420D01*
X022879Y013780D01*
X022819Y013780D01*
X022819Y013720D01*
X022439Y013720D01*
X022439Y013458D01*
X022449Y013394D01*
X022469Y013333D01*
X022498Y013275D01*
X022536Y013223D01*
X022582Y013177D01*
X022634Y013139D01*
X022692Y013110D01*
X022753Y013090D01*
X022817Y013080D01*
X022819Y013080D01*
X022819Y013720D01*
X022879Y013720D01*
X022879Y013080D01*
X022881Y013080D01*
X022945Y013090D01*
X023006Y013110D01*
X023064Y013139D01*
X023116Y013177D01*
X023139Y013200D01*
X023139Y013087D01*
X022762Y012710D01*
X022639Y012587D01*
X022639Y011649D01*
X022600Y011633D01*
X022476Y011509D01*
X022409Y011348D01*
X022409Y011000D01*
X022289Y011000D01*
X022289Y011348D01*
X022222Y011509D01*
X022098Y011633D01*
X021937Y011700D01*
X021762Y011700D01*
X021600Y011633D01*
X021476Y011509D01*
X021409Y011348D01*
X021409Y011000D01*
X020719Y011000D01*
X020719Y011098D01*
X020644Y011280D01*
X020504Y011420D01*
X020323Y011495D01*
X020126Y011495D01*
X019944Y011420D01*
X019804Y011280D01*
X019729Y011098D01*
X019729Y011000D01*
X018109Y011000D01*
X018109Y011211D01*
X017810Y011510D01*
X017388Y011510D01*
X017089Y011211D01*
X017089Y011000D01*
X016789Y011000D01*
X016789Y011348D01*
X016722Y011509D01*
X016598Y011633D01*
X016437Y011700D01*
X016262Y011700D01*
X016100Y011633D01*
X015976Y011509D01*
X015909Y011348D01*
X015909Y011000D01*
X015789Y011000D01*
X015789Y011348D01*
X015722Y011509D01*
X015598Y011633D01*
X015559Y011649D01*
X015559Y012413D01*
X015936Y012790D01*
X016936Y012790D01*
X017816Y013670D01*
X017915Y013670D01*
X018036Y013720D01*
X018129Y013813D01*
X018179Y013934D01*
X018179Y014066D01*
X018129Y014187D01*
X018036Y014280D01*
X017915Y014330D01*
X017783Y014330D01*
X017662Y014280D01*
X017569Y014187D01*
X017519Y014066D01*
X017519Y013967D01*
X016762Y013210D01*
X016649Y013210D01*
X016662Y013223D01*
X016700Y013275D01*
X016729Y013333D01*
X016749Y013394D01*
X016759Y013458D01*
X016759Y013720D01*
X016379Y013720D01*
X016379Y013780D01*
X016319Y013780D01*
X016319Y013720D01*
X015939Y013720D01*
X015939Y013458D01*
X015949Y013394D01*
X015969Y013333D01*
X015998Y013275D01*
X016036Y013223D01*
X016049Y013210D01*
X015762Y013210D01*
X015639Y013087D01*
X015139Y012587D01*
X015139Y011649D01*
X015100Y011633D01*
X014976Y011509D01*
X014909Y011348D01*
X014909Y011000D01*
X014789Y011000D01*
X014789Y011348D01*
X014722Y011509D01*
X014598Y011633D01*
X014559Y011649D01*
X014559Y012413D01*
X015059Y012913D01*
X015059Y013158D01*
X015100Y013117D01*
X015262Y013050D01*
X015437Y013050D01*
X015598Y013117D01*
X015722Y013241D01*
X015789Y013402D01*
X015789Y014098D01*
X015722Y014259D01*
X015598Y014383D01*
X015437Y014450D01*
X015262Y014450D01*
X015100Y014383D01*
X015059Y014342D01*
X015059Y014913D01*
X015559Y015413D01*
X015559Y016101D01*
X015598Y016117D01*
X015722Y016241D01*
X015789Y016402D01*
X015789Y017098D01*
X015722Y017259D01*
X015598Y017383D01*
X015437Y017450D01*
X015262Y017450D01*
X015100Y017383D01*
X014976Y017259D01*
X014909Y017098D01*
X014909Y016402D01*
X014976Y016241D01*
X015100Y016117D01*
X015139Y016101D01*
X015139Y015587D01*
X014762Y015210D01*
X014639Y015087D01*
X014639Y014342D01*
X014598Y014383D01*
X014437Y014450D01*
X014262Y014450D01*
X014100Y014383D01*
X013976Y014259D01*
X013909Y014098D01*
X013909Y013402D01*
X013976Y013241D01*
X014100Y013117D01*
X014262Y013050D01*
X014437Y013050D01*
X014598Y013117D01*
X014639Y013158D01*
X014639Y013087D01*
X014262Y012710D01*
X014139Y012587D01*
X014139Y011649D01*
X014100Y011633D01*
X013976Y011509D01*
X013909Y011348D01*
X013909Y011000D01*
X013789Y011000D01*
X013789Y011348D01*
X013722Y011509D01*
X013598Y011633D01*
X013437Y011700D01*
X013262Y011700D01*
X013100Y011633D01*
X012976Y011509D01*
X012909Y011348D01*
X012909Y011000D01*
X012599Y011000D01*
X012349Y011250D01*
X012349Y014500D01*
X008224Y018625D01*
X008224Y020990D01*
X008595Y020990D01*
X008538Y020966D01*
X008383Y020812D01*
X008299Y020609D01*
X008299Y020391D01*
X008383Y020188D01*
X008538Y020034D01*
X008740Y019950D01*
X008958Y019950D01*
X009161Y020034D01*
X009315Y020188D01*
X009365Y020308D01*
X009367Y020300D01*
X009404Y020227D01*
X009452Y020161D01*
X009510Y020103D01*
X009577Y020055D01*
X009649Y020018D01*
X009727Y019993D01*
X009799Y019981D01*
X009799Y020450D01*
X009899Y020450D01*
X009899Y019981D01*
X009971Y019993D01*
X010049Y020018D01*
X010122Y020055D01*
X010188Y020103D01*
X010246Y020161D01*
X010294Y020227D01*
X010331Y020300D01*
X010356Y020378D01*
X010368Y020450D01*
X009899Y020450D01*
X009899Y020550D01*
X010368Y020550D01*
X010356Y020622D01*
X010331Y020700D01*
X010294Y020773D01*
X010246Y020839D01*
X010188Y020897D01*
X010122Y020945D01*
X010049Y020982D01*
X010024Y020990D01*
X010995Y020990D01*
X010938Y020966D01*
X010783Y020812D01*
X010699Y020609D01*
X010699Y020391D01*
X010783Y020188D01*
X010938Y020034D01*
X011140Y019950D01*
X011358Y019950D01*
X011561Y020034D01*
X011715Y020188D01*
X011765Y020308D01*
X011767Y020300D01*
X011804Y020227D01*
X011852Y020161D01*
X011910Y020103D01*
X011977Y020055D01*
X012049Y020018D01*
X012127Y019993D01*
X012199Y019981D01*
X012199Y020450D01*
X012299Y020450D01*
X012299Y019981D01*
X012371Y019993D01*
X012449Y020018D01*
X012522Y020055D01*
X012588Y020103D01*
X012646Y020161D01*
X012694Y020227D01*
X012731Y020300D01*
X012733Y020308D01*
X012783Y020188D01*
X012938Y020034D01*
X013140Y019950D01*
X013358Y019950D01*
X013561Y020034D01*
X013715Y020188D01*
X013749Y020270D01*
X013783Y020188D01*
X013938Y020034D01*
X014140Y019950D01*
X014358Y019950D01*
X014561Y020034D01*
X014715Y020188D01*
X014749Y020270D01*
X014783Y020188D01*
X014938Y020034D01*
X015039Y019992D01*
X015039Y019513D01*
X015840Y018712D01*
X015839Y018711D01*
X015839Y018289D01*
X016138Y017990D01*
X016560Y017990D01*
X016859Y018289D01*
X016859Y018711D01*
X016560Y019010D01*
X016138Y019010D01*
X016137Y019009D01*
X015459Y019687D01*
X015459Y019992D01*
X015561Y020034D01*
X015715Y020188D01*
X015749Y020270D01*
X015783Y020188D01*
X015938Y020034D01*
X016140Y019950D01*
X016358Y019950D01*
X016561Y020034D01*
X016715Y020188D01*
X016749Y020270D01*
X016783Y020188D01*
X016938Y020034D01*
X017140Y019950D01*
X017358Y019950D01*
X017561Y020034D01*
X017639Y020112D01*
X017639Y017757D01*
X017569Y017687D01*
X017519Y017566D01*
X017519Y017434D01*
X017569Y017313D01*
X017662Y017220D01*
X017783Y017170D01*
X017915Y017170D01*
X018036Y017220D01*
X018129Y017313D01*
X018179Y017434D01*
X018179Y017566D01*
X018129Y017687D01*
X018059Y017757D01*
X018059Y019983D01*
X018140Y019950D01*
X018358Y019950D01*
X018561Y020034D01*
X018715Y020188D01*
X018799Y020391D01*
X018799Y020609D01*
X018715Y020812D01*
X018561Y020966D01*
X018503Y020990D01*
X019595Y020990D01*
X019538Y020966D01*
X019383Y020812D01*
X019299Y020609D01*
X019299Y020391D01*
X019383Y020188D01*
X019538Y020034D01*
X019740Y019950D01*
X019958Y019950D01*
X020161Y020034D01*
X020315Y020188D01*
X020349Y020270D01*
X020383Y020188D01*
X020538Y020034D01*
X020740Y019950D01*
X020958Y019950D01*
X021161Y020034D01*
X021315Y020188D01*
X021349Y020270D01*
X021383Y020188D01*
X021538Y020034D01*
X021740Y019950D01*
X021958Y019950D01*
X022161Y020034D01*
X022315Y020188D01*
X022349Y020270D01*
X022383Y020188D01*
X022538Y020034D01*
X022740Y019950D01*
X022958Y019950D01*
X023161Y020034D01*
X023315Y020188D01*
X023349Y020270D01*
X023383Y020188D01*
X023538Y020034D01*
X023740Y019950D01*
X023958Y019950D01*
X024161Y020034D01*
X024315Y020188D01*
X024349Y020270D01*
X024383Y020188D01*
X024538Y020034D01*
X024740Y019950D01*
X024958Y019950D01*
X025161Y020034D01*
X025315Y020188D01*
X025349Y020270D01*
X025383Y020188D01*
X025538Y020034D01*
X025740Y019950D01*
X025958Y019950D01*
X026161Y020034D01*
X026315Y020188D01*
X026349Y020270D01*
X026383Y020188D01*
X026538Y020034D01*
X026740Y019950D01*
X026958Y019950D01*
X027161Y020034D01*
X027315Y020188D01*
X027339Y020246D01*
X027339Y018776D01*
X027215Y018900D01*
X026793Y018900D01*
X026494Y018601D01*
X026494Y018179D01*
X026793Y017880D01*
X027215Y017880D01*
X027339Y018004D01*
X027339Y016954D01*
X027203Y017090D01*
X027054Y017090D01*
X027054Y016660D01*
X026954Y016660D01*
X026954Y016560D01*
X026524Y016560D01*
X026524Y016411D01*
X026805Y016130D01*
X026954Y016130D01*
X026954Y016560D01*
X027054Y016560D01*
X027054Y016130D01*
X027203Y016130D01*
X027378Y016305D01*
X027417Y016211D01*
X028339Y015289D01*
X028339Y012739D01*
X028098Y012980D01*
X027700Y012980D01*
X027419Y012699D01*
X027419Y012301D01*
X027700Y012020D01*
X028098Y012020D01*
X028339Y012261D01*
X028339Y011739D01*
X028098Y011980D01*
X027700Y011980D01*
X027419Y011699D01*
X027419Y011367D01*
X027379Y011327D01*
X027379Y011699D01*
X027098Y011980D01*
X026700Y011980D01*
X026419Y011699D01*
X026419Y011301D01*
X026510Y011210D01*
X026436Y011210D01*
X026059Y011587D01*
X026059Y013413D01*
X026436Y013790D01*
X026559Y013913D01*
X026559Y014243D01*
X026629Y014313D01*
X026679Y014434D01*
X026679Y014566D01*
X026629Y014687D01*
X026536Y014780D01*
X026415Y014830D01*
X026283Y014830D01*
X026162Y014780D01*
X026069Y014687D01*
X026019Y014566D01*
X026019Y014434D01*
X026069Y014313D01*
X026139Y014243D01*
X026139Y014087D01*
X025639Y013587D01*
X025639Y011413D01*
X025762Y011290D01*
X026262Y010790D01*
X026510Y010790D01*
X026419Y010699D01*
X026464Y010744D02*
X025730Y010744D01*
X025632Y010843D02*
X026210Y010843D01*
X026111Y010941D02*
X025533Y010941D01*
X025289Y011040D02*
X026013Y011040D01*
X025914Y011138D02*
X025289Y011138D01*
X025289Y011237D02*
X025816Y011237D01*
X025717Y011335D02*
X025289Y011335D01*
X025253Y011434D02*
X025639Y011434D01*
X025639Y011532D02*
X025199Y011532D01*
X025101Y011631D02*
X025639Y011631D01*
X025639Y011729D02*
X025059Y011729D01*
X025059Y011828D02*
X025639Y011828D01*
X025639Y011926D02*
X025072Y011926D01*
X025171Y012025D02*
X025639Y012025D01*
X025639Y012123D02*
X025269Y012123D01*
X025309Y012222D02*
X025639Y012222D01*
X025639Y012320D02*
X025309Y012320D01*
X025309Y012419D02*
X025639Y012419D01*
X025639Y012517D02*
X025309Y012517D01*
X025309Y012616D02*
X025639Y012616D01*
X025639Y012714D02*
X025309Y012714D01*
X025309Y012813D02*
X025639Y012813D01*
X025639Y012911D02*
X025309Y012911D01*
X025309Y013010D02*
X025639Y013010D01*
X025639Y013108D02*
X025309Y013108D01*
X025309Y013207D02*
X025639Y013207D01*
X025639Y013305D02*
X025309Y013305D01*
X025309Y013404D02*
X025639Y013404D01*
X025639Y013502D02*
X025309Y013502D01*
X025309Y013601D02*
X025653Y013601D01*
X025751Y013699D02*
X025309Y013699D01*
X025309Y013798D02*
X025850Y013798D01*
X025948Y013896D02*
X025309Y013896D01*
X025309Y013995D02*
X026047Y013995D01*
X026139Y014093D02*
X025309Y014093D01*
X025309Y014192D02*
X026139Y014192D01*
X026092Y014290D02*
X025309Y014290D01*
X025309Y014389D02*
X026038Y014389D01*
X026019Y014487D02*
X025309Y014487D01*
X025309Y014586D02*
X026027Y014586D01*
X026068Y014684D02*
X025309Y014684D01*
X025309Y014783D02*
X026169Y014783D01*
X026529Y014783D02*
X028339Y014783D01*
X028339Y014881D02*
X027216Y014881D01*
X027215Y014880D02*
X027514Y015179D01*
X027514Y015601D01*
X027215Y015900D01*
X026793Y015900D01*
X026494Y015601D01*
X026494Y015179D01*
X026793Y014880D01*
X027215Y014880D01*
X027315Y014980D02*
X028339Y014980D01*
X028339Y015078D02*
X027413Y015078D01*
X027512Y015177D02*
X028339Y015177D01*
X028339Y015275D02*
X027514Y015275D01*
X027514Y015374D02*
X028254Y015374D01*
X028156Y015472D02*
X027514Y015472D01*
X027514Y015571D02*
X028057Y015571D01*
X027959Y015669D02*
X027446Y015669D01*
X027348Y015768D02*
X027860Y015768D01*
X027762Y015866D02*
X027249Y015866D01*
X027565Y016063D02*
X025309Y016063D01*
X025309Y015965D02*
X027663Y015965D01*
X027466Y016162D02*
X027234Y016162D01*
X027333Y016260D02*
X027396Y016260D01*
X027054Y016260D02*
X026954Y016260D01*
X026954Y016162D02*
X027054Y016162D01*
X027054Y016359D02*
X026954Y016359D01*
X026954Y016457D02*
X027054Y016457D01*
X027054Y016556D02*
X026954Y016556D01*
X026954Y016654D02*
X025309Y016654D01*
X025309Y016556D02*
X026524Y016556D01*
X026524Y016457D02*
X025309Y016457D01*
X025309Y016359D02*
X026577Y016359D01*
X026675Y016260D02*
X025309Y016260D01*
X025309Y016162D02*
X026774Y016162D01*
X026759Y015866D02*
X025309Y015866D01*
X025309Y015768D02*
X026660Y015768D01*
X026562Y015669D02*
X025309Y015669D01*
X025309Y015571D02*
X026494Y015571D01*
X026494Y015472D02*
X025309Y015472D01*
X025309Y015374D02*
X026494Y015374D01*
X026494Y015275D02*
X025309Y015275D01*
X025309Y015177D02*
X026496Y015177D01*
X026595Y015078D02*
X025309Y015078D01*
X025309Y014980D02*
X026693Y014980D01*
X026792Y014881D02*
X025309Y014881D01*
X026630Y014684D02*
X028339Y014684D01*
X028339Y014586D02*
X026671Y014586D01*
X026679Y014487D02*
X028339Y014487D01*
X028339Y014389D02*
X026660Y014389D01*
X026606Y014290D02*
X028339Y014290D01*
X028339Y014192D02*
X026559Y014192D01*
X026559Y014093D02*
X028339Y014093D01*
X028339Y013995D02*
X027298Y013995D01*
X027203Y014090D02*
X027054Y014090D01*
X027054Y013660D01*
X026954Y013660D01*
X026954Y013560D01*
X026524Y013560D01*
X026524Y013411D01*
X026805Y013130D01*
X026954Y013130D01*
X026954Y013560D01*
X027054Y013560D01*
X027054Y013130D01*
X027203Y013130D01*
X027484Y013411D01*
X027484Y013560D01*
X027054Y013560D01*
X027054Y013660D01*
X027484Y013660D01*
X027484Y013809D01*
X027203Y014090D01*
X027054Y013995D02*
X026954Y013995D01*
X026954Y014090D02*
X026805Y014090D01*
X026524Y013809D01*
X026524Y013660D01*
X026954Y013660D01*
X026954Y014090D01*
X026954Y013896D02*
X027054Y013896D01*
X027054Y013798D02*
X026954Y013798D01*
X026954Y013699D02*
X027054Y013699D01*
X027054Y013601D02*
X028339Y013601D01*
X028339Y013699D02*
X027484Y013699D01*
X027484Y013798D02*
X028339Y013798D01*
X028339Y013896D02*
X027397Y013896D01*
X027484Y013502D02*
X028339Y013502D01*
X028339Y013404D02*
X027476Y013404D01*
X027378Y013305D02*
X028339Y013305D01*
X028339Y013207D02*
X027279Y013207D01*
X027054Y013207D02*
X026954Y013207D01*
X026954Y013305D02*
X027054Y013305D01*
X027054Y013404D02*
X026954Y013404D01*
X026954Y013502D02*
X027054Y013502D01*
X026954Y013601D02*
X026247Y013601D01*
X026345Y013699D02*
X026524Y013699D01*
X026524Y013798D02*
X026444Y013798D01*
X026542Y013896D02*
X026611Y013896D01*
X026559Y013995D02*
X026710Y013995D01*
X026524Y013502D02*
X026148Y013502D01*
X026059Y013404D02*
X026532Y013404D01*
X026630Y013305D02*
X026059Y013305D01*
X026059Y013207D02*
X026729Y013207D01*
X026700Y012980D02*
X026419Y012699D01*
X026419Y012301D01*
X026700Y012020D01*
X027098Y012020D01*
X027379Y012301D01*
X027379Y012699D01*
X027098Y012980D01*
X026700Y012980D01*
X026631Y012911D02*
X026059Y012911D01*
X026059Y012813D02*
X026533Y012813D01*
X026434Y012714D02*
X026059Y012714D01*
X026059Y012616D02*
X026419Y012616D01*
X026419Y012517D02*
X026059Y012517D01*
X026059Y012419D02*
X026419Y012419D01*
X026419Y012320D02*
X026059Y012320D01*
X026059Y012222D02*
X026499Y012222D01*
X026597Y012123D02*
X026059Y012123D01*
X026059Y012025D02*
X026696Y012025D01*
X026646Y011926D02*
X026059Y011926D01*
X026059Y011828D02*
X026548Y011828D01*
X026449Y011729D02*
X026059Y011729D01*
X026059Y011631D02*
X026419Y011631D01*
X026419Y011532D02*
X026114Y011532D01*
X026213Y011434D02*
X026419Y011434D01*
X026419Y011335D02*
X026311Y011335D01*
X026410Y011237D02*
X026484Y011237D01*
X027334Y010744D02*
X027507Y010744D01*
X027449Y010686D02*
X027449Y010550D01*
X027849Y010550D01*
X027849Y010950D01*
X027713Y010950D01*
X027449Y010686D01*
X027449Y010646D02*
X027379Y010646D01*
X027379Y010547D02*
X027849Y010547D01*
X027849Y010449D02*
X027949Y010449D01*
X027949Y010350D02*
X027849Y010350D01*
X027849Y010252D02*
X027949Y010252D01*
X027949Y010153D02*
X027849Y010153D01*
X027849Y010055D02*
X027949Y010055D01*
X028090Y010055D02*
X028339Y010055D01*
X028339Y010153D02*
X028188Y010153D01*
X028287Y010252D02*
X028339Y010252D01*
X028339Y009956D02*
X026518Y009956D01*
X026420Y010055D02*
X026666Y010055D01*
X026567Y010153D02*
X026321Y010153D01*
X026223Y010252D02*
X026469Y010252D01*
X026419Y010350D02*
X026124Y010350D01*
X026617Y009858D02*
X028339Y009858D01*
X028339Y009759D02*
X026715Y009759D01*
X026814Y009661D02*
X028339Y009661D01*
X028339Y009562D02*
X026912Y009562D01*
X026333Y009267D02*
X010413Y009267D01*
X010511Y009365D02*
X026234Y009365D01*
X026431Y009168D02*
X010314Y009168D01*
X010216Y009070D02*
X026530Y009070D01*
X026628Y008971D02*
X008309Y008971D01*
X008309Y008873D02*
X028339Y008873D01*
X028339Y008577D02*
X025110Y008577D01*
X025197Y008479D02*
X028339Y008479D01*
X028339Y008380D02*
X025241Y008380D01*
X025259Y008282D02*
X028339Y008282D01*
X028339Y008183D02*
X025259Y008183D01*
X025259Y008085D02*
X028339Y008085D01*
X027708Y010055D02*
X027132Y010055D01*
X027231Y010153D02*
X027610Y010153D01*
X027511Y010252D02*
X027329Y010252D01*
X027379Y010350D02*
X027449Y010350D01*
X027449Y010449D02*
X027379Y010449D01*
X027849Y010646D02*
X027949Y010646D01*
X027949Y010744D02*
X027849Y010744D01*
X027849Y010843D02*
X027949Y010843D01*
X027949Y010941D02*
X027849Y010941D01*
X027704Y010941D02*
X027587Y010941D01*
X027605Y010843D02*
X027489Y010843D01*
X027387Y011335D02*
X027379Y011335D01*
X027379Y011434D02*
X027419Y011434D01*
X027419Y011532D02*
X027379Y011532D01*
X027379Y011631D02*
X027419Y011631D01*
X027449Y011729D02*
X027349Y011729D01*
X027250Y011828D02*
X027548Y011828D01*
X027646Y011926D02*
X027152Y011926D01*
X027102Y012025D02*
X027696Y012025D01*
X027597Y012123D02*
X027201Y012123D01*
X027299Y012222D02*
X027499Y012222D01*
X027419Y012320D02*
X027379Y012320D01*
X027379Y012419D02*
X027419Y012419D01*
X027419Y012517D02*
X027379Y012517D01*
X027379Y012616D02*
X027419Y012616D01*
X027434Y012714D02*
X027364Y012714D01*
X027265Y012813D02*
X027533Y012813D01*
X027631Y012911D02*
X027167Y012911D01*
X028167Y012911D02*
X028339Y012911D01*
X028339Y012813D02*
X028265Y012813D01*
X028339Y013010D02*
X026059Y013010D01*
X026059Y013108D02*
X028339Y013108D01*
X028299Y012222D02*
X028339Y012222D01*
X028339Y012123D02*
X028201Y012123D01*
X028102Y012025D02*
X028339Y012025D01*
X028339Y011926D02*
X028152Y011926D01*
X028250Y011828D02*
X028339Y011828D01*
X028314Y011237D02*
X028339Y011237D01*
X028339Y011138D02*
X028216Y011138D01*
X028117Y011040D02*
X028339Y011040D01*
X028339Y010941D02*
X028094Y010941D01*
X028193Y010843D02*
X028339Y010843D01*
X028339Y010744D02*
X028291Y010744D01*
X023139Y013108D02*
X023000Y013108D01*
X023062Y013010D02*
X017156Y013010D01*
X017254Y013108D02*
X019621Y013108D01*
X019600Y013117D02*
X019762Y013050D01*
X019937Y013050D01*
X020098Y013117D01*
X020222Y013241D01*
X020289Y013402D01*
X020289Y014098D01*
X020222Y014259D01*
X020098Y014383D01*
X019937Y014450D01*
X019762Y014450D01*
X019600Y014383D01*
X019476Y014259D01*
X019409Y014098D01*
X019409Y013402D01*
X019476Y013241D01*
X019600Y013117D01*
X019510Y013207D02*
X017353Y013207D01*
X017451Y013305D02*
X019449Y013305D01*
X019409Y013404D02*
X017550Y013404D01*
X017648Y013502D02*
X019409Y013502D01*
X019409Y013601D02*
X017747Y013601D01*
X017985Y013699D02*
X019409Y013699D01*
X019409Y013798D02*
X018113Y013798D01*
X018163Y013896D02*
X019409Y013896D01*
X019409Y013995D02*
X018179Y013995D01*
X018168Y014093D02*
X019409Y014093D01*
X019448Y014192D02*
X018124Y014192D01*
X018011Y014290D02*
X019507Y014290D01*
X019613Y014389D02*
X016509Y014389D01*
X016506Y014390D02*
X016445Y014410D01*
X016381Y014420D01*
X016379Y014420D01*
X016379Y013780D01*
X016759Y013780D01*
X016759Y014042D01*
X016749Y014106D01*
X016729Y014167D01*
X016700Y014225D01*
X016662Y014277D01*
X016616Y014323D01*
X016564Y014361D01*
X016506Y014390D01*
X016379Y014389D02*
X016319Y014389D01*
X016319Y014420D02*
X016317Y014420D01*
X016253Y014410D01*
X016192Y014390D01*
X016134Y014361D01*
X016082Y014323D01*
X016036Y014277D01*
X015998Y014225D01*
X015969Y014167D01*
X015949Y014106D01*
X015939Y014042D01*
X015939Y013780D01*
X016319Y013780D01*
X016319Y014420D01*
X016319Y014290D02*
X016379Y014290D01*
X016379Y014192D02*
X016319Y014192D01*
X016319Y014093D02*
X016379Y014093D01*
X016379Y013995D02*
X016319Y013995D01*
X016319Y013896D02*
X016379Y013896D01*
X016379Y013798D02*
X016319Y013798D01*
X015939Y013798D02*
X015789Y013798D01*
X015789Y013896D02*
X015939Y013896D01*
X015939Y013995D02*
X015789Y013995D01*
X015789Y014093D02*
X015947Y014093D01*
X015981Y014192D02*
X015750Y014192D01*
X015691Y014290D02*
X016049Y014290D01*
X016189Y014389D02*
X015585Y014389D01*
X015113Y014389D02*
X015059Y014389D01*
X015059Y014487D02*
X020639Y014487D01*
X020639Y014586D02*
X015059Y014586D01*
X015059Y014684D02*
X020639Y014684D01*
X020639Y014783D02*
X015059Y014783D01*
X015059Y014881D02*
X018171Y014881D01*
X018073Y014980D02*
X015126Y014980D01*
X015224Y015078D02*
X017974Y015078D01*
X017876Y015177D02*
X015323Y015177D01*
X015421Y015275D02*
X017777Y015275D01*
X017679Y015374D02*
X015520Y015374D01*
X015559Y015472D02*
X017580Y015472D01*
X017482Y015571D02*
X015559Y015571D01*
X015559Y015669D02*
X017383Y015669D01*
X017285Y015768D02*
X015559Y015768D01*
X015559Y015866D02*
X017186Y015866D01*
X017088Y015965D02*
X015559Y015965D01*
X015559Y016063D02*
X016230Y016063D01*
X016262Y016050D02*
X016437Y016050D01*
X016598Y016117D01*
X016722Y016241D01*
X016789Y016402D01*
X016789Y017098D01*
X016722Y017259D01*
X016598Y017383D01*
X016437Y017450D01*
X016262Y017450D01*
X016100Y017383D01*
X015976Y017259D01*
X015909Y017098D01*
X015909Y016402D01*
X015976Y016241D01*
X016100Y016117D01*
X016262Y016050D01*
X016468Y016063D02*
X017014Y016063D01*
X017014Y016162D02*
X016643Y016162D01*
X016730Y016260D02*
X017014Y016260D01*
X017014Y016359D02*
X016771Y016359D01*
X016789Y016457D02*
X017014Y016457D01*
X017014Y016556D02*
X016789Y016556D01*
X016789Y016654D02*
X017014Y016654D01*
X017014Y016753D02*
X016789Y016753D01*
X016789Y016851D02*
X017014Y016851D01*
X017014Y016950D02*
X016789Y016950D01*
X016789Y017048D02*
X017014Y017048D01*
X017014Y017147D02*
X016769Y017147D01*
X016728Y017245D02*
X017014Y017245D01*
X017014Y017344D02*
X016638Y017344D01*
X016456Y017442D02*
X016985Y017442D01*
X017283Y017738D02*
X017620Y017738D01*
X017639Y017836D02*
X017185Y017836D01*
X017086Y017935D02*
X017639Y017935D01*
X017639Y018033D02*
X016603Y018033D01*
X016702Y018132D02*
X017639Y018132D01*
X017639Y018230D02*
X016800Y018230D01*
X016859Y018329D02*
X017639Y018329D01*
X017639Y018427D02*
X016859Y018427D01*
X016859Y018526D02*
X017639Y018526D01*
X017639Y018624D02*
X016859Y018624D01*
X016848Y018723D02*
X017639Y018723D01*
X017639Y018821D02*
X016749Y018821D01*
X016651Y018920D02*
X017639Y018920D01*
X017639Y019018D02*
X016128Y019018D01*
X016029Y019117D02*
X017639Y019117D01*
X017639Y019215D02*
X015931Y019215D01*
X015832Y019314D02*
X017639Y019314D01*
X017639Y019412D02*
X015734Y019412D01*
X015635Y019511D02*
X017639Y019511D01*
X017639Y019609D02*
X015537Y019609D01*
X015459Y019708D02*
X017639Y019708D01*
X017639Y019806D02*
X015459Y019806D01*
X015459Y019905D02*
X017639Y019905D01*
X017639Y020003D02*
X017487Y020003D01*
X017628Y020102D02*
X017639Y020102D01*
X018059Y019905D02*
X027339Y019905D01*
X027339Y020003D02*
X027087Y020003D01*
X027228Y020102D02*
X027339Y020102D01*
X027339Y020200D02*
X027320Y020200D01*
X027339Y019806D02*
X018059Y019806D01*
X018059Y019708D02*
X027339Y019708D01*
X027339Y019609D02*
X018059Y019609D01*
X018059Y019511D02*
X027339Y019511D01*
X027339Y019412D02*
X018059Y019412D01*
X018059Y019314D02*
X027339Y019314D01*
X027339Y019215D02*
X018059Y019215D01*
X018059Y019117D02*
X027339Y019117D01*
X027339Y019018D02*
X018059Y019018D01*
X018059Y018920D02*
X020047Y018920D01*
X019949Y018821D02*
X018059Y018821D01*
X018059Y018723D02*
X019850Y018723D01*
X019839Y018624D02*
X018059Y018624D01*
X018059Y018526D02*
X019839Y018526D01*
X019839Y018427D02*
X018059Y018427D01*
X018059Y018329D02*
X019839Y018329D01*
X019898Y018230D02*
X018059Y018230D01*
X018059Y018132D02*
X019996Y018132D01*
X020095Y018033D02*
X018059Y018033D01*
X018059Y017935D02*
X021487Y017935D01*
X021388Y017836D02*
X018059Y017836D01*
X018078Y017738D02*
X021290Y017738D01*
X021191Y017639D02*
X018149Y017639D01*
X018179Y017541D02*
X021139Y017541D01*
X021139Y017442D02*
X020956Y017442D01*
X021138Y017344D02*
X021139Y017344D01*
X020742Y017442D02*
X019956Y017442D01*
X019937Y017450D02*
X019762Y017450D01*
X019600Y017383D01*
X019476Y017259D01*
X019409Y017098D01*
X019409Y016402D01*
X019476Y016241D01*
X019600Y016117D01*
X019762Y016050D01*
X019937Y016050D01*
X020098Y016117D01*
X020222Y016241D01*
X020289Y016402D01*
X020289Y017098D01*
X020222Y017259D01*
X020098Y017383D01*
X019937Y017450D01*
X019742Y017442D02*
X018179Y017442D01*
X018141Y017344D02*
X019560Y017344D01*
X019470Y017245D02*
X018825Y017245D01*
X018810Y017260D02*
X018388Y017260D01*
X018089Y016961D01*
X018089Y016539D01*
X018388Y016240D01*
X018810Y016240D01*
X019109Y016539D01*
X019109Y016961D01*
X018810Y017260D01*
X018924Y017147D02*
X019429Y017147D01*
X019409Y017048D02*
X019022Y017048D01*
X019109Y016950D02*
X019409Y016950D01*
X019409Y016851D02*
X019109Y016851D01*
X019109Y016753D02*
X019409Y016753D01*
X019409Y016654D02*
X019109Y016654D01*
X019109Y016556D02*
X019409Y016556D01*
X019409Y016457D02*
X019027Y016457D01*
X018929Y016359D02*
X019427Y016359D01*
X019468Y016260D02*
X018830Y016260D01*
X018798Y016230D02*
X018629Y016230D01*
X018629Y015780D01*
X018569Y015780D01*
X018569Y015720D01*
X018119Y015720D01*
X018119Y015551D01*
X018400Y015270D01*
X018569Y015270D01*
X018569Y015720D01*
X018629Y015720D01*
X018629Y015270D01*
X018798Y015270D01*
X019079Y015551D01*
X019079Y015720D01*
X018629Y015720D01*
X018629Y015780D01*
X019079Y015780D01*
X019079Y015949D01*
X018798Y016230D01*
X018866Y016162D02*
X019555Y016162D01*
X019730Y016063D02*
X018965Y016063D01*
X019063Y015965D02*
X020017Y015965D01*
X019968Y016063D02*
X020115Y016063D01*
X020143Y016162D02*
X020214Y016162D01*
X020230Y016260D02*
X020312Y016260D01*
X020271Y016359D02*
X020411Y016359D01*
X020409Y016457D02*
X020289Y016457D01*
X020289Y016556D02*
X020409Y016556D01*
X020409Y016654D02*
X020289Y016654D01*
X020289Y016753D02*
X020409Y016753D01*
X020409Y016851D02*
X020289Y016851D01*
X020289Y016950D02*
X020409Y016950D01*
X020409Y017048D02*
X020289Y017048D01*
X020269Y017147D02*
X020429Y017147D01*
X020470Y017245D02*
X020228Y017245D01*
X020138Y017344D02*
X020560Y017344D01*
X020603Y018033D02*
X022269Y018033D01*
X022211Y017935D02*
X022368Y017935D01*
X022309Y017837D02*
X022309Y017837D01*
X022310Y017836D02*
X022466Y017836D01*
X022408Y017738D02*
X022565Y017738D01*
X022507Y017639D02*
X022639Y017639D01*
X022639Y017541D02*
X022559Y017541D01*
X022559Y017442D02*
X022639Y017442D01*
X022560Y017344D02*
X022559Y017344D01*
X023059Y017442D02*
X023519Y017442D01*
X023519Y017541D02*
X023059Y017541D01*
X023059Y017639D02*
X023549Y017639D01*
X023620Y017738D02*
X023059Y017738D01*
X023059Y017836D02*
X027339Y017836D01*
X027339Y017738D02*
X024078Y017738D01*
X024233Y017880D02*
X024655Y017880D01*
X024954Y018179D01*
X024954Y018601D01*
X024655Y018900D01*
X024233Y018900D01*
X023934Y018601D01*
X023934Y018179D01*
X024233Y017880D01*
X024178Y017935D02*
X022961Y017935D01*
X022863Y018033D02*
X024080Y018033D01*
X023981Y018132D02*
X022764Y018132D01*
X022666Y018230D02*
X023934Y018230D01*
X023934Y018329D02*
X022567Y018329D01*
X022469Y018427D02*
X023934Y018427D01*
X023934Y018526D02*
X022370Y018526D01*
X022272Y018624D02*
X023957Y018624D01*
X024055Y018723D02*
X020848Y018723D01*
X020749Y018821D02*
X024154Y018821D01*
X024734Y018821D02*
X026714Y018821D01*
X026615Y018723D02*
X024833Y018723D01*
X024931Y018624D02*
X026517Y018624D01*
X026494Y018526D02*
X024954Y018526D01*
X024954Y018427D02*
X026494Y018427D01*
X026494Y018329D02*
X024954Y018329D01*
X024954Y018230D02*
X026494Y018230D01*
X026541Y018132D02*
X024907Y018132D01*
X024808Y018033D02*
X026640Y018033D01*
X026738Y017935D02*
X024710Y017935D01*
X025007Y017639D02*
X027339Y017639D01*
X027339Y017541D02*
X025105Y017541D01*
X025204Y017442D02*
X027339Y017442D01*
X027339Y017344D02*
X025302Y017344D01*
X025309Y017245D02*
X027339Y017245D01*
X027339Y017147D02*
X025309Y017147D01*
X025309Y017048D02*
X026763Y017048D01*
X026805Y017090D02*
X026524Y016809D01*
X026524Y016660D01*
X026954Y016660D01*
X026954Y017090D01*
X026805Y017090D01*
X026954Y017048D02*
X027054Y017048D01*
X027054Y016950D02*
X026954Y016950D01*
X026954Y016851D02*
X027054Y016851D01*
X027054Y016753D02*
X026954Y016753D01*
X026665Y016950D02*
X025309Y016950D01*
X025309Y016851D02*
X026566Y016851D01*
X026524Y016753D02*
X025309Y016753D01*
X024889Y016950D02*
X024826Y016950D01*
X024889Y017048D02*
X024727Y017048D01*
X024889Y017147D02*
X023269Y017147D01*
X023289Y017048D02*
X024161Y017048D01*
X024062Y016950D02*
X023289Y016950D01*
X023289Y016851D02*
X023964Y016851D01*
X023934Y016753D02*
X023289Y016753D01*
X023289Y016654D02*
X023934Y016654D01*
X023934Y016556D02*
X023289Y016556D01*
X023289Y016457D02*
X023934Y016457D01*
X023974Y016359D02*
X023271Y016359D01*
X023230Y016260D02*
X024073Y016260D01*
X024171Y016162D02*
X023143Y016162D01*
X022968Y016063D02*
X024889Y016063D01*
X024889Y015965D02*
X022681Y015965D01*
X022730Y016063D02*
X022583Y016063D01*
X023280Y015866D02*
X024199Y015866D01*
X024100Y015768D02*
X023379Y015768D01*
X023477Y015669D02*
X024002Y015669D01*
X023934Y015571D02*
X023576Y015571D01*
X023674Y015472D02*
X023934Y015472D01*
X023934Y015374D02*
X023773Y015374D01*
X023871Y015275D02*
X023934Y015275D01*
X024689Y015866D02*
X024889Y015866D01*
X024889Y015768D02*
X024788Y015768D01*
X024886Y015669D02*
X024889Y015669D01*
X024889Y016162D02*
X024717Y016162D01*
X024815Y016260D02*
X024889Y016260D01*
X024807Y017245D02*
X024061Y017245D01*
X023637Y017245D02*
X023228Y017245D01*
X023138Y017344D02*
X023557Y017344D01*
X022436Y017710D02*
X022436Y017710D01*
X022171Y018132D02*
X020702Y018132D01*
X020800Y018230D02*
X022072Y018230D01*
X020651Y018920D02*
X027339Y018920D01*
X027339Y018821D02*
X027294Y018821D01*
X027270Y017935D02*
X027339Y017935D01*
X027339Y017048D02*
X027245Y017048D01*
X023139Y014389D02*
X023009Y014389D01*
X023065Y014487D02*
X021059Y014487D01*
X021059Y014586D02*
X022967Y014586D01*
X022868Y014684D02*
X021059Y014684D01*
X021059Y014783D02*
X022770Y014783D01*
X022817Y014420D02*
X022753Y014410D01*
X022692Y014390D01*
X022634Y014361D01*
X022582Y014323D01*
X022536Y014277D01*
X022498Y014225D01*
X022469Y014167D01*
X022449Y014106D01*
X022439Y014042D01*
X022439Y013780D01*
X022819Y013780D01*
X022819Y014420D01*
X022817Y014420D01*
X022819Y014389D02*
X022879Y014389D01*
X022879Y014290D02*
X022819Y014290D01*
X022819Y014192D02*
X022879Y014192D01*
X022879Y014093D02*
X022819Y014093D01*
X022819Y013995D02*
X022879Y013995D01*
X022879Y013896D02*
X022819Y013896D01*
X022819Y013798D02*
X022879Y013798D01*
X022879Y013699D02*
X022819Y013699D01*
X022819Y013601D02*
X022879Y013601D01*
X022879Y013502D02*
X022819Y013502D01*
X022819Y013404D02*
X022879Y013404D01*
X022879Y013305D02*
X022819Y013305D01*
X022819Y013207D02*
X022879Y013207D01*
X022879Y013108D02*
X022819Y013108D01*
X022698Y013108D02*
X022077Y013108D01*
X022098Y013117D02*
X022222Y013241D01*
X022289Y013402D01*
X022289Y014098D01*
X022222Y014259D01*
X022098Y014383D01*
X021937Y014450D01*
X021762Y014450D01*
X021600Y014383D01*
X021476Y014259D01*
X021409Y014098D01*
X021409Y013402D01*
X021476Y013241D01*
X021600Y013117D01*
X021762Y013050D01*
X021937Y013050D01*
X022098Y013117D01*
X022188Y013207D02*
X022553Y013207D01*
X022483Y013305D02*
X022249Y013305D01*
X022289Y013404D02*
X022448Y013404D01*
X022439Y013502D02*
X022289Y013502D01*
X022289Y013601D02*
X022439Y013601D01*
X022439Y013699D02*
X022289Y013699D01*
X022289Y013798D02*
X022439Y013798D01*
X022439Y013896D02*
X022289Y013896D01*
X022289Y013995D02*
X022439Y013995D01*
X022447Y014093D02*
X022289Y014093D01*
X022250Y014192D02*
X022481Y014192D01*
X022549Y014290D02*
X022191Y014290D01*
X022085Y014389D02*
X022689Y014389D01*
X022171Y014881D02*
X021059Y014881D01*
X021059Y014980D02*
X022073Y014980D01*
X021974Y015078D02*
X021059Y015078D01*
X021059Y015177D02*
X021876Y015177D01*
X021777Y015275D02*
X021059Y015275D01*
X021059Y015374D02*
X021679Y015374D01*
X021639Y015472D02*
X021118Y015472D01*
X021217Y015571D02*
X021639Y015571D01*
X021639Y015669D02*
X021315Y015669D01*
X021414Y015768D02*
X021639Y015768D01*
X021639Y015866D02*
X021512Y015866D01*
X021559Y015965D02*
X021639Y015965D01*
X021639Y016063D02*
X021559Y016063D01*
X021115Y016063D02*
X020968Y016063D01*
X021017Y015965D02*
X020611Y015965D01*
X020709Y016063D02*
X020730Y016063D01*
X020918Y015866D02*
X020512Y015866D01*
X020414Y015768D02*
X020820Y015768D01*
X020721Y015669D02*
X020315Y015669D01*
X020217Y015571D02*
X020639Y015571D01*
X020639Y015472D02*
X020118Y015472D01*
X020020Y015374D02*
X020639Y015374D01*
X020639Y015275D02*
X019921Y015275D01*
X019823Y015177D02*
X020639Y015177D01*
X020639Y015078D02*
X019724Y015078D01*
X019626Y014980D02*
X020639Y014980D01*
X020639Y014881D02*
X019527Y014881D01*
X019327Y015275D02*
X018803Y015275D01*
X018901Y015374D02*
X019426Y015374D01*
X019524Y015472D02*
X019000Y015472D01*
X019079Y015571D02*
X019623Y015571D01*
X019721Y015669D02*
X019079Y015669D01*
X019079Y015866D02*
X019918Y015866D01*
X019820Y015768D02*
X018629Y015768D01*
X018569Y015768D02*
X017879Y015768D01*
X017977Y015669D02*
X018119Y015669D01*
X018119Y015571D02*
X018076Y015571D01*
X018174Y015472D02*
X018198Y015472D01*
X018273Y015374D02*
X018297Y015374D01*
X018371Y015275D02*
X018395Y015275D01*
X018569Y015275D02*
X018629Y015275D01*
X018629Y015374D02*
X018569Y015374D01*
X018569Y015472D02*
X018629Y015472D01*
X018629Y015571D02*
X018569Y015571D01*
X018569Y015669D02*
X018629Y015669D01*
X018569Y015780D02*
X018119Y015780D01*
X018119Y015949D01*
X018400Y016230D01*
X018569Y016230D01*
X018569Y015780D01*
X018569Y015866D02*
X018629Y015866D01*
X018629Y015965D02*
X018569Y015965D01*
X018569Y016063D02*
X018629Y016063D01*
X018629Y016162D02*
X018569Y016162D01*
X018368Y016260D02*
X017434Y016260D01*
X017434Y016359D02*
X018269Y016359D01*
X018171Y016457D02*
X017434Y016457D01*
X017434Y016556D02*
X018089Y016556D01*
X018089Y016654D02*
X017434Y016654D01*
X017434Y016753D02*
X018089Y016753D01*
X018089Y016851D02*
X017434Y016851D01*
X017434Y016950D02*
X018089Y016950D01*
X018176Y017048D02*
X017434Y017048D01*
X017434Y017147D02*
X018274Y017147D01*
X018373Y017245D02*
X018061Y017245D01*
X017637Y017245D02*
X017434Y017245D01*
X017434Y017344D02*
X017557Y017344D01*
X017519Y017442D02*
X017434Y017442D01*
X017434Y017541D02*
X017519Y017541D01*
X017549Y017639D02*
X017382Y017639D01*
X016242Y017442D02*
X015456Y017442D01*
X015638Y017344D02*
X016060Y017344D01*
X015970Y017245D02*
X015728Y017245D01*
X015769Y017147D02*
X015929Y017147D01*
X015909Y017048D02*
X015789Y017048D01*
X015789Y016950D02*
X015909Y016950D01*
X015909Y016851D02*
X015789Y016851D01*
X015789Y016753D02*
X015909Y016753D01*
X015909Y016654D02*
X015789Y016654D01*
X015789Y016556D02*
X015909Y016556D01*
X015909Y016457D02*
X015789Y016457D01*
X015771Y016359D02*
X015927Y016359D01*
X015968Y016260D02*
X015730Y016260D01*
X015643Y016162D02*
X016055Y016162D01*
X015139Y016063D02*
X014468Y016063D01*
X014643Y016162D02*
X015055Y016162D01*
X014968Y016260D02*
X014730Y016260D01*
X014771Y016359D02*
X014927Y016359D01*
X014909Y016457D02*
X014789Y016457D01*
X014789Y016556D02*
X014909Y016556D01*
X014909Y016654D02*
X014789Y016654D01*
X014789Y016753D02*
X014909Y016753D01*
X014909Y016851D02*
X014789Y016851D01*
X014789Y016950D02*
X014909Y016950D01*
X014909Y017048D02*
X014789Y017048D01*
X014769Y017147D02*
X014929Y017147D01*
X014970Y017245D02*
X014728Y017245D01*
X014638Y017344D02*
X015060Y017344D01*
X015242Y017442D02*
X014588Y017442D01*
X014290Y017738D02*
X010578Y017738D01*
X010845Y018033D02*
X008816Y018033D01*
X008915Y017935D02*
X014487Y017935D01*
X014388Y017836D02*
X009013Y017836D01*
X009112Y017738D02*
X010120Y017738D01*
X010049Y017639D02*
X009210Y017639D01*
X009309Y017541D02*
X010019Y017541D01*
X010019Y017442D02*
X009407Y017442D01*
X009506Y017344D02*
X010057Y017344D01*
X010137Y017245D02*
X009604Y017245D01*
X009703Y017147D02*
X011774Y017147D01*
X011873Y017245D02*
X010561Y017245D01*
X009998Y016851D02*
X011589Y016851D01*
X011589Y016753D02*
X010097Y016753D01*
X010195Y016654D02*
X011589Y016654D01*
X011589Y016556D02*
X010294Y016556D01*
X010392Y016457D02*
X011671Y016457D01*
X011589Y016539D02*
X011888Y016240D01*
X012310Y016240D01*
X012609Y016539D01*
X012609Y016961D01*
X012310Y017260D01*
X011888Y017260D01*
X011589Y016961D01*
X011589Y016539D01*
X011769Y016359D02*
X010491Y016359D01*
X010589Y016260D02*
X011868Y016260D01*
X011900Y016230D02*
X011619Y015949D01*
X011619Y015780D01*
X012069Y015780D01*
X012069Y015720D01*
X011619Y015720D01*
X011619Y015551D01*
X011900Y015270D01*
X012069Y015270D01*
X012069Y015720D01*
X012129Y015720D01*
X012129Y015270D01*
X012298Y015270D01*
X012579Y015551D01*
X012579Y015720D01*
X012129Y015720D01*
X012129Y015780D01*
X012069Y015780D01*
X012069Y016230D01*
X011900Y016230D01*
X011832Y016162D02*
X010688Y016162D01*
X010786Y016063D02*
X011733Y016063D01*
X011635Y015965D02*
X010885Y015965D01*
X010983Y015866D02*
X011619Y015866D01*
X011619Y015669D02*
X011180Y015669D01*
X011279Y015571D02*
X011619Y015571D01*
X011698Y015472D02*
X011377Y015472D01*
X011476Y015374D02*
X011797Y015374D01*
X011895Y015275D02*
X011574Y015275D01*
X011673Y015177D02*
X014729Y015177D01*
X014639Y015078D02*
X011771Y015078D01*
X011870Y014980D02*
X014639Y014980D01*
X014639Y014881D02*
X011968Y014881D01*
X012067Y014783D02*
X014639Y014783D01*
X014639Y014684D02*
X012165Y014684D01*
X012264Y014586D02*
X014639Y014586D01*
X014639Y014487D02*
X012349Y014487D01*
X012349Y014389D02*
X013113Y014389D01*
X013100Y014383D02*
X012976Y014259D01*
X012909Y014098D01*
X012909Y013402D01*
X012976Y013241D01*
X013100Y013117D01*
X013262Y013050D01*
X013437Y013050D01*
X013598Y013117D01*
X013722Y013241D01*
X013789Y013402D01*
X013789Y014098D01*
X013722Y014259D01*
X013598Y014383D01*
X013437Y014450D01*
X013262Y014450D01*
X013100Y014383D01*
X013007Y014290D02*
X012349Y014290D01*
X012349Y014192D02*
X012948Y014192D01*
X012909Y014093D02*
X012349Y014093D01*
X012349Y013995D02*
X012909Y013995D01*
X012909Y013896D02*
X012349Y013896D01*
X012349Y013798D02*
X012909Y013798D01*
X012909Y013699D02*
X012349Y013699D01*
X012349Y013601D02*
X012909Y013601D01*
X012909Y013502D02*
X012349Y013502D01*
X012349Y013404D02*
X012909Y013404D01*
X012949Y013305D02*
X012349Y013305D01*
X012349Y013207D02*
X013010Y013207D01*
X013121Y013108D02*
X012349Y013108D01*
X012349Y013010D02*
X014562Y013010D01*
X014577Y013108D02*
X014639Y013108D01*
X014463Y012911D02*
X012349Y012911D01*
X012349Y012813D02*
X014365Y012813D01*
X014266Y012714D02*
X012349Y012714D01*
X012349Y012616D02*
X014168Y012616D01*
X014139Y012517D02*
X012349Y012517D01*
X012349Y012419D02*
X014139Y012419D01*
X014139Y012320D02*
X012349Y012320D01*
X012349Y012222D02*
X014139Y012222D01*
X014139Y012123D02*
X012349Y012123D01*
X012349Y012025D02*
X014139Y012025D01*
X014139Y011926D02*
X012349Y011926D01*
X012349Y011828D02*
X014139Y011828D01*
X014139Y011729D02*
X012349Y011729D01*
X012349Y011631D02*
X013097Y011631D01*
X012999Y011532D02*
X012349Y011532D01*
X012349Y011434D02*
X012945Y011434D01*
X012909Y011335D02*
X012349Y011335D01*
X012363Y011237D02*
X012909Y011237D01*
X012909Y011138D02*
X012461Y011138D01*
X012560Y011040D02*
X012909Y011040D01*
X013789Y011040D02*
X013909Y011040D01*
X013909Y011138D02*
X013789Y011138D01*
X013789Y011237D02*
X013909Y011237D01*
X013909Y011335D02*
X013789Y011335D01*
X013753Y011434D02*
X013945Y011434D01*
X013999Y011532D02*
X013699Y011532D01*
X013601Y011631D02*
X014097Y011631D01*
X014559Y011729D02*
X015139Y011729D01*
X015139Y011828D02*
X014559Y011828D01*
X014559Y011926D02*
X015139Y011926D01*
X015139Y012025D02*
X014559Y012025D01*
X014559Y012123D02*
X015139Y012123D01*
X015139Y012222D02*
X014559Y012222D01*
X014559Y012320D02*
X015139Y012320D01*
X015139Y012419D02*
X014565Y012419D01*
X014663Y012517D02*
X015139Y012517D01*
X015168Y012616D02*
X014762Y012616D01*
X014860Y012714D02*
X015266Y012714D01*
X015365Y012813D02*
X014959Y012813D01*
X015057Y012911D02*
X015463Y012911D01*
X015562Y013010D02*
X015059Y013010D01*
X015059Y013108D02*
X015121Y013108D01*
X015577Y013108D02*
X015660Y013108D01*
X015688Y013207D02*
X015759Y013207D01*
X015749Y013305D02*
X015983Y013305D01*
X015948Y013404D02*
X015789Y013404D01*
X015789Y013502D02*
X015939Y013502D01*
X015939Y013601D02*
X015789Y013601D01*
X015789Y013699D02*
X015939Y013699D01*
X016649Y014290D02*
X017687Y014290D01*
X017574Y014192D02*
X016717Y014192D01*
X016751Y014093D02*
X017530Y014093D01*
X017519Y013995D02*
X016759Y013995D01*
X016759Y013896D02*
X017448Y013896D01*
X017350Y013798D02*
X016759Y013798D01*
X016759Y013699D02*
X017251Y013699D01*
X017153Y013601D02*
X016759Y013601D01*
X016759Y013502D02*
X017054Y013502D01*
X016956Y013404D02*
X016750Y013404D01*
X016715Y013305D02*
X016857Y013305D01*
X017057Y012911D02*
X022963Y012911D01*
X022865Y012813D02*
X016959Y012813D01*
X015860Y012714D02*
X022766Y012714D01*
X022668Y012616D02*
X015762Y012616D01*
X015663Y012517D02*
X022639Y012517D01*
X022639Y012419D02*
X015565Y012419D01*
X015559Y012320D02*
X022639Y012320D01*
X022639Y012222D02*
X015559Y012222D01*
X015559Y012123D02*
X022639Y012123D01*
X022639Y012025D02*
X015559Y012025D01*
X015559Y011926D02*
X022639Y011926D01*
X022639Y011828D02*
X015559Y011828D01*
X015559Y011729D02*
X022639Y011729D01*
X022597Y011631D02*
X022101Y011631D01*
X022199Y011532D02*
X022499Y011532D01*
X022445Y011434D02*
X022253Y011434D01*
X022289Y011335D02*
X022409Y011335D01*
X022409Y011237D02*
X022289Y011237D01*
X022289Y011138D02*
X022409Y011138D01*
X022409Y011040D02*
X022289Y011040D01*
X021409Y011040D02*
X020719Y011040D01*
X020703Y011138D02*
X021409Y011138D01*
X021409Y011237D02*
X020662Y011237D01*
X020589Y011335D02*
X021409Y011335D01*
X021445Y011434D02*
X020471Y011434D01*
X019977Y011434D02*
X017887Y011434D01*
X017985Y011335D02*
X019859Y011335D01*
X019786Y011237D02*
X018084Y011237D01*
X018109Y011138D02*
X019745Y011138D01*
X019729Y011040D02*
X018109Y011040D01*
X017311Y011434D02*
X016753Y011434D01*
X016789Y011335D02*
X017213Y011335D01*
X017114Y011237D02*
X016789Y011237D01*
X016789Y011138D02*
X017089Y011138D01*
X017089Y011040D02*
X016789Y011040D01*
X016699Y011532D02*
X021499Y011532D01*
X021597Y011631D02*
X016601Y011631D01*
X016097Y011631D02*
X015601Y011631D01*
X015699Y011532D02*
X015999Y011532D01*
X015945Y011434D02*
X015753Y011434D01*
X015789Y011335D02*
X015909Y011335D01*
X015909Y011237D02*
X015789Y011237D01*
X015789Y011138D02*
X015909Y011138D01*
X015909Y011040D02*
X015789Y011040D01*
X015097Y011631D02*
X014601Y011631D01*
X014699Y011532D02*
X014999Y011532D01*
X014945Y011434D02*
X014753Y011434D01*
X014789Y011335D02*
X014909Y011335D01*
X014909Y011237D02*
X014789Y011237D01*
X014789Y011138D02*
X014909Y011138D01*
X014909Y011040D02*
X014789Y011040D01*
X011913Y010153D02*
X010844Y010153D01*
X010798Y010252D02*
X011816Y010252D01*
X011718Y010350D02*
X010699Y010350D01*
X010601Y010449D02*
X011620Y010449D01*
X011599Y010547D02*
X009559Y010547D01*
X009560Y010449D02*
X010098Y010449D01*
X009999Y010350D02*
X009699Y010350D01*
X009781Y010252D02*
X009901Y010252D01*
X009854Y010153D02*
X009821Y010153D01*
X009844Y010055D02*
X009854Y010055D01*
X009844Y009956D02*
X009854Y009956D01*
X009854Y009858D02*
X009826Y009858D01*
X009785Y009759D02*
X009890Y009759D01*
X009988Y009661D02*
X009710Y009661D01*
X009585Y009562D02*
X010087Y009562D01*
X010016Y009464D02*
X009058Y009464D01*
X009113Y009562D02*
X008959Y009562D01*
X008988Y009661D02*
X008861Y009661D01*
X008913Y009759D02*
X008762Y009759D01*
X008684Y009858D02*
X008872Y009858D01*
X008854Y009956D02*
X008684Y009956D01*
X008684Y010055D02*
X008854Y010055D01*
X008877Y010153D02*
X008684Y010153D01*
X008684Y010252D02*
X008917Y010252D01*
X008999Y010350D02*
X008684Y010350D01*
X008684Y010449D02*
X009138Y010449D01*
X009139Y010547D02*
X008684Y010547D01*
X008684Y010646D02*
X009139Y010646D01*
X009139Y010744D02*
X008652Y010744D01*
X008554Y010843D02*
X009139Y010843D01*
X009111Y010941D02*
X008455Y010941D01*
X008357Y011040D02*
X009013Y011040D01*
X008914Y011138D02*
X008258Y011138D01*
X008160Y011237D02*
X008816Y011237D01*
X008717Y011335D02*
X008061Y011335D01*
X007963Y011434D02*
X008619Y011434D01*
X008520Y011532D02*
X007864Y011532D01*
X007766Y011631D02*
X008422Y011631D01*
X008323Y011729D02*
X007667Y011729D01*
X007569Y011828D02*
X008225Y011828D01*
X008126Y011926D02*
X007470Y011926D01*
X007345Y012025D02*
X008028Y012025D01*
X007929Y012123D02*
X007443Y012123D01*
X007542Y012222D02*
X007831Y012222D01*
X008129Y012517D02*
X011069Y012517D01*
X011069Y012530D02*
X011069Y012470D01*
X010619Y012470D01*
X010619Y012301D01*
X010900Y012020D01*
X011069Y012020D01*
X011069Y012470D01*
X011129Y012470D01*
X011129Y012020D01*
X011298Y012020D01*
X011579Y012301D01*
X011579Y012470D01*
X011129Y012470D01*
X011129Y012530D01*
X011069Y012530D01*
X010619Y012530D01*
X010619Y012699D01*
X010900Y012980D01*
X011069Y012980D01*
X011069Y012530D01*
X011129Y012530D02*
X011129Y012980D01*
X011298Y012980D01*
X011579Y012699D01*
X011579Y012530D01*
X011129Y012530D01*
X011129Y012517D02*
X011599Y012517D01*
X011599Y012419D02*
X011579Y012419D01*
X011579Y012320D02*
X011599Y012320D01*
X011599Y012222D02*
X011499Y012222D01*
X011401Y012123D02*
X011599Y012123D01*
X011599Y012025D02*
X011302Y012025D01*
X011129Y012025D02*
X011069Y012025D01*
X011069Y012123D02*
X011129Y012123D01*
X011129Y012222D02*
X011069Y012222D01*
X011069Y012320D02*
X011129Y012320D01*
X011129Y012419D02*
X011069Y012419D01*
X011069Y012616D02*
X011129Y012616D01*
X011129Y012714D02*
X011069Y012714D01*
X011069Y012813D02*
X011129Y012813D01*
X011129Y012911D02*
X011069Y012911D01*
X010868Y013010D02*
X007330Y013010D01*
X007409Y012911D02*
X010831Y012911D01*
X010733Y012813D02*
X007508Y012813D01*
X007606Y012714D02*
X010634Y012714D01*
X010619Y012616D02*
X008031Y012616D01*
X008228Y012419D02*
X010619Y012419D01*
X010619Y012320D02*
X008326Y012320D01*
X008425Y012222D02*
X010699Y012222D01*
X010797Y012123D02*
X008523Y012123D01*
X008622Y012025D02*
X010896Y012025D01*
X011599Y011926D02*
X008720Y011926D01*
X008819Y011828D02*
X011599Y011828D01*
X011599Y011729D02*
X008917Y011729D01*
X009016Y011631D02*
X011599Y011631D01*
X011599Y011532D02*
X009114Y011532D01*
X009213Y011434D02*
X011599Y011434D01*
X011599Y011335D02*
X009311Y011335D01*
X009410Y011237D02*
X011599Y011237D01*
X011599Y011138D02*
X009508Y011138D01*
X009559Y011040D02*
X011599Y011040D01*
X011599Y010941D02*
X009559Y010941D01*
X009559Y010843D02*
X011599Y010843D01*
X011599Y010744D02*
X009559Y010744D01*
X009559Y010646D02*
X011599Y010646D01*
X008858Y009070D02*
X008309Y009070D01*
X008309Y009168D02*
X008759Y009168D01*
X008661Y009267D02*
X008309Y009267D01*
X008309Y009365D02*
X008562Y009365D01*
X008464Y009464D02*
X008309Y009464D01*
X008309Y009562D02*
X008365Y009562D01*
X008267Y009661D02*
X008236Y009661D01*
X008264Y009759D02*
X008137Y009759D01*
X008039Y009858D02*
X008264Y009858D01*
X008264Y009956D02*
X007940Y009956D01*
X007842Y010055D02*
X008264Y010055D01*
X008264Y010153D02*
X007743Y010153D01*
X007645Y010252D02*
X008264Y010252D01*
X008264Y010350D02*
X007546Y010350D01*
X007448Y010449D02*
X008264Y010449D01*
X008255Y010547D02*
X007349Y010547D01*
X007251Y010646D02*
X008157Y010646D01*
X008058Y010744D02*
X007152Y010744D01*
X007054Y010843D02*
X007960Y010843D01*
X007861Y010941D02*
X006955Y010941D01*
X006857Y011040D02*
X007763Y011040D01*
X007664Y011138D02*
X006758Y011138D01*
X006660Y011237D02*
X007566Y011237D01*
X007467Y011335D02*
X006561Y011335D01*
X006463Y011434D02*
X007369Y011434D01*
X007270Y011532D02*
X006364Y011532D01*
X006266Y011631D02*
X006672Y011631D01*
X006573Y011729D02*
X006167Y011729D01*
X006069Y011828D02*
X006475Y011828D01*
X006376Y011926D02*
X005970Y011926D01*
X005872Y012025D02*
X006278Y012025D01*
X006179Y012123D02*
X005773Y012123D01*
X005684Y012222D02*
X006139Y012222D01*
X006139Y012320D02*
X005684Y012320D01*
X004621Y012222D02*
X004078Y012222D01*
X004119Y012320D02*
X004579Y012320D01*
X004480Y012419D02*
X004218Y012419D01*
X004316Y012517D02*
X004382Y012517D01*
X004354Y012616D02*
X004344Y012616D01*
X004344Y012714D02*
X004354Y012714D01*
X004344Y012813D02*
X004354Y012813D01*
X004344Y012911D02*
X004354Y012911D01*
X004409Y013010D02*
X004290Y013010D01*
X004254Y013108D02*
X004507Y013108D01*
X004606Y013207D02*
X004353Y013207D01*
X003956Y013404D02*
X003550Y013404D01*
X003648Y013502D02*
X004054Y013502D01*
X004153Y013601D02*
X003747Y013601D01*
X003845Y013699D02*
X004251Y013699D01*
X003857Y013305D02*
X003451Y013305D01*
X003353Y013207D02*
X003606Y013207D01*
X003507Y013108D02*
X003254Y013108D01*
X003290Y013010D02*
X003409Y013010D01*
X003354Y012911D02*
X003344Y012911D01*
X003344Y012813D02*
X003354Y012813D01*
X003344Y012714D02*
X003354Y012714D01*
X003344Y012616D02*
X003354Y012616D01*
X003382Y012517D02*
X003316Y012517D01*
X003218Y012419D02*
X003480Y012419D01*
X003579Y012320D02*
X003119Y012320D01*
X003078Y012222D02*
X003621Y012222D01*
X003522Y012123D02*
X003176Y012123D01*
X003275Y012025D02*
X003424Y012025D01*
X003354Y011926D02*
X003344Y011926D01*
X003344Y011828D02*
X003354Y011828D01*
X003344Y011729D02*
X003354Y011729D01*
X003344Y011631D02*
X003354Y011631D01*
X003367Y011532D02*
X003331Y011532D01*
X003233Y011434D02*
X003465Y011434D01*
X003564Y011335D02*
X003134Y011335D01*
X004059Y011237D02*
X006066Y011237D01*
X006164Y011138D02*
X004059Y011138D01*
X004107Y011040D02*
X006263Y011040D01*
X006576Y012320D02*
X006589Y012320D01*
X006589Y012419D02*
X006559Y012419D01*
X006559Y012517D02*
X006589Y012517D01*
X006589Y012616D02*
X006559Y012616D01*
X006559Y012714D02*
X006592Y012714D01*
X006559Y012813D02*
X006690Y012813D01*
X006789Y012911D02*
X006559Y012911D01*
X006559Y013010D02*
X006868Y013010D01*
X006770Y013108D02*
X006559Y013108D01*
X006559Y013207D02*
X006671Y013207D01*
X006589Y013305D02*
X006559Y013305D01*
X006559Y013404D02*
X006589Y013404D01*
X006589Y013502D02*
X006559Y013502D01*
X006546Y013601D02*
X006589Y013601D01*
X006589Y013699D02*
X006447Y013699D01*
X006349Y013798D02*
X006675Y013798D01*
X006774Y013896D02*
X006250Y013896D01*
X006152Y013995D02*
X006872Y013995D01*
X007395Y014093D02*
X006053Y014093D01*
X005221Y013207D02*
X005093Y013207D01*
X005191Y013108D02*
X005264Y013108D01*
X004522Y012123D02*
X004176Y012123D01*
X004275Y012025D02*
X004424Y012025D01*
X004354Y011926D02*
X004344Y011926D01*
X004344Y011828D02*
X004354Y011828D01*
X004344Y011729D02*
X004354Y011729D01*
X004344Y011631D02*
X004354Y011631D01*
X004367Y011532D02*
X004331Y011532D01*
X004233Y011434D02*
X004465Y011434D01*
X004564Y011335D02*
X004134Y011335D01*
X004205Y010941D02*
X004348Y010941D01*
X002432Y009858D02*
X002359Y009858D01*
X002359Y008085D02*
X002369Y008085D01*
X006606Y008085D02*
X006711Y008085D01*
X006704Y008183D02*
X006737Y008183D01*
X007174Y007789D02*
X007274Y007789D01*
X007274Y007691D02*
X007174Y007691D01*
X007174Y007592D02*
X007274Y007592D01*
X009543Y007494D02*
X010093Y007494D01*
X009995Y007395D02*
X009704Y007395D01*
X009800Y007297D02*
X009896Y007297D01*
X011579Y012616D02*
X011599Y012616D01*
X011599Y012714D02*
X011564Y012714D01*
X011599Y012813D02*
X011465Y012813D01*
X011367Y012911D02*
X011599Y012911D01*
X011599Y013010D02*
X011330Y013010D01*
X011428Y013108D02*
X011599Y013108D01*
X011599Y013207D02*
X011527Y013207D01*
X010770Y013108D02*
X007428Y013108D01*
X007527Y013207D02*
X010671Y013207D01*
X010589Y013305D02*
X007609Y013305D01*
X007609Y013404D02*
X010589Y013404D01*
X010589Y013502D02*
X007609Y013502D01*
X007609Y013601D02*
X010589Y013601D01*
X010589Y013699D02*
X007609Y013699D01*
X007694Y013798D02*
X010675Y013798D01*
X010774Y013896D02*
X007792Y013896D01*
X007891Y013995D02*
X010872Y013995D01*
X011326Y013995D02*
X011599Y013995D01*
X011599Y013896D02*
X011424Y013896D01*
X011523Y013798D02*
X011599Y013798D01*
X011506Y014093D02*
X010272Y014093D01*
X010269Y014090D02*
X010509Y014330D01*
X010509Y014470D01*
X010129Y014470D01*
X010129Y014090D01*
X010269Y014090D01*
X010129Y014093D02*
X010069Y014093D01*
X010069Y014090D02*
X010069Y014470D01*
X009689Y014470D01*
X009689Y014330D01*
X009929Y014090D01*
X010069Y014090D01*
X010069Y014192D02*
X010129Y014192D01*
X010129Y014290D02*
X010069Y014290D01*
X010069Y014389D02*
X010129Y014389D01*
X010129Y014470D02*
X010069Y014470D01*
X010069Y014530D01*
X009689Y014530D01*
X009689Y014670D01*
X009929Y014910D01*
X010069Y014910D01*
X010069Y014530D01*
X010129Y014530D01*
X010129Y014910D01*
X010269Y014910D01*
X010509Y014670D01*
X010509Y014530D01*
X010129Y014530D01*
X010129Y014470D01*
X010129Y014487D02*
X011112Y014487D01*
X011211Y014389D02*
X010509Y014389D01*
X010469Y014290D02*
X011309Y014290D01*
X011408Y014192D02*
X010370Y014192D01*
X010069Y014487D02*
X008539Y014487D01*
X008539Y014389D02*
X009689Y014389D01*
X009729Y014290D02*
X008511Y014290D01*
X008413Y014192D02*
X009828Y014192D01*
X009926Y014093D02*
X008314Y014093D01*
X007659Y014389D02*
X002359Y014389D01*
X002359Y014487D02*
X007659Y014487D01*
X007659Y014586D02*
X002359Y014586D01*
X002359Y014684D02*
X007661Y014684D01*
X007759Y014783D02*
X002359Y014783D01*
X002359Y014881D02*
X007858Y014881D01*
X008340Y014881D02*
X009900Y014881D01*
X009802Y014783D02*
X008439Y014783D01*
X008537Y014684D02*
X009703Y014684D01*
X009689Y014586D02*
X008539Y014586D01*
X010069Y014586D02*
X010129Y014586D01*
X010129Y014684D02*
X010069Y014684D01*
X010069Y014783D02*
X010129Y014783D01*
X010129Y014881D02*
X010069Y014881D01*
X010298Y014881D02*
X010718Y014881D01*
X010817Y014783D02*
X010396Y014783D01*
X010495Y014684D02*
X010915Y014684D01*
X011014Y014586D02*
X010509Y014586D01*
X010620Y014980D02*
X002359Y014980D01*
X002359Y015078D02*
X010521Y015078D01*
X010423Y015177D02*
X002359Y015177D01*
X002359Y015275D02*
X010324Y015275D01*
X010226Y015374D02*
X002359Y015374D01*
X002359Y015472D02*
X010127Y015472D01*
X010029Y015571D02*
X002359Y015571D01*
X002359Y015669D02*
X009930Y015669D01*
X009832Y015768D02*
X002359Y015768D01*
X002359Y015866D02*
X009733Y015866D01*
X009635Y015965D02*
X002359Y015965D01*
X002359Y016063D02*
X009536Y016063D01*
X009438Y016162D02*
X002359Y016162D01*
X002359Y016260D02*
X009339Y016260D01*
X009241Y016359D02*
X002359Y016359D01*
X002359Y016457D02*
X009142Y016457D01*
X009044Y016556D02*
X002359Y016556D01*
X002359Y016654D02*
X008945Y016654D01*
X008847Y016753D02*
X002359Y016753D01*
X002359Y016851D02*
X008748Y016851D01*
X008650Y016950D02*
X002359Y016950D01*
X002359Y017048D02*
X008551Y017048D01*
X008453Y017147D02*
X002359Y017147D01*
X002359Y017245D02*
X008354Y017245D01*
X008256Y017344D02*
X002359Y017344D01*
X002359Y017442D02*
X008157Y017442D01*
X008059Y017541D02*
X002359Y017541D01*
X002359Y017639D02*
X007960Y017639D01*
X007862Y017738D02*
X002359Y017738D01*
X002359Y017836D02*
X007763Y017836D01*
X007665Y017935D02*
X002359Y017935D01*
X002359Y018033D02*
X007566Y018033D01*
X007468Y018132D02*
X002359Y018132D01*
X002359Y018230D02*
X006294Y018230D01*
X006314Y018211D02*
X006484Y018211D01*
X006484Y018662D01*
X006032Y018662D01*
X006032Y018492D01*
X006314Y018211D01*
X006196Y018329D02*
X002359Y018329D01*
X002359Y018427D02*
X006097Y018427D01*
X006032Y018526D02*
X002359Y018526D01*
X002359Y018624D02*
X006032Y018624D01*
X006032Y018723D02*
X002359Y018723D01*
X002359Y018821D02*
X006032Y018821D01*
X006062Y018920D02*
X002359Y018920D01*
X002359Y019018D02*
X006161Y019018D01*
X006259Y019117D02*
X002359Y019117D01*
X002805Y019215D02*
X006251Y019215D01*
X006153Y019314D02*
X002904Y019314D01*
X003002Y019412D02*
X006054Y019412D01*
X006002Y019511D02*
X003075Y019511D01*
X003075Y019609D02*
X006002Y019609D01*
X006002Y019708D02*
X003075Y019708D01*
X003075Y019806D02*
X006002Y019806D01*
X006021Y019905D02*
X003036Y019905D01*
X002937Y020003D02*
X006119Y020003D01*
X006218Y020102D02*
X002839Y020102D01*
X002391Y020102D02*
X002359Y020102D01*
X002359Y020200D02*
X006250Y020200D01*
X006152Y020299D02*
X002359Y020299D01*
X002359Y020397D02*
X006053Y020397D01*
X006002Y020496D02*
X002359Y020496D01*
X002359Y020594D02*
X006002Y020594D01*
X006002Y020693D02*
X002359Y020693D01*
X002361Y020791D02*
X006002Y020791D01*
X006021Y020890D02*
X002460Y020890D01*
X002558Y020988D02*
X006120Y020988D01*
X006905Y020988D02*
X007099Y020988D01*
X007099Y020890D02*
X007003Y020890D01*
X007022Y020791D02*
X007099Y020791D01*
X007099Y020693D02*
X007022Y020693D01*
X007022Y020594D02*
X007099Y020594D01*
X007099Y020496D02*
X007022Y020496D01*
X006971Y020397D02*
X007099Y020397D01*
X007099Y020299D02*
X006873Y020299D01*
X006774Y020200D02*
X007099Y020200D01*
X007099Y020102D02*
X006807Y020102D01*
X006906Y020003D02*
X007099Y020003D01*
X007099Y019905D02*
X007004Y019905D01*
X007022Y019806D02*
X007099Y019806D01*
X007099Y019708D02*
X007022Y019708D01*
X007022Y019609D02*
X007099Y019609D01*
X007099Y019511D02*
X007022Y019511D01*
X006971Y019412D02*
X007099Y019412D01*
X007099Y019314D02*
X006872Y019314D01*
X006774Y019215D02*
X007099Y019215D01*
X007099Y019117D02*
X006765Y019117D01*
X006864Y019018D02*
X007099Y019018D01*
X007099Y018920D02*
X006962Y018920D01*
X006992Y018821D02*
X007099Y018821D01*
X007099Y018723D02*
X006992Y018723D01*
X006992Y018624D02*
X007099Y018624D01*
X007099Y018526D02*
X006992Y018526D01*
X006928Y018427D02*
X007172Y018427D01*
X007271Y018329D02*
X006829Y018329D01*
X006731Y018230D02*
X007369Y018230D01*
X006541Y018230D02*
X006484Y018230D01*
X006484Y018329D02*
X006541Y018329D01*
X006541Y018427D02*
X006484Y018427D01*
X006484Y018526D02*
X006541Y018526D01*
X006541Y018624D02*
X006484Y018624D01*
X008225Y018624D02*
X010589Y018624D01*
X010589Y018711D02*
X010589Y018289D01*
X010888Y017990D01*
X011310Y017990D01*
X011609Y018289D01*
X011609Y018711D01*
X011310Y019010D01*
X010888Y019010D01*
X010589Y018711D01*
X010600Y018723D02*
X008224Y018723D01*
X008224Y018821D02*
X010699Y018821D01*
X010797Y018920D02*
X008224Y018920D01*
X008224Y019018D02*
X015534Y019018D01*
X015633Y018920D02*
X015401Y018920D01*
X015310Y019010D02*
X015609Y018711D01*
X015609Y018289D01*
X015310Y017990D01*
X014888Y017990D01*
X014589Y018289D01*
X014589Y018711D01*
X014888Y019010D01*
X015310Y019010D01*
X015436Y019117D02*
X008224Y019117D01*
X008224Y019215D02*
X015337Y019215D01*
X015239Y019314D02*
X008224Y019314D01*
X008224Y019412D02*
X015140Y019412D01*
X015042Y019511D02*
X008224Y019511D01*
X008224Y019609D02*
X015039Y019609D01*
X015039Y019708D02*
X008224Y019708D01*
X008224Y019806D02*
X015039Y019806D01*
X015039Y019905D02*
X008224Y019905D01*
X008224Y020003D02*
X008612Y020003D01*
X008470Y020102D02*
X008224Y020102D01*
X008224Y020200D02*
X008378Y020200D01*
X008337Y020299D02*
X008224Y020299D01*
X008224Y020397D02*
X008299Y020397D01*
X008299Y020496D02*
X008224Y020496D01*
X008224Y020594D02*
X008299Y020594D01*
X008333Y020693D02*
X008224Y020693D01*
X008224Y020791D02*
X008374Y020791D01*
X008461Y020890D02*
X008224Y020890D01*
X008224Y020988D02*
X008590Y020988D01*
X009361Y020299D02*
X009368Y020299D01*
X009320Y020200D02*
X009424Y020200D01*
X009513Y020102D02*
X009228Y020102D01*
X009087Y020003D02*
X009696Y020003D01*
X009799Y020003D02*
X009899Y020003D01*
X009899Y020102D02*
X009799Y020102D01*
X009799Y020200D02*
X009899Y020200D01*
X009899Y020299D02*
X009799Y020299D01*
X009799Y020397D02*
X009899Y020397D01*
X009899Y020496D02*
X010699Y020496D01*
X010699Y020594D02*
X010361Y020594D01*
X010333Y020693D02*
X010733Y020693D01*
X010774Y020791D02*
X010280Y020791D01*
X010195Y020890D02*
X010861Y020890D01*
X010990Y020988D02*
X010030Y020988D01*
X010359Y020397D02*
X010699Y020397D01*
X010737Y020299D02*
X010330Y020299D01*
X010274Y020200D02*
X010778Y020200D01*
X010870Y020102D02*
X010185Y020102D01*
X010002Y020003D02*
X011012Y020003D01*
X011487Y020003D02*
X012096Y020003D01*
X012199Y020003D02*
X012299Y020003D01*
X012299Y020102D02*
X012199Y020102D01*
X012199Y020200D02*
X012299Y020200D01*
X012299Y020299D02*
X012199Y020299D01*
X012199Y020397D02*
X012299Y020397D01*
X012585Y020102D02*
X012870Y020102D01*
X012778Y020200D02*
X012674Y020200D01*
X012730Y020299D02*
X012737Y020299D01*
X013012Y020003D02*
X012402Y020003D01*
X011913Y020102D02*
X011628Y020102D01*
X011720Y020200D02*
X011824Y020200D01*
X011768Y020299D02*
X011761Y020299D01*
X013487Y020003D02*
X014012Y020003D01*
X013870Y020102D02*
X013628Y020102D01*
X013720Y020200D02*
X013778Y020200D01*
X014487Y020003D02*
X015012Y020003D01*
X014870Y020102D02*
X014628Y020102D01*
X014720Y020200D02*
X014778Y020200D01*
X015487Y020003D02*
X016012Y020003D01*
X015870Y020102D02*
X015628Y020102D01*
X015720Y020200D02*
X015778Y020200D01*
X016487Y020003D02*
X017012Y020003D01*
X016870Y020102D02*
X016628Y020102D01*
X016720Y020200D02*
X016778Y020200D01*
X018487Y020003D02*
X019612Y020003D01*
X019470Y020102D02*
X018628Y020102D01*
X018720Y020200D02*
X019378Y020200D01*
X019337Y020299D02*
X018761Y020299D01*
X018799Y020397D02*
X019299Y020397D01*
X019299Y020496D02*
X018799Y020496D01*
X018799Y020594D02*
X019299Y020594D01*
X019333Y020693D02*
X018765Y020693D01*
X018724Y020791D02*
X019374Y020791D01*
X019461Y020890D02*
X018637Y020890D01*
X018508Y020988D02*
X019590Y020988D01*
X020320Y020200D02*
X020378Y020200D01*
X020470Y020102D02*
X020228Y020102D01*
X020087Y020003D02*
X020612Y020003D01*
X021087Y020003D02*
X021612Y020003D01*
X021470Y020102D02*
X021228Y020102D01*
X021320Y020200D02*
X021378Y020200D01*
X022087Y020003D02*
X022612Y020003D01*
X022470Y020102D02*
X022228Y020102D01*
X022320Y020200D02*
X022378Y020200D01*
X023087Y020003D02*
X023612Y020003D01*
X023470Y020102D02*
X023228Y020102D01*
X023320Y020200D02*
X023378Y020200D01*
X024087Y020003D02*
X024612Y020003D01*
X024470Y020102D02*
X024228Y020102D01*
X024320Y020200D02*
X024378Y020200D01*
X025087Y020003D02*
X025612Y020003D01*
X025470Y020102D02*
X025228Y020102D01*
X025320Y020200D02*
X025378Y020200D01*
X026087Y020003D02*
X026612Y020003D01*
X026470Y020102D02*
X026228Y020102D01*
X026320Y020200D02*
X026378Y020200D01*
X018332Y016162D02*
X017484Y016162D01*
X017583Y016063D02*
X018233Y016063D01*
X018135Y015965D02*
X017681Y015965D01*
X017780Y015866D02*
X018119Y015866D01*
X020085Y014389D02*
X020613Y014389D01*
X020507Y014290D02*
X020191Y014290D01*
X020250Y014192D02*
X020448Y014192D01*
X020409Y014093D02*
X020289Y014093D01*
X020289Y013995D02*
X020409Y013995D01*
X020409Y013896D02*
X020289Y013896D01*
X020289Y013798D02*
X020409Y013798D01*
X020409Y013699D02*
X020289Y013699D01*
X020289Y013601D02*
X020409Y013601D01*
X020409Y013502D02*
X020289Y013502D01*
X020289Y013404D02*
X020409Y013404D01*
X020449Y013305D02*
X020249Y013305D01*
X020188Y013207D02*
X020510Y013207D01*
X020621Y013108D02*
X020077Y013108D01*
X021077Y013108D02*
X021621Y013108D01*
X021510Y013207D02*
X021188Y013207D01*
X021249Y013305D02*
X021449Y013305D01*
X021409Y013404D02*
X021289Y013404D01*
X021289Y013502D02*
X021409Y013502D01*
X021409Y013601D02*
X021289Y013601D01*
X021289Y013699D02*
X021409Y013699D01*
X021409Y013798D02*
X021289Y013798D01*
X021289Y013896D02*
X021409Y013896D01*
X021409Y013995D02*
X021289Y013995D01*
X021289Y014093D02*
X021409Y014093D01*
X021448Y014192D02*
X021250Y014192D01*
X021191Y014290D02*
X021507Y014290D01*
X021613Y014389D02*
X021085Y014389D01*
X016095Y018033D02*
X015353Y018033D01*
X015452Y018132D02*
X015996Y018132D01*
X015898Y018230D02*
X015550Y018230D01*
X015609Y018329D02*
X015839Y018329D01*
X015839Y018427D02*
X015609Y018427D01*
X015609Y018526D02*
X015839Y018526D01*
X015839Y018624D02*
X015609Y018624D01*
X015598Y018723D02*
X015830Y018723D01*
X015731Y018821D02*
X015499Y018821D01*
X014797Y018920D02*
X011401Y018920D01*
X011499Y018821D02*
X014699Y018821D01*
X014600Y018723D02*
X011598Y018723D01*
X011609Y018624D02*
X014589Y018624D01*
X014589Y018526D02*
X011609Y018526D01*
X011609Y018427D02*
X014589Y018427D01*
X014589Y018329D02*
X011609Y018329D01*
X011550Y018230D02*
X014648Y018230D01*
X014746Y018132D02*
X011452Y018132D01*
X011353Y018033D02*
X014845Y018033D01*
X014262Y017710D02*
X014262Y017710D01*
X014191Y017639D02*
X014007Y017639D01*
X014105Y017541D02*
X014139Y017541D01*
X013807Y017245D02*
X013728Y017245D01*
X013769Y017147D02*
X013906Y017147D01*
X013909Y017048D02*
X013789Y017048D01*
X013789Y016950D02*
X013909Y016950D01*
X013909Y016851D02*
X013789Y016851D01*
X013789Y016753D02*
X013909Y016753D01*
X013909Y016654D02*
X013789Y016654D01*
X013789Y016556D02*
X013909Y016556D01*
X013909Y016457D02*
X013789Y016457D01*
X013771Y016359D02*
X013927Y016359D01*
X013968Y016260D02*
X013730Y016260D01*
X013643Y016162D02*
X014055Y016162D01*
X014230Y016063D02*
X013468Y016063D01*
X013230Y016063D02*
X012465Y016063D01*
X012563Y015965D02*
X015139Y015965D01*
X015139Y015866D02*
X012579Y015866D01*
X012579Y015949D02*
X012579Y015780D01*
X012129Y015780D01*
X012129Y016230D01*
X012298Y016230D01*
X012579Y015949D01*
X012579Y015669D02*
X015139Y015669D01*
X015139Y015768D02*
X012129Y015768D01*
X012069Y015768D02*
X011082Y015768D01*
X012069Y015866D02*
X012129Y015866D01*
X012129Y015965D02*
X012069Y015965D01*
X012069Y016063D02*
X012129Y016063D01*
X012129Y016162D02*
X012069Y016162D01*
X012330Y016260D02*
X012968Y016260D01*
X012927Y016359D02*
X012429Y016359D01*
X012527Y016457D02*
X012909Y016457D01*
X012909Y016556D02*
X012609Y016556D01*
X012609Y016654D02*
X012909Y016654D01*
X012909Y016753D02*
X012609Y016753D01*
X012609Y016851D02*
X012909Y016851D01*
X012909Y016950D02*
X012609Y016950D01*
X012522Y017048D02*
X012909Y017048D01*
X012929Y017147D02*
X012424Y017147D01*
X012325Y017245D02*
X012970Y017245D01*
X011676Y017048D02*
X009801Y017048D01*
X009900Y016950D02*
X011589Y016950D01*
X012366Y016162D02*
X013055Y016162D01*
X012129Y015669D02*
X012069Y015669D01*
X012069Y015571D02*
X012129Y015571D01*
X012129Y015472D02*
X012069Y015472D01*
X012069Y015374D02*
X012129Y015374D01*
X012129Y015275D02*
X012069Y015275D01*
X012303Y015275D02*
X014827Y015275D01*
X014926Y015374D02*
X012401Y015374D01*
X012500Y015472D02*
X015024Y015472D01*
X015123Y015571D02*
X012579Y015571D01*
X013585Y014389D02*
X014113Y014389D01*
X014007Y014290D02*
X013691Y014290D01*
X013750Y014192D02*
X013948Y014192D01*
X013909Y014093D02*
X013789Y014093D01*
X013789Y013995D02*
X013909Y013995D01*
X013909Y013896D02*
X013789Y013896D01*
X013789Y013798D02*
X013909Y013798D01*
X013909Y013699D02*
X013789Y013699D01*
X013789Y013601D02*
X013909Y013601D01*
X013909Y013502D02*
X013789Y013502D01*
X013789Y013404D02*
X013909Y013404D01*
X013949Y013305D02*
X013749Y013305D01*
X013688Y013207D02*
X014010Y013207D01*
X014121Y013108D02*
X013577Y013108D01*
X014585Y014389D02*
X014639Y014389D01*
X010746Y018132D02*
X008718Y018132D01*
X008619Y018230D02*
X010648Y018230D01*
X010589Y018329D02*
X008521Y018329D01*
X008422Y018427D02*
X010589Y018427D01*
X010589Y018526D02*
X008324Y018526D01*
X020194Y009956D02*
X020254Y009956D01*
X020254Y009858D02*
X020194Y009858D01*
X020194Y009759D02*
X020254Y009759D01*
X020254Y009661D02*
X020194Y009661D01*
X020194Y009562D02*
X020254Y009562D01*
D24*
X022349Y007500D02*
X022849Y008000D01*
X022849Y007500D01*
X023349Y007000D01*
X024849Y007000D01*
X025849Y006000D01*
X025849Y004500D01*
X022349Y003000D02*
X022349Y007500D01*
X018349Y006500D02*
X017349Y006500D01*
X017349Y007000D01*
X017099Y007250D01*
X012099Y007250D01*
X010849Y006000D01*
X009849Y006000D01*
X009349Y006500D01*
X009349Y007000D01*
X008099Y006750D02*
X009849Y005000D01*
X011849Y005000D01*
X012349Y005500D01*
X013349Y005500D01*
X016349Y003500D02*
X016349Y003000D01*
X016974Y002375D01*
X021724Y002375D01*
X022349Y003000D01*
X020849Y003000D02*
X020599Y002750D01*
X017599Y002750D01*
X017349Y003000D01*
X017349Y003500D01*
X010349Y009500D02*
X010099Y009250D01*
X008974Y009250D01*
X008474Y009750D01*
X008474Y010625D01*
X007349Y011750D01*
X006849Y011750D01*
X006349Y012250D01*
X006349Y013500D01*
X005849Y014000D01*
X003849Y014000D01*
X002849Y013000D01*
X002849Y012750D01*
X003849Y012750D02*
X003849Y013000D01*
X004349Y013500D01*
X005224Y013500D01*
X005474Y013250D01*
X005474Y012125D01*
X008099Y009500D01*
X008099Y006750D01*
X007224Y009000D02*
X005740Y007516D01*
X004668Y007516D01*
X006740Y009484D02*
X007224Y009000D01*
X006740Y009484D02*
X004668Y009484D01*
X004668Y010469D02*
X004381Y010469D01*
X003849Y011000D01*
X003849Y011750D01*
X007099Y012500D02*
X007849Y012500D01*
X009349Y011000D01*
X009349Y010000D01*
X010349Y010000D02*
X010349Y009500D01*
X014349Y011000D02*
X014349Y012500D01*
X014849Y013000D01*
X014849Y015000D01*
X015349Y015500D01*
X015349Y016750D01*
X014349Y016750D02*
X014349Y017000D01*
X014349Y017500D01*
X014599Y017750D01*
X016974Y017750D01*
X017224Y017500D01*
X017224Y016125D01*
X018349Y015000D01*
X019349Y015000D01*
X020849Y016500D01*
X020849Y016750D01*
X021349Y016000D02*
X021349Y017500D01*
X021599Y017750D01*
X022099Y017750D01*
X022349Y017500D01*
X022349Y016000D01*
X022599Y015750D01*
X023099Y015750D01*
X023849Y015000D01*
X023849Y011000D01*
X024849Y011000D02*
X024849Y012000D01*
X025099Y012250D01*
X025099Y017250D01*
X024849Y017500D01*
X023849Y017500D01*
X022849Y017750D02*
X022849Y016750D01*
X021849Y016750D02*
X021849Y015500D01*
X022349Y015000D01*
X022849Y015000D01*
X023349Y014500D01*
X023349Y013000D01*
X022849Y012500D01*
X022849Y011000D01*
X025849Y011500D02*
X025849Y013500D01*
X026349Y014000D01*
X026349Y014500D01*
X025849Y011500D02*
X026349Y011000D01*
X027349Y011000D01*
X027849Y011500D01*
X027899Y011500D01*
X020849Y013750D02*
X020849Y015500D01*
X021349Y016000D01*
X022849Y017750D02*
X022099Y018500D01*
X020349Y018500D01*
X017849Y017500D02*
X017849Y020100D01*
X018249Y020500D01*
X016349Y018500D02*
X015249Y019600D01*
X015249Y020500D01*
X013849Y017500D02*
X010349Y017500D01*
X013849Y017500D02*
X014349Y017000D01*
X017849Y014000D02*
X016849Y013000D01*
X015849Y013000D01*
X015349Y012500D01*
X015349Y011000D01*
X008099Y014500D02*
X007099Y013500D01*
X007099Y012500D01*
X007224Y004500D02*
X007208Y004484D01*
X004668Y004484D01*
X005865Y002516D02*
X006849Y003500D01*
X007224Y003500D01*
X005865Y002516D02*
X004668Y002516D01*
D25*
X017849Y014000D03*
X017849Y017500D03*
X023849Y017500D03*
X026349Y014500D03*
X010349Y017500D03*
M02*
