%
M48
M72
T01C0.0240
T02C0.0315
T03C0.0320
T04C0.0394
T05C0.0400
T06C0.0433
T07C0.0472
%
T01
X17849Y14000
X17849Y17500
X23849Y17500
X26349Y14500
X10349Y17500
T02
X6512Y18691
X6512Y19675
X6512Y20659
X2615Y19675
T03
X8099Y14500
X7099Y13500
X7099Y12500
X4849Y12750
X3849Y12750
X2849Y12750
X2849Y11750
X3849Y11750
X4849Y11750
X9349Y10000
X10349Y10000
X13349Y11000
X14349Y11000
X15349Y11000
X16349Y11000
X17599Y11000
X17599Y10000
X20224Y10000
X20224Y11000
X21849Y11000
X22849Y11000
X23849Y11000
X24849Y11000
X24849Y8000
X23849Y8000
X22849Y8000
X21849Y8000
X20849Y7000
X19349Y6500
X18349Y6500
X17349Y6500
X16349Y6500
X15099Y6500
X15099Y5500
X13349Y5500
X12349Y5500
X10349Y7000
X9349Y7000
X13349Y8000
X14349Y8000
X15349Y8000
X16349Y8000
X23349Y5500
X24349Y5500
X20849Y3000
X19349Y3500
X18349Y3500
X17349Y3500
X16349Y3500
X13349Y1500
X12349Y1500
X11099Y12500
X11099Y13500
X10099Y14500
X12099Y15750
X12099Y16750
X13349Y16750
X14349Y16750
X15349Y16750
X16349Y16750
X18599Y16750
X19849Y16750
X20849Y16750
X21849Y16750
X22849Y16750
X20349Y18500
X16349Y18500
X15099Y18500
X11099Y18500
X13349Y13750
X14349Y13750
X15349Y13750
X16349Y13750
X18599Y15750
X19849Y13750
X20849Y13750
X21849Y13750
X22849Y13750
T04
X26849Y5500
X25849Y4500
X27849Y4500
T05
X26849Y1500
X25849Y1500
X24849Y1500
X23849Y1500
X22849Y1500
X21849Y1500
X19849Y1500
X18849Y1500
X17849Y1500
X16849Y1500
X15849Y1500
X14849Y1500
X7224Y2500
X7224Y3500
X7224Y4500
X7224Y8000
X7224Y9000
X24444Y13610
X27004Y13610
X26899Y12500
X27899Y12500
X27899Y11500
X26899Y11500
X26899Y10500
X27899Y10500
X27004Y15390
X27004Y16610
X24444Y16610
X24444Y15390
X24444Y18390
X27004Y18390
X26849Y20500
X25849Y20500
X24849Y20500
X23849Y20500
X22849Y20500
X21849Y20500
X20849Y20500
X19849Y20500
X18249Y20500
X17249Y20500
X16249Y20500
X15249Y20500
X14249Y20500
X13249Y20500
X12249Y20500
X11249Y20500
X9849Y20500
X8849Y20500
T06
X2699Y1531
X4668Y3500
X2699Y5469
X2699Y6531
X4668Y8500
X2699Y10469
T07
X4668Y10469
X4668Y9484
X2699Y8500
X4668Y7516
X4668Y6531
X4668Y5469
X4668Y4484
X2699Y3500
X4668Y2516
X4668Y1531
M30
